<?xml version="1.0" encoding="UTF-8"?>
<!DOCTYPE svg PUBLIC "-//W3C//DTD SVG 1.1//EN" "http://www.w3.org/Graphics/SVG/1.1/DTD/svg11.dtd">
<svg xmlns="http://www.w3.org/2000/svg" version="1.1" width="412px" height="309px" style="shape-rendering:geometricPrecision; text-rendering:geometricPrecision; image-rendering:optimizeQuality; fill-rule:evenodd; clip-rule:evenodd" xmlns:xlink="http://www.w3.org/1999/xlink">
<g><path style="opacity:0.441" fill="#050505" d="M 266.5,28.5 C 267.523,22.8561 267.523,17.1895 266.5,11.5C 272.698,8.39245 278.531,9.05912 284,13.5C 295.868,4.71851 306.868,5.71851 317,16.5C 319.809,22.1267 321.309,28.1267 321.5,34.5C 325.633,36.8021 329.633,39.3021 333.5,42C 336.947,47.4706 335.614,51.3039 329.5,53.5C 324.651,50.9097 319.651,48.5764 314.5,46.5C 302.268,54.2698 291.268,52.9365 281.5,42.5C 273.944,40.6114 268.944,35.9448 266.5,28.5 Z M 272.5,16.5 C 274.716,17.2026 276.549,18.5359 278,20.5C 278.222,24.1817 277.889,27.8484 277,31.5C 273.54,26.9644 272.04,21.9644 272.5,16.5 Z M 298.5,19.5 C 308.66,21.8916 311.16,27.5582 306,36.5C 297.971,41.189 292.471,39.0223 289.5,30C 290.557,24.6548 293.557,21.1548 298.5,19.5 Z"/></g>
<g><path style="opacity:0.492" fill="#101010" d="M 266.5,11.5 C 267.523,17.1895 267.523,22.8561 266.5,28.5C 262.004,30.1397 257.337,31.1397 252.5,31.5C 251.167,35.1667 251.167,38.8333 252.5,42.5C 260.507,42.3336 268.507,42.5003 276.5,43C 278.595,52.6281 278.761,62.4614 277,72.5C 269.124,126.734 238.957,161.9 186.5,178C 176.781,179.311 167.114,180.811 157.5,182.5C 156.522,182.189 155.855,181.522 155.5,180.5C 156.833,177.5 156.833,174.5 155.5,171.5C 176.427,168.691 196.094,162.191 214.5,152C 250.674,127.484 267.507,93.3175 265,49.5C 263.989,48.6634 262.822,48.33 261.5,48.5C 263.613,97.1439 243.279,132.644 200.5,155C 186.447,161.185 171.78,165.018 156.5,166.5C 156.207,162.563 156.54,158.73 157.5,155C 216.013,146.815 247.347,113.148 251.5,54C 251.333,52.5 251.167,51 251,49.5C 250,48.1667 249,48.1667 248,49.5C 247.183,79.9492 236.35,106.116 215.5,128C 198.361,141.54 179.028,149.04 157.5,150.5C 156.511,146.893 156.177,143.226 156.5,139.5C 196.384,134.453 222.55,112.787 235,74.5C 236.537,66.2303 236.87,57.897 236,49.5C 235,48.1667 234,48.1667 233,49.5C 233.069,86.7958 216.236,113.629 182.5,130C 174.144,133.086 165.644,134.586 157,134.5C 156.501,130.848 156.335,127.182 156.5,123.5C 173.086,123.037 187.086,116.871 198.5,105C 215.527,88.1121 222.694,67.6121 220,43.5C 226.41,42.5223 232.91,42.189 239.5,42.5C 239.334,36.1579 239.5,29.8246 240,23.5C 244.794,11.0247 253.627,7.02466 266.5,11.5 Z M 254.5,13.5 C 257.649,13.2114 260.649,13.7114 263.5,15C 259.83,15.5482 256.163,16.0482 252.5,16.5C 252.5,17.8333 252.5,19.1667 252.5,20.5C 255.799,19.6239 259.132,19.4572 262.5,20C 259.564,21.0454 256.564,21.8788 253.5,22.5C 252.614,23.325 252.281,24.325 252.5,25.5C 255.85,25.335 259.183,25.5017 262.5,26C 258.886,26.9449 255.219,27.6116 251.5,28C 250.667,28.8333 249.833,29.6667 249,30.5C 248.501,34.4862 248.334,38.4862 248.5,42.5C 246.833,42.5 245.167,42.5 243.5,42.5C 242.2,36.1521 242.366,29.8188 244,23.5C 246.106,18.5573 249.606,15.224 254.5,13.5 Z"/></g>
<g><path style="opacity:0.499" fill="#131313" d="M 157.5,182.5 C 157.425,185.206 157.092,187.873 156.5,190.5C 155.711,190.217 155.044,189.717 154.5,189C 113.833,188.333 73.1667,188.333 32.5,189C 32.0853,191.026 31.0853,192.526 29.5,193.5C 29.6646,190.482 29.498,187.482 29,184.5C 18.154,182.569 8.32071,184.902 -0.5,191.5C -0.5,189.5 -0.5,187.5 -0.5,185.5C 8.80714,180.34 18.8071,178.007 29.5,178.5C 29.5,177.167 29.5,175.833 29.5,174.5C 19.0306,174.355 9.03064,176.355 -0.5,180.5C -0.5,178.5 -0.5,176.5 -0.5,174.5C 8.87348,171.225 18.5401,169.225 28.5,168.5C 29.2721,164.548 29.6054,160.548 29.5,156.5C 19.2799,157.054 9.27987,158.721 -0.5,161.5C -0.5,159.5 -0.5,157.5 -0.5,155.5C 5.20405,154.549 10.8707,153.382 16.5,152C 20.7548,151.204 24.9215,151.371 29,152.5C 29.0856,148.171 28.7522,143.837 28,139.5C 18.1727,140.499 8.67268,142.832 -0.5,146.5C -0.5,144.5 -0.5,142.5 -0.5,140.5C 8.1447,137.798 16.978,135.798 26,134.5C 27.1074,134.585 28.1074,134.919 29,135.5C 29.4974,132.854 29.6641,130.187 29.5,127.5C 19.3752,129.04 9.37524,131.04 -0.5,133.5C -0.5,131.5 -0.5,129.5 -0.5,127.5C 24.9227,122.05 50.5893,120.05 76.5,121.5C 76.5,120.5 76.5,119.5 76.5,118.5C 77.6477,117.105 78.6477,117.272 79.5,119C 83.2739,120.183 86.4406,119.349 89,116.5C 89,113.167 89,109.833 89,106.5C 89.8333,105.667 90.6667,104.833 91.5,104C 95.5828,103.47 99.5828,102.637 103.5,101.5C 107.684,105.512 112.517,108.512 118,110.5C 118.694,116.636 115.861,119.303 109.5,118.5C 102.489,115.536 95.9892,116.536 90,121.5C 87.7964,126.28 88.9631,130.114 93.5,133C 97.1667,133.667 100.833,133.667 104.5,133C 109.514,130.847 111.514,127.014 110.5,121.5C 111.908,120.939 113.408,120.605 115,120.5C 127.15,121.262 139.317,121.762 151.5,122C 153.382,122.198 155.048,122.698 156.5,123.5C 156.335,127.182 156.501,130.848 157,134.5C 165.644,134.586 174.144,133.086 182.5,130C 216.236,113.629 233.069,86.7958 233,49.5C 234,48.1667 235,48.1667 236,49.5C 236.87,57.897 236.537,66.2303 235,74.5C 222.55,112.787 196.384,134.453 156.5,139.5C 156.177,143.226 156.511,146.893 157.5,150.5C 179.028,149.04 198.361,141.54 215.5,128C 236.35,106.116 247.183,79.9492 248,49.5C 249,48.1667 250,48.1667 251,49.5C 251.167,51 251.333,52.5 251.5,54C 247.347,113.148 216.013,146.815 157.5,155C 156.54,158.73 156.207,162.563 156.5,166.5C 171.78,165.018 186.447,161.185 200.5,155C 243.279,132.644 263.613,97.1439 261.5,48.5C 262.822,48.33 263.989,48.6634 265,49.5C 267.507,93.3175 250.674,127.484 214.5,152C 196.094,162.191 176.427,168.691 155.5,171.5C 156.833,174.5 156.833,177.5 155.5,180.5C 155.855,181.522 156.522,182.189 157.5,182.5 Z"/></g>
<g><path style="opacity:0.451" fill="#111111" d="M 383.5,83.5 C 382.516,81.5201 381.183,79.8534 379.5,78.5C 378.176,73.4327 378.176,68.266 379.5,63C 382.695,62.8418 384.862,64.3418 386,67.5C 387.36,64.4489 389.527,63.7823 392.5,65.5C 393.452,67.0453 393.785,68.712 393.5,70.5C 401.094,70.2623 402.427,73.0956 397.5,79C 399.746,83.7862 398.246,85.9528 393,85.5C 389.708,85.3449 386.541,84.6782 383.5,83.5 Z"/></g>
<g><path style="opacity:0.444" fill="#111111" d="M 322.5,96.5 C 321.167,96.5 320.5,97.1667 320.5,98.5C 316.289,100.078 311.956,100.578 307.5,100C 306.919,99.1074 306.585,98.1074 306.5,97C 307.445,94.9115 307.445,92.9115 306.5,91C 307.413,88.6674 308.913,86.8341 311,85.5C 311.382,80.9754 313.882,79.3087 318.5,80.5C 318.443,84.1331 319.443,84.2998 321.5,81C 323.112,80.2797 324.612,80.4464 326,81.5C 327.18,87.0966 326.013,92.0966 322.5,96.5 Z"/></g>
<g><path style="opacity:0.456" fill="#040404" d="M 103.5,101.5 C 99.5828,102.637 95.5828,103.47 91.5,104C 90.6667,104.833 89.8333,105.667 89,106.5C 89,109.833 89,113.167 89,116.5C 86.4406,119.349 83.2739,120.183 79.5,119C 78.6477,117.272 77.6477,117.105 76.5,118.5C 75.8401,116.184 75.1734,113.851 74.5,111.5C 77.9517,96.8349 86.9517,90.3349 101.5,92C 104.468,94.7027 105.135,97.8694 103.5,101.5 Z"/></g>
<g><path style="opacity:0.235" fill="#040404" d="M 322.5,96.5 C 324.451,98.48 325.951,100.813 327,103.5C 329.227,110.518 331.727,117.184 334.5,123.5C 333.817,128.813 332.984,134.146 332,139.5C 331.283,138.956 330.783,138.289 330.5,137.5C 331.129,123.685 327.795,110.685 320.5,98.5C 320.5,97.1667 321.167,96.5 322.5,96.5 Z"/></g>
<g><path style="opacity:0.494" fill="#131313" d="M 348.5,134.5 C 349.505,138.463 349.672,142.463 349,146.5C 350.744,141.101 352.577,135.768 354.5,130.5C 354.5,130.167 354.5,129.833 354.5,129.5C 355.167,129.5 355.5,129.167 355.5,128.5C 355.5,128.167 355.5,127.833 355.5,127.5C 359.024,121.619 363.024,115.952 367.5,110.5C 368.248,113.497 368.915,116.497 369.5,119.5C 368.491,126.473 367.991,133.473 368,140.5C 372.69,136.658 377.69,133.325 383,130.5C 382.66,137.857 380.493,144.69 376.5,151C 377.094,151.464 377.761,151.631 378.5,151.5C 382.767,151.203 386.934,151.536 391,152.5C 392.828,166.116 393.995,179.783 394.5,193.5C 358.613,194.242 322.613,194.242 286.5,193.5C 287.073,179.377 288.406,165.377 290.5,151.5C 295.833,151.5 301.167,151.5 306.5,151.5C 302.866,144.605 300.199,137.272 298.5,129.5C 304.903,130.635 310.069,133.968 314,139.5C 312.342,129.585 310.842,119.585 309.5,109.5C 309.833,108.5 310.5,107.833 311.5,107.5C 319.54,116.515 325.873,126.515 330.5,137.5C 330.783,138.289 331.283,138.956 332,139.5C 332.984,134.146 333.817,128.813 334.5,123.5C 335.321,115.871 337.821,108.871 342,102.5C 344.868,105.94 346.535,109.94 347,114.5C 347.831,121.146 348.331,127.813 348.5,134.5 Z"/></g>
<g><path style="opacity:0.244" fill="#040404" d="M 379.5,78.5 C 381.183,79.8534 382.516,81.5201 383.5,83.5C 377.231,87.6049 372.064,92.9382 368,99.5C 362.187,108.109 358.02,117.443 355.5,127.5C 354.167,127.833 354.167,128.167 355.5,128.5C 355.5,129.167 355.167,129.5 354.5,129.5C 353.167,129.833 353.167,130.167 354.5,130.5C 352.577,135.768 350.744,141.101 349,146.5C 349.672,142.463 349.505,138.463 348.5,134.5C 354.169,114.311 364.336,96.6439 379,81.5C 379.483,80.552 379.649,79.552 379.5,78.5 Z"/></g>
<g><path style="opacity:0.439" fill="#050505" d="M 290.5,151.5 C 288.406,165.377 287.073,179.377 286.5,193.5C 285.907,204.21 284.907,214.877 283.5,225.5C 281.841,238.692 280.175,252.026 278.5,265.5C 278.942,266.739 279.609,267.739 280.5,268.5C 279.2,270.223 278.533,272.39 278.5,275C 278.042,279.829 277.709,284.662 277.5,289.5C 275.94,295.613 274.94,301.947 274.5,308.5C 271.833,308.5 269.167,308.5 266.5,308.5C 272.946,245.264 279.113,182.264 285,119.5C 285.996,114.771 288.663,113.438 293,115.5C 293.617,127.645 292.783,139.645 290.5,151.5 Z"/></g>
<g><path style="opacity:0.441" fill="#050505" d="M 411.5,272.5 C 411.5,284.5 411.5,296.5 411.5,308.5C 409.833,308.5 408.167,308.5 406.5,308.5C 406.14,300.944 405.14,293.611 403.5,286.5C 403.6,280.18 402.6,274.18 400.5,268.5C 401.53,267.448 402.197,266.114 402.5,264.5C 401.283,251.291 399.617,238.291 397.5,225.5C 396.61,214.822 395.61,204.156 394.5,193.5C 393.995,179.783 392.828,166.116 391,152.5C 386.934,151.536 382.767,151.203 378.5,151.5C 381.962,150.518 385.629,150.185 389.5,150.5C 388.717,139.163 388.217,127.83 388,116.5C 392.095,113.363 394.762,114.363 396,119.5C 400.848,170.68 406.015,221.68 411.5,272.5 Z"/></g>
<g><path style="opacity:0.498" fill="#060606" d="M 109.5,118.5 C 110.11,119.391 110.443,120.391 110.5,121.5C 111.514,127.014 109.514,130.847 104.5,133C 100.833,133.667 97.1667,133.667 93.5,133C 88.9631,130.114 87.7964,126.28 90,121.5C 95.9892,116.536 102.489,115.536 109.5,118.5 Z"/></g>
<g><path style="opacity:0.502" fill="#1f1f1f" d="M -0.5,140.5 C -0.5,138.167 -0.5,135.833 -0.5,133.5C 9.37524,131.04 19.3752,129.04 29.5,127.5C 29.6641,130.187 29.4974,132.854 29,135.5C 28.1074,134.919 27.1074,134.585 26,134.5C 16.978,135.798 8.1447,137.798 -0.5,140.5 Z"/></g>
<g><path style="opacity:0.502" fill="#1f1f1f" d="M -0.5,155.5 C -0.5,152.5 -0.5,149.5 -0.5,146.5C 8.67268,142.832 18.1727,140.499 28,139.5C 28.7522,143.837 29.0856,148.171 29,152.5C 24.9215,151.371 20.7548,151.204 16.5,152C 10.8707,153.382 5.20405,154.549 -0.5,155.5 Z"/></g>
<g><path style="opacity:0.502" fill="#1f1f1f" d="M -0.5,174.5 C -0.5,170.167 -0.5,165.833 -0.5,161.5C 9.27987,158.721 19.2799,157.054 29.5,156.5C 29.6054,160.548 29.2721,164.548 28.5,168.5C 18.5401,169.225 8.87348,171.225 -0.5,174.5 Z"/></g>
<g><path style="opacity:0.502" fill="#1e1e1e" d="M -0.5,185.5 C -0.5,183.833 -0.5,182.167 -0.5,180.5C 9.03064,176.355 19.0306,174.355 29.5,174.5C 29.5,175.833 29.5,177.167 29.5,178.5C 18.8071,178.007 8.80714,180.34 -0.5,185.5 Z"/></g>
<g><path style="opacity:0.494" fill="#040404" d="M 156.5,190.5 C 176.665,227.716 181.665,267.049 171.5,308.5C 166.833,308.5 162.167,308.5 157.5,308.5C 166.589,276.879 166.756,245.212 158,213.5C 155.788,206.072 152.288,199.405 147.5,193.5C 146.417,194.365 146.251,195.365 147,196.5C 160.927,222.824 165.594,250.824 161,280.5C 159.538,290.041 157.371,299.374 154.5,308.5C 150.167,308.5 145.833,308.5 141.5,308.5C 149.203,283.514 150.369,258.181 145,232.5C 140.879,219.967 137.046,207.3 133.5,194.5C 132.353,196.765 132.186,199.098 133,201.5C 135.528,212.417 138.861,223.083 143,233.5C 147.116,258.769 145.949,283.769 139.5,308.5C 134.5,308.5 129.5,308.5 124.5,308.5C 126.518,300.581 128.352,292.581 130,284.5C 132.145,270.776 131.812,257.109 129,243.5C 125.99,233.486 122.99,223.486 120,213.5C 119.801,206.742 118.968,200.075 117.5,193.5C 116.314,201.848 116.481,210.182 118,218.5C 124.586,233.775 128.419,249.775 129.5,266.5C 128.765,280.914 126.099,294.914 121.5,308.5C 116.5,308.5 111.5,308.5 106.5,308.5C 113.056,292.12 115.223,275.12 113,257.5C 110.455,244.442 107.789,231.442 105,218.5C 104.832,210.147 104.332,201.813 103.5,193.5C 102.914,193.709 102.414,194.043 102,194.5C 101.333,201.167 101.333,207.833 102,214.5C 104.13,228.283 106.797,241.95 110,255.5C 112.962,273.84 110.795,291.507 103.5,308.5C 99.8333,308.5 96.1667,308.5 92.5,308.5C 98.5571,294.378 100.39,279.712 98,264.5C 97.2515,262.668 96.2515,261.001 95,259.5C 88.7912,277.251 79.9579,293.584 68.5,308.5C 64.8333,308.5 61.1667,308.5 57.5,308.5C 82.6879,280.022 94.6879,246.522 93.5,208C 93.1667,203.833 92.8333,199.667 92.5,195.5C 92.011,220.088 88.1777,244.088 81,267.5C 74.1636,282.519 65.3303,296.185 54.5,308.5C 48.1667,308.5 41.8333,308.5 35.5,308.5C 64.4898,280.741 78.1565,246.575 76.5,206C 76.1667,201.833 75.8333,197.667 75.5,193.5C 74.3817,208.871 72.8817,224.204 71,239.5C 65.4435,266.618 52.6101,289.618 32.5,308.5C 24.8333,308.5 17.1667,308.5 9.5,308.5C 35.3087,289.85 51.142,264.85 57,233.5C 59.0523,220.246 59.8857,206.912 59.5,193.5C 58.5,193.5 57.5,193.5 56.5,193.5C 58.4963,220.255 53.6629,245.588 42,269.5C 37.3847,276.45 32.3847,283.116 27,289.5C 19.8954,296.449 12.3954,302.783 4.5,308.5C 2.83333,308.5 1.16667,308.5 -0.5,308.5C -0.5,303.167 -0.5,297.833 -0.5,292.5C 13.9701,282.192 25.4701,269.192 34,253.5C 40.3917,234.033 43.225,214.033 42.5,193.5C 41.5,193.5 40.5,193.5 39.5,193.5C 40.2654,214.048 37.4321,234.048 31,253.5C 23.2121,267.793 12.7121,279.793 -0.5,289.5C -0.5,285.167 -0.5,280.833 -0.5,276.5C 24.4665,254.627 34.4665,226.96 29.5,193.5C 31.0853,192.526 32.0853,191.026 32.5,189C 73.1667,188.333 113.833,188.333 154.5,189C 155.044,189.717 155.711,190.217 156.5,190.5 Z"/></g>
<g><path style="opacity:0.502" fill="#121212" d="M -0.5,292.5 C -0.5,291.5 -0.5,290.5 -0.5,289.5C 12.7121,279.793 23.2121,267.793 31,253.5C 37.4321,234.048 40.2654,214.048 39.5,193.5C 40.5,193.5 41.5,193.5 42.5,193.5C 43.225,214.033 40.3917,234.033 34,253.5C 25.4701,269.192 13.9701,282.192 -0.5,292.5 Z"/></g>
<g><path style="opacity:0.502" fill="#121212" d="M 9.5,308.5 C 7.83333,308.5 6.16667,308.5 4.5,308.5C 12.3954,302.783 19.8954,296.449 27,289.5C 32.3847,283.116 37.3847,276.45 42,269.5C 53.6629,245.588 58.4963,220.255 56.5,193.5C 57.5,193.5 58.5,193.5 59.5,193.5C 59.8857,206.912 59.0523,220.246 57,233.5C 51.142,264.85 35.3087,289.85 9.5,308.5 Z"/></g>
<g><path style="opacity:0.502" fill="#121212" d="M 106.5,308.5 C 105.5,308.5 104.5,308.5 103.5,308.5C 110.795,291.507 112.962,273.84 110,255.5C 106.797,241.95 104.13,228.283 102,214.5C 101.333,207.833 101.333,201.167 102,194.5C 102.414,194.043 102.914,193.709 103.5,193.5C 104.332,201.813 104.832,210.147 105,218.5C 107.789,231.442 110.455,244.442 113,257.5C 115.223,275.12 113.056,292.12 106.5,308.5 Z"/></g>
<g><path style="opacity:0.502" fill="#121212" d="M 124.5,308.5 C 123.5,308.5 122.5,308.5 121.5,308.5C 126.099,294.914 128.765,280.914 129.5,266.5C 128.419,249.775 124.586,233.775 118,218.5C 116.481,210.182 116.314,201.848 117.5,193.5C 118.968,200.075 119.801,206.742 120,213.5C 122.99,223.486 125.99,233.486 129,243.5C 131.812,257.109 132.145,270.776 130,284.5C 128.352,292.581 126.518,300.581 124.5,308.5 Z"/></g>
<g><path style="opacity:0.502" fill="#121212" d="M 141.5,308.5 C 140.833,308.5 140.167,308.5 139.5,308.5C 145.949,283.769 147.116,258.769 143,233.5C 138.861,223.083 135.528,212.417 133,201.5C 132.186,199.098 132.353,196.765 133.5,194.5C 137.046,207.3 140.879,219.967 145,232.5C 150.369,258.181 149.203,283.514 141.5,308.5 Z"/></g>
<g><path style="opacity:0.502" fill="#121212" d="M 157.5,308.5 C 156.5,308.5 155.5,308.5 154.5,308.5C 157.371,299.374 159.538,290.041 161,280.5C 165.594,250.824 160.927,222.824 147,196.5C 146.251,195.365 146.417,194.365 147.5,193.5C 152.288,199.405 155.788,206.072 158,213.5C 166.756,245.212 166.589,276.879 157.5,308.5 Z"/></g>
<g><path style="opacity:0.502" fill="#121212" d="M 57.5,308.5 C 56.5,308.5 55.5,308.5 54.5,308.5C 65.3303,296.185 74.1636,282.519 81,267.5C 88.1777,244.088 92.011,220.088 92.5,195.5C 92.8333,199.667 93.1667,203.833 93.5,208C 94.6879,246.522 82.6879,280.022 57.5,308.5 Z"/></g>
<g><path style="opacity:0.443" fill="#050505" d="M 343.5,205.5 C 343.461,206.583 343.127,207.583 342.5,208.5C 346.8,211.082 346.467,212.416 341.5,212.5C 341.5,213.5 341.5,214.5 341.5,215.5C 347.193,214.616 348.193,215.782 344.5,219C 346.997,221.17 348.83,220.67 350,217.5C 350.49,218.793 350.657,220.127 350.5,221.5C 351.833,221.5 353.167,221.5 354.5,221.5C 353.945,217.416 354.945,216.749 357.5,219.5C 358.086,219.291 358.586,218.957 359,218.5C 359.163,216.613 358.329,215.113 356.5,214C 359.901,214.266 361.567,212.766 361.5,209.5C 362.29,210.609 362.79,211.942 363,213.5C 364.833,211 366.667,208.5 368.5,206C 369.793,205.51 371.127,205.343 372.5,205.5C 372.094,208.589 370.76,211.255 368.5,213.5C 372.916,214.894 374.582,217.894 373.5,222.5C 375.167,222.5 376.833,222.5 378.5,222.5C 378.5,223.5 378.5,224.5 378.5,225.5C 381.167,225.5 383.833,225.5 386.5,225.5C 357.833,226.833 329.167,226.833 300.5,225.5C 306.158,223.592 306.491,221.258 301.5,218.5C 300.086,215.41 301.086,214.243 304.5,215C 305.667,216.167 306.833,217.333 308,218.5C 308.232,217.263 308.732,216.263 309.5,215.5C 310.882,216.801 312.548,217.634 314.5,218C 311.778,221.614 312.611,222.781 317,221.5C 319.428,225.617 321.261,225.283 322.5,220.5C 324.332,222.957 325.999,222.957 327.5,220.5C 327.023,219.522 326.357,218.689 325.5,218C 331.005,215.47 330.671,213.803 324.5,213C 327.233,211.772 327.9,209.939 326.5,207.5C 325.741,205.564 324.741,203.731 323.5,202C 324.333,199.5 325.833,199 328,200.5C 329.92,203.339 331.587,206.339 333,209.5C 333.5,207.667 334.667,206.5 336.5,206C 338.81,205.503 341.143,205.337 343.5,205.5 Z"/></g>
<g><path style="opacity:0.458" fill="#111111" d="M 361.5,209.5 C 361.567,212.766 359.901,214.266 356.5,214C 358.329,215.113 359.163,216.613 359,218.5C 358.586,218.957 358.086,219.291 357.5,219.5C 354.945,216.749 353.945,217.416 354.5,221.5C 353.167,221.5 351.833,221.5 350.5,221.5C 350.657,220.127 350.49,218.793 350,217.5C 348.83,220.67 346.997,221.17 344.5,219C 348.193,215.782 347.193,214.616 341.5,215.5C 341.5,214.5 341.5,213.5 341.5,212.5C 346.467,212.416 346.8,211.082 342.5,208.5C 343.127,207.583 343.461,206.583 343.5,205.5C 344.822,205.33 345.989,205.663 347,206.5C 347.49,205.207 347.657,203.873 347.5,202.5C 349.167,202.5 350.833,202.5 352.5,202.5C 352.351,203.552 352.517,204.552 353,205.5C 354.067,203.717 355.567,203.217 357.5,204C 358,206.521 359.333,208.354 361.5,209.5 Z"/></g>
<g><path style="opacity:0.462" fill="#111111" d="M 326.5,207.5 C 327.9,209.939 327.233,211.772 324.5,213C 330.671,213.803 331.005,215.47 325.5,218C 326.357,218.689 327.023,219.522 327.5,220.5C 325.999,222.957 324.332,222.957 322.5,220.5C 321.261,225.283 319.428,225.617 317,221.5C 312.611,222.781 311.778,221.614 314.5,218C 312.548,217.634 310.882,216.801 309.5,215.5C 309.574,213.589 310.574,212.422 312.5,212C 311.167,210.667 311.167,209.333 312.5,208C 315.666,206.443 319,205.61 322.5,205.5C 322.351,206.552 322.517,207.552 323,208.5C 324.011,207.663 325.178,207.33 326.5,207.5 Z"/></g>
<g><path style="opacity:0.499" fill="#141414" d="M 283.5,225.5 C 289.167,225.5 294.833,225.5 300.5,225.5C 329.167,226.833 357.833,226.833 386.5,225.5C 390.167,225.5 393.833,225.5 397.5,225.5C 399.617,238.291 401.283,251.291 402.5,264.5C 402.197,266.114 401.53,267.448 400.5,268.5C 360.5,268.5 320.5,268.5 280.5,268.5C 279.609,267.739 278.942,266.739 278.5,265.5C 280.175,252.026 281.841,238.692 283.5,225.5 Z"/></g>
<g><path style="opacity:0.502" fill="#121212" d="M 35.5,308.5 C 34.5,308.5 33.5,308.5 32.5,308.5C 52.6101,289.618 65.4435,266.618 71,239.5C 72.8817,224.204 74.3817,208.871 75.5,193.5C 75.8333,197.667 76.1667,201.833 76.5,206C 78.1565,246.575 64.4898,280.741 35.5,308.5 Z"/></g>
<g><path style="opacity:0.493" fill="#131313" d="M 403.5,286.5 C 405.14,293.611 406.14,300.944 406.5,308.5C 362.5,308.5 318.5,308.5 274.5,308.5C 274.94,301.947 275.94,295.613 277.5,289.5C 277.783,290.289 278.283,290.956 279,291.5C 283.283,287.623 287.283,287.956 291,292.5C 293.771,285.787 297.938,284.787 303.5,289.5C 307.318,286.609 310.818,286.943 314,290.5C 317.996,286.212 321.496,286.545 324.5,291.5C 328.044,286.22 331.544,286.22 335,291.5C 338.097,286.682 341.597,286.349 345.5,290.5C 348.323,285.307 351.823,284.64 356,288.5C 359.499,283.277 362.999,283.277 366.5,288.5C 368.001,287.248 369.668,286.248 371.5,285.5C 373.504,287.005 375.337,288.672 377,290.5C 378.775,289.73 380.275,288.563 381.5,287C 384.14,286.161 386.473,286.661 388.5,288.5C 391.438,285.031 395.104,283.864 399.5,285C 400.317,287.372 401.65,287.872 403.5,286.5 Z"/></g>
</svg>
