<svg width="122" height="80" viewBox="0 0 122 80" fill="none" xmlns="http://www.w3.org/2000/svg">
<path d="M76.9042 17.6204L95.237 5.03196" stroke="#FFFEFE" stroke-width="4" stroke-linecap="round"/>
<path d="M95.2364 18.2177L76.9868 4.82522" stroke="#FFFEFE" stroke-width="4" stroke-linecap="round"/>
<path d="M97.1015 11.8732L75.1217 11.1697" stroke="#FFFEFE" stroke-width="4" stroke-linecap="round"/>
<path d="M89.5417 18.1809L82.7537 5.03673" stroke="#FFFEFE" stroke-width="4" stroke-linecap="round"/>
<path d="M82.8568 18.1378L89.1322 4.91111" stroke="#FFFEFE" stroke-width="4" stroke-linecap="round"/>
<ellipse cx="85.8541" cy="11.3999" rx="1.49238" ry="1.61869" transform="rotate(0.369959 85.8541 11.3999)" fill="#FFFEFE"/>
<path d="M76.9042 17.6204L95.237 5.03196" stroke="#FFFEFE" stroke-width="4" stroke-linecap="round"/>
<path d="M95.2364 18.2177L76.9868 4.82522" stroke="#FFFEFE" stroke-width="4" stroke-linecap="round"/>
<path d="M97.1015 11.8732L75.1217 11.1697" stroke="#FFFEFE" stroke-width="4" stroke-linecap="round"/>
<path d="M89.5417 18.1809L82.7537 5.03673" stroke="#FFFEFE" stroke-width="4" stroke-linecap="round"/>
<path d="M82.8568 18.1378L89.1322 4.91111" stroke="#FFFEFE" stroke-width="4" stroke-linecap="round"/>
<ellipse cx="85.8541" cy="11.3999" rx="1.49238" ry="1.61869" transform="rotate(0.369959 85.8541 11.3999)" fill="#FFFEFE"/>
<path d="M76.9042 17.6204L95.237 5.03196" stroke="#FFFEFE" stroke-width="4" stroke-linecap="round"/>
<path d="M95.2364 18.2177L76.9868 4.82522" stroke="#FFFEFE" stroke-width="4" stroke-linecap="round"/>
<path d="M97.1015 11.8732L75.1217 11.1697" stroke="#FFFEFE" stroke-width="4" stroke-linecap="round"/>
<path d="M89.5417 18.1809L82.7537 5.03673" stroke="#FFFEFE" stroke-width="4" stroke-linecap="round"/>
<path d="M82.8568 18.1378L89.1322 4.91111" stroke="#FFFEFE" stroke-width="4" stroke-linecap="round"/>
<ellipse cx="85.8541" cy="11.3999" rx="1.49238" ry="1.61869" transform="rotate(0.369959 85.8541 11.3999)" fill="#FFFEFE"/>
<path d="M96.9552 28.6218C97.172 29.7097 96.4724 30.7609 95.3926 30.9698C94.3128 31.1786 93.2616 30.466 93.0448 29.3782L96.9552 28.6218ZM89.4594 15.4925C92.4633 18.1242 94.3248 21.4198 95.4301 23.9886C95.987 25.283 96.3636 26.4202 96.6026 27.2406C96.7223 27.6515 96.8081 27.9849 96.865 28.2212C96.8935 28.3394 96.9149 28.4335 96.9297 28.5011C96.9371 28.5348 96.9429 28.562 96.9471 28.5822C96.9492 28.5923 96.9509 28.6007 96.9523 28.6073C96.953 28.6106 96.9535 28.6135 96.954 28.6159C96.9543 28.6171 96.9545 28.6182 96.9547 28.6192C96.9548 28.6197 96.9549 28.6204 96.955 28.6206C96.9551 28.6212 96.9552 28.6218 95 29C93.0448 29.3782 93.0449 29.3787 93.045 29.3792C93.045 29.3793 93.0451 29.3798 93.0452 29.3801C93.0453 29.3807 93.0454 29.3811 93.0454 29.3814C93.0456 29.3821 93.0456 29.3823 93.0456 29.3821C93.0455 29.3817 93.045 29.3795 93.0443 29.3757C93.0427 29.3682 93.0396 29.3539 93.0351 29.3332C93.0261 29.2919 93.011 29.2251 92.9893 29.1352C92.9459 28.9552 92.8763 28.6834 92.7758 28.3384C92.5744 27.6471 92.2514 26.6703 91.7717 25.5553C90.8037 23.3055 89.2436 20.601 86.8542 18.5075L89.4594 15.4925Z" fill="#FFFEFE" style="mix-blend-mode:hard-light"/>
<g filter="url(#filter0_d_55_43)">
<path d="M87.5665 16.1095C87.569 15.0049 86.6755 14.1077 85.571 14.1054C84.4664 14.1031 83.569 14.9967 83.5665 16.1012L87.5665 16.1095ZM87.5 46.0041C87.5 46.0014 87.5 45.9986 87.5 45.9957C87.5 45.9929 87.5 45.9899 87.5 45.9869C87.5 45.9839 87.5 45.9809 87.5001 45.9777C87.5001 45.9746 87.5001 45.9714 87.5001 45.9681C87.5001 45.9648 87.5001 45.9615 87.5001 45.9581C87.5001 45.9547 87.5001 45.9512 87.5001 45.9477C87.5001 45.9442 87.5001 45.9405 87.5001 45.9369C87.5002 45.9332 87.5002 45.9295 87.5002 45.9257C87.5002 45.9219 87.5002 45.918 87.5002 45.9141C87.5002 45.9101 87.5002 45.9061 87.5002 45.9021C87.5002 45.898 87.5002 45.8939 87.5003 45.8897C87.5003 45.8855 87.5003 45.8812 87.5003 45.8769C87.5003 45.8726 87.5003 45.8682 87.5003 45.8637C87.5003 45.8593 87.5003 45.8548 87.5003 45.8502C87.5003 45.8456 87.5004 45.8409 87.5004 45.8362C87.5004 45.8315 87.5004 45.8267 87.5004 45.8219C87.5004 45.817 87.5004 45.8121 87.5004 45.8072C87.5004 45.8022 87.5005 45.7972 87.5005 45.7921C87.5005 45.787 87.5005 45.7818 87.5005 45.7766C87.5005 45.7713 87.5005 45.7661 87.5005 45.7607C87.5005 45.7553 87.5006 45.7499 87.5006 45.7444C87.5006 45.739 87.5006 45.7334 87.5006 45.7278C87.5006 45.7222 87.5006 45.7165 87.5006 45.7108C87.5007 45.7051 87.5007 45.6993 87.5007 45.6934C87.5007 45.6876 87.5007 45.6816 87.5007 45.6757C87.5007 45.6697 87.5008 45.6636 87.5008 45.6575C87.5008 45.6514 87.5008 45.6452 87.5008 45.639C87.5008 45.6328 87.5008 45.6265 87.5009 45.6201C87.5009 45.6138 87.5009 45.6073 87.5009 45.6009C87.5009 45.5944 87.5009 45.5878 87.5009 45.5812C87.501 45.5746 87.501 45.568 87.501 45.5612C87.501 45.5545 87.501 45.5477 87.501 45.5409C87.501 45.534 87.5011 45.5271 87.5011 45.5201C87.5011 45.5132 87.5011 45.5061 87.5011 45.4991C87.5011 45.492 87.5012 45.4848 87.5012 45.4776C87.5012 45.4704 87.5012 45.4631 87.5012 45.4558C87.5012 45.4484 87.5012 45.4411 87.5013 45.4336C87.5013 45.4261 87.5013 45.4186 87.5013 45.4111C87.5013 45.4035 87.5013 45.3959 87.5014 45.3882C87.5014 45.3805 87.5014 45.3727 87.5014 45.3649C87.5014 45.3571 87.5015 45.3492 87.5015 45.3413C87.5015 45.3334 87.5015 45.3254 87.5015 45.3173C87.5015 45.3093 87.5016 45.3012 87.5016 45.293C87.5016 45.2848 87.5016 45.2766 87.5016 45.2683C87.5017 45.26 87.5017 45.2517 87.5017 45.2433C87.5017 45.2349 87.5017 45.2264 87.5017 45.2179C87.5018 45.2094 87.5018 45.2008 87.5018 45.1922C87.5018 45.1836 87.5018 45.1749 87.5019 45.1661C87.5019 45.1574 87.5019 45.1486 87.5019 45.1397C87.5019 45.1308 87.502 45.1219 87.502 45.1129C87.502 45.104 87.502 45.0949 87.502 45.0858C87.5021 45.0767 87.5021 45.0676 87.5021 45.0584C87.5021 45.0492 87.5021 45.0399 87.5022 45.0306C87.5022 45.0213 87.5022 45.0119 87.5022 45.0024C87.5022 44.993 87.5023 44.9835 87.5023 44.974C87.5023 44.9644 87.5023 44.9548 87.5024 44.9452C87.5024 44.9355 87.5024 44.9258 87.5024 44.916C87.5024 44.9062 87.5025 44.8964 87.5025 44.8865C87.5025 44.8766 87.5025 44.8667 87.5025 44.8567C87.5026 44.8467 87.5026 44.8367 87.5026 44.8266C87.5026 44.8165 87.5027 44.8063 87.5027 44.7961C87.5027 44.7859 87.5027 44.7756 87.5028 44.7653C87.5028 44.7549 87.5028 44.7446 87.5028 44.7341C87.5028 44.7237 87.5029 44.7132 87.5029 44.7026C87.5029 44.6921 87.5029 44.6815 87.503 44.6708C87.503 44.6602 87.503 44.6495 87.503 44.6387C87.5031 44.628 87.5031 44.6171 87.5031 44.6063C87.5031 44.5954 87.5032 44.5845 87.5032 44.5735C87.5032 44.5625 87.5032 44.5515 87.5033 44.5404C87.5033 44.5293 87.5033 44.5182 87.5033 44.507C87.5034 44.4958 87.5034 44.4846 87.5034 44.4733C87.5034 44.462 87.5035 44.4506 87.5035 44.4392C87.5035 44.4278 87.5035 44.4163 87.5036 44.4048C87.5036 44.3933 87.5036 44.3818 87.5036 44.3702C87.5037 44.3585 87.5037 44.3469 87.5037 44.3352C87.5037 44.3234 87.5038 44.3117 87.5038 44.2998C87.5038 44.288 87.5038 44.2761 87.5039 44.2642C87.5039 44.2523 87.5039 44.2403 87.5039 44.2283C87.504 44.2162 87.504 44.2042 87.504 44.192C87.5041 44.1799 87.5041 44.1677 87.5041 44.1555C87.5041 44.1432 87.5042 44.131 87.5042 44.1186C87.5042 44.1063 87.5042 44.0939 87.5043 44.0814C87.5043 44.069 87.5043 44.0565 87.5044 44.044C87.5044 44.0314 87.5044 44.0188 87.5044 44.0062C87.5045 43.9936 87.5045 43.9809 87.5045 43.9681C87.5046 43.9554 87.5046 43.9426 87.5046 43.9297C87.5046 43.9169 87.5047 43.904 87.5047 43.8911C87.5047 43.8781 87.5048 43.8651 87.5048 43.8521C87.5048 43.839 87.5048 43.8259 87.5049 43.8128C87.5049 43.7997 87.5049 43.7865 87.505 43.7732C87.505 43.76 87.505 43.7467 87.505 43.7334C87.5051 43.72 87.5051 43.7066 87.5051 43.6932C87.5052 43.6798 87.5052 43.6663 87.5052 43.6528C87.5053 43.6392 87.5053 43.6256 87.5053 43.612C87.5053 43.5984 87.5054 43.5847 87.5054 43.571C87.5054 43.5572 87.5055 43.5435 87.5055 43.5296C87.5055 43.5158 87.5056 43.502 87.5056 43.488C87.5056 43.4741 87.5057 43.4601 87.5057 43.4461C87.5057 43.4321 87.5057 43.4181 87.5058 43.404C87.5058 43.3898 87.5058 43.3757 87.5059 43.3615C87.5059 43.3473 87.5059 43.333 87.506 43.3187C87.506 43.3044 87.506 43.2901 87.5061 43.2757C87.5061 43.2613 87.5061 43.2469 87.5062 43.2324C87.5062 43.2179 87.5062 43.2034 87.5063 43.1888C87.5063 43.1742 87.5063 43.1596 87.5064 43.1449C87.5064 43.1303 87.5064 43.1155 87.5065 43.1008C87.5065 43.086 87.5065 43.0712 87.5066 43.0564C87.5066 43.0415 87.5066 43.0266 87.5067 43.0117C87.5067 42.9967 87.5067 42.9817 87.5068 42.9667C87.5068 42.9517 87.5068 42.9366 87.5069 42.9215C87.5069 42.9063 87.5069 42.8912 87.507 42.876C87.507 42.8607 87.507 42.8455 87.5071 42.8302C87.5071 42.8149 87.5071 42.7995 87.5072 42.7841C87.5072 42.7687 87.5072 42.7533 87.5073 42.7378C87.5073 42.7223 87.5073 42.7068 87.5074 42.6912C87.5074 42.6757 87.5074 42.66 87.5075 42.6444C87.5075 42.6287 87.5075 42.613 87.5076 42.5973C87.5076 42.5815 87.5076 42.5657 87.5077 42.5499C87.5077 42.5341 87.5078 42.5182 87.5078 42.5023C87.5078 42.4864 87.5079 42.4704 87.5079 42.4544C87.5079 42.4384 87.508 42.4223 87.508 42.4062C87.508 42.3902 87.5081 42.374 87.5081 42.3578C87.5081 42.3417 87.5082 42.3254 87.5082 42.3092C87.5083 42.2929 87.5083 42.2766 87.5083 42.2603C87.5084 42.2439 87.5084 42.2275 87.5084 42.2111C87.5085 42.1947 87.5085 42.1782 87.5085 42.1617C87.5086 42.1452 87.5086 42.1286 87.5087 42.112C87.5087 42.0954 87.5087 42.0788 87.5088 42.0621C87.5088 42.0454 87.5088 42.0287 87.5089 42.0119C87.5089 41.9951 87.509 41.9783 87.509 41.9615C87.509 41.9447 87.5091 41.9278 87.5091 41.9108C87.5091 41.8939 87.5092 41.8769 87.5092 41.8599C87.5093 41.8429 87.5093 41.8259 87.5093 41.8088C87.5094 41.7917 87.5094 41.7746 87.5094 41.7574C87.5095 41.7402 87.5095 41.723 87.5096 41.7058C87.5096 41.6885 87.5096 41.6712 87.5097 41.6539C87.5097 41.6365 87.5098 41.6192 87.5098 41.6018C87.5098 41.5844 87.5099 41.5669 87.5099 41.5494C87.5099 41.5319 87.51 41.5144 87.51 41.4968C87.5101 41.4793 87.5101 41.4617 87.5101 41.444C87.5102 41.4264 87.5102 41.4087 87.5103 41.391C87.5103 41.3732 87.5103 41.3555 87.5104 41.3377C87.5104 41.3199 87.5105 41.302 87.5105 41.2842C87.5105 41.2663 87.5106 41.2484 87.5106 41.2304C87.5107 41.2124 87.5107 41.1945 87.5107 41.1764C87.5108 41.1584 87.5108 41.1403 87.5109 41.1222C87.5109 41.1041 87.5109 41.086 87.511 41.0678C87.511 41.0496 87.5111 41.0314 87.5111 41.0131C87.5111 40.9949 87.5112 40.9766 87.5112 40.9583C87.5113 40.9399 87.5113 40.9216 87.5113 40.9032C87.5114 40.8847 87.5114 40.8663 87.5115 40.8478C87.5115 40.8294 87.5116 40.8108 87.5116 40.7923C87.5116 40.7737 87.5117 40.7551 87.5117 40.7365C87.5118 40.7179 87.5118 40.6992 87.5118 40.6805C87.5119 40.6618 87.5119 40.6431 87.512 40.6243C87.512 40.6056 87.512 40.5868 87.5121 40.5679C87.5121 40.5491 87.5122 40.5302 87.5122 40.5113C87.5123 40.4924 87.5123 40.4735 87.5123 40.4545C87.5124 40.4355 87.5124 40.4165 87.5125 40.3974C87.5125 40.3784 87.5126 40.3593 87.5126 40.3402C87.5126 40.321 87.5127 40.3019 87.5127 40.2827C87.5128 40.2635 87.5128 40.2443 87.5129 40.225C87.5129 40.2057 87.5129 40.1865 87.513 40.1671C87.513 40.1478 87.5131 40.1284 87.5131 40.109C87.5132 40.0896 87.5132 40.0702 87.5132 40.0507C87.5133 40.0313 87.5133 40.0118 87.5134 39.9922C87.5134 39.9727 87.5135 39.9531 87.5135 39.9335C87.5135 39.9139 87.5136 39.8943 87.5136 39.8746C87.5137 39.855 87.5137 39.8353 87.5138 39.8155C87.5138 39.7958 87.5139 39.776 87.5139 39.7562C87.5139 39.7364 87.514 39.7166 87.514 39.6968C87.5141 39.6769 87.5141 39.657 87.5142 39.6371C87.5142 39.6171 87.5143 39.5972 87.5143 39.5772C87.5143 39.5572 87.5144 39.5372 87.5144 39.5171C87.5145 39.497 87.5145 39.477 87.5146 39.4568C87.5146 39.4367 87.5147 39.4166 87.5147 39.3964C87.5147 39.3762 87.5148 39.356 87.5148 39.3357C87.5149 39.3155 87.5149 39.2952 87.515 39.2749C87.515 39.2546 87.5151 39.2342 87.5151 39.2139C87.5151 39.1935 87.5152 39.1731 87.5152 39.1527C87.5153 39.1322 87.5153 39.1118 87.5154 39.0913C87.5154 39.0708 87.5155 39.0502 87.5155 39.0297C87.5156 39.0091 87.5156 38.9885 87.5157 38.9679C87.5157 38.9473 87.5157 38.9267 87.5158 38.906C87.5158 38.8853 87.5159 38.8646 87.5159 38.8439C87.516 38.8231 87.516 38.8024 87.5161 38.7816C87.5161 38.7608 87.5162 38.7399 87.5162 38.7191C87.5163 38.6982 87.5163 38.6773 87.5163 38.6564C87.5164 38.6355 87.5164 38.6146 87.5165 38.5936C87.5165 38.5726 87.5166 38.5516 87.5166 38.5306C87.5167 38.5096 87.5167 38.4885 87.5168 38.4674C87.5168 38.4463 87.5169 38.4252 87.5169 38.4041C87.517 38.3829 87.517 38.3618 87.517 38.3406C87.5171 38.3194 87.5171 38.2981 87.5172 38.2769C87.5172 38.2556 87.5173 38.2343 87.5173 38.213C87.5174 38.1917 87.5174 38.1704 87.5175 38.149C87.5175 38.1276 87.5176 38.1063 87.5176 38.0848C87.5177 38.0634 87.5177 38.042 87.5178 38.0205C87.5178 37.999 87.5179 37.9775 87.5179 37.956C87.518 37.9344 87.518 37.9129 87.518 37.8913C87.5181 37.8697 87.5181 37.8481 87.5182 37.8265C87.5182 37.8048 87.5183 37.7832 87.5183 37.7615C87.5184 37.7398 87.5184 37.7181 87.5185 37.6963C87.5185 37.6746 87.5186 37.6528 87.5186 37.631C87.5187 37.6092 87.5187 37.5874 87.5188 37.5656C87.5188 37.5437 87.5189 37.5219 87.5189 37.5C87.519 37.4781 87.519 37.4562 87.5191 37.4342C87.5191 37.4123 87.5192 37.3903 87.5192 37.3683C87.5193 37.3463 87.5193 37.3243 87.5194 37.3022C87.5194 37.2802 87.5195 37.2581 87.5195 37.236C87.5196 37.2139 87.5196 37.1918 87.5197 37.1696C87.5197 37.1475 87.5198 37.1253 87.5198 37.1031C87.5198 37.0809 87.5199 37.0587 87.5199 37.0365C87.52 37.0142 87.52 36.992 87.5201 36.9697C87.5201 36.9474 87.5202 36.9251 87.5202 36.9027C87.5203 36.8804 87.5203 36.858 87.5204 36.8357C87.5204 36.8133 87.5205 36.7909 87.5205 36.7684C87.5206 36.746 87.5206 36.7236 87.5207 36.7011C87.5207 36.6786 87.5208 36.6561 87.5208 36.6336C87.5209 36.6111 87.5209 36.5885 87.521 36.5659C87.521 36.5434 87.5211 36.5208 87.5211 36.4982C87.5212 36.4756 87.5212 36.4529 87.5213 36.4303C87.5213 36.4076 87.5214 36.3849 87.5214 36.3622C87.5215 36.3395 87.5215 36.3168 87.5216 36.294C87.5217 36.2713 87.5217 36.2485 87.5218 36.2257C87.5218 36.203 87.5219 36.1801 87.5219 36.1573C87.522 36.1345 87.522 36.1116 87.5221 36.0887C87.5221 36.0659 87.5222 36.043 87.5222 36.0201C87.5223 35.9971 87.5223 35.9742 87.5224 35.9512C87.5224 35.9283 87.5225 35.9053 87.5225 35.8823C87.5226 35.8593 87.5226 35.8363 87.5227 35.8133C87.5227 35.7902 87.5228 35.7671 87.5228 35.7441C87.5229 35.721 87.5229 35.6979 87.523 35.6748C87.523 35.6516 87.5231 35.6285 87.5231 35.6053C87.5232 35.5822 87.5232 35.559 87.5233 35.5358C87.5233 35.5126 87.5234 35.4894 87.5234 35.4661C87.5235 35.4429 87.5235 35.4196 87.5236 35.3964C87.5236 35.3731 87.5237 35.3498 87.5238 35.3265C87.5238 35.3032 87.5239 35.2798 87.5239 35.2565C87.524 35.2331 87.524 35.2097 87.5241 35.1864C87.5241 35.163 87.5242 35.1396 87.5242 35.1161C87.5243 35.0927 87.5243 35.0693 87.5244 35.0458C87.5244 35.0223 87.5245 34.9989 87.5245 34.9754C87.5246 34.9519 87.5246 34.9283 87.5247 34.9048C87.5247 34.8813 87.5248 34.8577 87.5248 34.8341C87.5249 34.8106 87.525 34.787 87.525 34.7634C87.5251 34.7398 87.5251 34.7162 87.5252 34.6925C87.5252 34.6689 87.5253 34.6452 87.5253 34.6215C87.5254 34.5979 87.5254 34.5742 87.5255 34.5505C87.5255 34.5268 87.5256 34.503 87.5256 34.4793C87.5257 34.4556 87.5257 34.4318 87.5258 34.408C87.5258 34.3843 87.5259 34.3605 87.526 34.3367C87.526 34.3129 87.5261 34.289 87.5261 34.2652C87.5262 34.2414 87.5262 34.2175 87.5263 34.1937C87.5263 34.1698 87.5264 34.1459 87.5264 34.122C87.5265 34.0981 87.5265 34.0742 87.5266 34.0503C87.5266 34.0263 87.5267 34.0024 87.5268 33.9784C87.5268 33.9545 87.5269 33.9305 87.5269 33.9065C87.527 33.8825 87.527 33.8585 87.5271 33.8345C87.5271 33.8105 87.5272 33.7864 87.5272 33.7624C87.5273 33.7383 87.5273 33.7143 87.5274 33.6902C87.5274 33.6661 87.5275 33.642 87.5276 33.6179C87.5276 33.5938 87.5277 33.5697 87.5277 33.5456C87.5278 33.5214 87.5278 33.4973 87.5279 33.4731C87.5279 33.449 87.528 33.4248 87.528 33.4006C87.5281 33.3764 87.5281 33.3522 87.5282 33.328C87.5283 33.3038 87.5283 33.2796 87.5284 33.2553C87.5284 33.2311 87.5285 33.2068 87.5285 33.1826C87.5286 33.1583 87.5286 33.134 87.5287 33.1097C87.5287 33.0854 87.5288 33.0611 87.5288 33.0368C87.5289 33.0125 87.529 32.9882 87.529 32.9638C87.5291 32.9395 87.5291 32.9151 87.5292 32.8908C87.5292 32.8664 87.5293 32.842 87.5293 32.8176C87.5294 32.7933 87.5294 32.7689 87.5295 32.7444C87.5296 32.72 87.5296 32.6956 87.5297 32.6712C87.5297 32.6467 87.5298 32.6223 87.5298 32.5978C87.5299 32.5734 87.5299 32.5489 87.53 32.5244C87.53 32.5 87.5301 32.4755 87.5302 32.451C87.5302 32.4265 87.5303 32.402 87.5303 32.3774C87.5304 32.3529 87.5304 32.3284 87.5305 32.3038C87.5305 32.2793 87.5306 32.2547 87.5306 32.2302C87.5307 32.2056 87.5308 32.181 87.5308 32.1565C87.5309 32.1319 87.5309 32.1073 87.531 32.0827C87.531 32.0581 87.5311 32.0335 87.5311 32.0088C87.5312 31.9842 87.5312 31.9596 87.5313 31.9349C87.5314 31.9103 87.5314 31.8857 87.5315 31.861C87.5315 31.8363 87.5316 31.8117 87.5316 31.787C87.5317 31.7623 87.5317 31.7376 87.5318 31.7129C87.5318 31.6882 87.5319 31.6635 87.532 31.6388C87.532 31.6141 87.5321 31.5894 87.5321 31.5647C87.5322 31.5399 87.5322 31.5152 87.5323 31.4905C87.5323 31.4657 87.5324 31.441 87.5325 31.4162C87.5325 31.3914 87.5326 31.3667 87.5326 31.3419C87.5327 31.3171 87.5327 31.2923 87.5328 31.2675C87.5328 31.2427 87.5329 31.2179 87.5329 31.1931C87.533 31.1683 87.5331 31.1435 87.5331 31.1187C87.5332 31.0939 87.5332 31.0691 87.5333 31.0442C87.5333 31.0194 87.5334 30.9945 87.5334 30.9697C87.5335 30.9448 87.5336 30.92 87.5336 30.8951C87.5337 30.8703 87.5337 30.8454 87.5338 30.8205C87.5338 30.7957 87.5339 30.7708 87.5339 30.7459C87.534 30.721 87.5341 30.6961 87.5341 30.6712C87.5342 30.6463 87.5342 30.6214 87.5343 30.5965C87.5343 30.5716 87.5344 30.5467 87.5344 30.5218C87.5345 30.4968 87.5346 30.4719 87.5346 30.447C87.5347 30.422 87.5347 30.3971 87.5348 30.3722C87.5348 30.3472 87.5349 30.3223 87.5349 30.2973C87.535 30.2724 87.5351 30.2474 87.5351 30.2225C87.5352 30.1975 87.5352 30.1725 87.5353 30.1476C87.5353 30.1226 87.5354 30.0976 87.5354 30.0727C87.5355 30.0477 87.5356 30.0227 87.5356 29.9977C87.5357 29.9727 87.5357 29.9477 87.5358 29.9227C87.5358 29.8977 87.5359 29.8727 87.5359 29.8477C87.536 29.8227 87.5361 29.7977 87.5361 29.7727C87.5362 29.7477 87.5362 29.7227 87.5363 29.6977C87.5363 29.6727 87.5364 29.6477 87.5364 29.6226C87.5365 29.5976 87.5366 29.5726 87.5366 29.5476C87.5367 29.5225 87.5367 29.4975 87.5368 29.4725C87.5368 29.4475 87.5369 29.4224 87.5369 29.3974C87.537 29.3723 87.5371 29.3473 87.5371 29.3223C87.5372 29.2972 87.5372 29.2722 87.5373 29.2471C87.5373 29.2221 87.5374 29.197 87.5374 29.172C87.5375 29.1469 87.5376 29.1219 87.5376 29.0968C87.5377 29.0718 87.5377 29.0467 87.5378 29.0217C87.5378 28.9966 87.5379 28.9716 87.5379 28.9465C87.538 28.9215 87.5381 28.8964 87.5381 28.8713C87.5382 28.8463 87.5382 28.8212 87.5383 28.7962C87.5383 28.7711 87.5384 28.746 87.5384 28.721C87.5385 28.6959 87.5386 28.6709 87.5386 28.6458C87.5387 28.6207 87.5387 28.5957 87.5388 28.5706C87.5388 28.5455 87.5389 28.5205 87.539 28.4954C87.539 28.4703 87.5391 28.4453 87.5391 28.4202C87.5392 28.3952 87.5392 28.3701 87.5393 28.345C87.5393 28.32 87.5394 28.2949 87.5395 28.2698C87.5395 28.2448 87.5396 28.2197 87.5396 28.1947C87.5397 28.1696 87.5397 28.1446 87.5398 28.1195C87.5398 28.0944 87.5399 28.0694 87.54 28.0443C87.54 28.0193 87.5401 27.9942 87.5401 27.9692C87.5402 27.9441 87.5402 27.9191 87.5403 27.894C87.5403 27.869 87.5404 27.8439 87.5405 27.8189C87.5405 27.7938 87.5406 27.7688 87.5406 27.7437C87.5407 27.7187 87.5407 27.6937 87.5408 27.6686C87.5408 27.6436 87.5409 27.6186 87.541 27.5935C87.541 27.5685 87.5411 27.5435 87.5411 27.5184C87.5412 27.4934 87.5412 27.4684 87.5413 27.4434C87.5413 27.4184 87.5414 27.3933 87.5415 27.3683C87.5415 27.3433 87.5416 27.3183 87.5416 27.2933C87.5417 27.2683 87.5417 27.2433 87.5418 27.2183C87.5418 27.1933 87.5419 27.1683 87.542 27.1433C87.542 27.1183 87.5421 27.0933 87.5421 27.0683C87.5422 27.0433 87.5422 27.0184 87.5423 26.9934C87.5423 26.9684 87.5424 26.9434 87.5425 26.9185C87.5425 26.8935 87.5426 26.8685 87.5426 26.8436C87.5427 26.8186 87.5427 26.7937 87.5428 26.7687C87.5428 26.7438 87.5429 26.7188 87.543 26.6939C87.543 26.6689 87.5431 26.644 87.5431 26.6191C87.5432 26.5941 87.5432 26.5692 87.5433 26.5443C87.5433 26.5194 87.5434 26.4945 87.5435 26.4695C87.5435 26.4446 87.5436 26.4197 87.5436 26.3948C87.5437 26.3699 87.5437 26.3451 87.5438 26.3202C87.5438 26.2953 87.5439 26.2704 87.544 26.2455C87.544 26.2207 87.5441 26.1958 87.5441 26.1709C87.5442 26.1461 87.5442 26.1212 87.5443 26.0964C87.5443 26.0715 87.5444 26.0467 87.5445 26.0219C87.5445 25.997 87.5446 25.9722 87.5446 25.9474C87.5447 25.9226 87.5447 25.8977 87.5448 25.8729C87.5448 25.8481 87.5449 25.8233 87.545 25.7985C87.545 25.7738 87.5451 25.749 87.5451 25.7242C87.5452 25.6994 87.5452 25.6747 87.5453 25.6499C87.5453 25.6251 87.5454 25.6004 87.5454 25.5756C87.5455 25.5509 87.5456 25.5262 87.5456 25.5014C87.5457 25.4767 87.5457 25.452 87.5458 25.4273C87.5458 25.4026 87.5459 25.3779 87.5459 25.3532C87.546 25.3285 87.5461 25.3038 87.5461 25.2791C87.5462 25.2544 87.5462 25.2298 87.5463 25.2051C87.5463 25.1805 87.5464 25.1558 87.5464 25.1312C87.5465 25.1065 87.5465 25.0819 87.5466 25.0573C87.5467 25.0327 87.5467 25.0081 87.5468 24.9834C87.5468 24.9588 87.5469 24.9343 87.5469 24.9097C87.547 24.8851 87.547 24.8605 87.5471 24.836C87.5471 24.8114 87.5472 24.7868 87.5473 24.7623C87.5473 24.7378 87.5474 24.7132 87.5474 24.6887C87.5475 24.6642 87.5475 24.6397 87.5476 24.6152C87.5476 24.5907 87.5477 24.5662 87.5477 24.5417C87.5478 24.5172 87.5479 24.4928 87.5479 24.4683C87.548 24.4439 87.548 24.4194 87.5481 24.395C87.5481 24.3706 87.5482 24.3461 87.5482 24.3217C87.5483 24.2973 87.5483 24.2729 87.5484 24.2485C87.5485 24.2242 87.5485 24.1998 87.5486 24.1754C87.5486 24.1511 87.5487 24.1267 87.5487 24.1024C87.5488 24.078 87.5488 24.0537 87.5489 24.0294C87.5489 24.0051 87.549 23.9808 87.549 23.9565C87.5491 23.9322 87.5492 23.9079 87.5492 23.8837C87.5493 23.8594 87.5493 23.8351 87.5494 23.8109C87.5494 23.7867 87.5495 23.7624 87.5495 23.7382C87.5496 23.714 87.5496 23.6898 87.5497 23.6656C87.5498 23.6414 87.5498 23.6173 87.5499 23.5931C87.5499 23.569 87.55 23.5448 87.55 23.5207C87.5501 23.4966 87.5501 23.4724 87.5502 23.4483C87.5502 23.4242 87.5503 23.4001 87.5503 23.3761C87.5504 23.352 87.5504 23.3279 87.5505 23.3039C87.5506 23.2798 87.5506 23.2558 87.5507 23.2318C87.5507 23.2078 87.5508 23.1838 87.5508 23.1598C87.5509 23.1358 87.5509 23.1118 87.551 23.0879C87.551 23.0639 87.5511 23.04 87.5511 23.016C87.5512 22.9921 87.5512 22.9682 87.5513 22.9443C87.5514 22.9204 87.5514 22.8965 87.5515 22.8727C87.5515 22.8488 87.5516 22.825 87.5516 22.8011C87.5517 22.7773 87.5517 22.7535 87.5518 22.7297C87.5518 22.7059 87.5519 22.6821 87.5519 22.6583C87.552 22.6345 87.552 22.6108 87.5521 22.587C87.5521 22.5633 87.5522 22.5396 87.5523 22.5159C87.5523 22.4922 87.5524 22.4685 87.5524 22.4448C87.5525 22.4212 87.5525 22.3975 87.5526 22.3739C87.5526 22.3502 87.5527 22.3266 87.5527 22.303C87.5528 22.2794 87.5528 22.2558 87.5529 22.2323C87.5529 22.2087 87.553 22.1851 87.553 22.1616C87.5531 22.1381 87.5531 22.1146 87.5532 22.0911C87.5533 22.0676 87.5533 22.0441 87.5534 22.0206C87.5534 21.9972 87.5535 21.9737 87.5535 21.9503C87.5536 21.9269 87.5536 21.9035 87.5537 21.8801C87.5537 21.8567 87.5538 21.8333 87.5538 21.81C87.5539 21.7866 87.5539 21.7633 87.554 21.74C87.554 21.7167 87.5541 21.6934 87.5541 21.6701C87.5542 21.6468 87.5542 21.6236 87.5543 21.6003C87.5543 21.5771 87.5544 21.5539 87.5544 21.5307C87.5545 21.5075 87.5546 21.4843 87.5546 21.4612C87.5547 21.438 87.5547 21.4149 87.5548 21.3918C87.5548 21.3686 87.5549 21.3455 87.5549 21.3225C87.555 21.2994 87.555 21.2763 87.5551 21.2533C87.5551 21.2303 87.5552 21.2072 87.5552 21.1842C87.5553 21.1612 87.5553 21.1383 87.5554 21.1153C87.5554 21.0924 87.5555 21.0694 87.5555 21.0465C87.5556 21.0236 87.5556 21.0007 87.5557 20.9778C87.5557 20.955 87.5558 20.9321 87.5558 20.9093C87.5559 20.8865 87.5559 20.8636 87.556 20.8409C87.556 20.8181 87.5561 20.7953 87.5561 20.7726C87.5562 20.7498 87.5562 20.7271 87.5563 20.7044C87.5563 20.6817 87.5564 20.659 87.5564 20.6364C87.5565 20.6137 87.5565 20.5911 87.5566 20.5685C87.5566 20.5459 87.5567 20.5233 87.5567 20.5007C87.5568 20.4782 87.5568 20.4556 87.5569 20.4331C87.5569 20.4106 87.557 20.3881 87.557 20.3656C87.5571 20.3431 87.5571 20.3207 87.5572 20.2983C87.5572 20.2758 87.5573 20.2534 87.5573 20.231C87.5574 20.2087 87.5574 20.1863 87.5575 20.164C87.5575 20.1416 87.5576 20.1193 87.5576 20.097C87.5577 20.0748 87.5577 20.0525 87.5578 20.0303C87.5578 20.008 87.5579 19.9858 87.5579 19.9636C87.558 19.9414 87.558 19.9193 87.5581 19.8971C87.5581 19.875 87.5582 19.8529 87.5582 19.8308C87.5583 19.8087 87.5583 19.7866 87.5584 19.7646C87.5584 19.7425 87.5585 19.7205 87.5585 19.6985C87.5586 19.6765 87.5586 19.6546 87.5587 19.6326C87.5587 19.6107 87.5588 19.5888 87.5588 19.5669C87.5589 19.545 87.5589 19.5231 87.559 19.5013C87.559 19.4794 87.5591 19.4576 87.5591 19.4358C87.5592 19.414 87.5592 19.3923 87.5593 19.3705C87.5593 19.3488 87.5593 19.3271 87.5594 19.3054C87.5594 19.2837 87.5595 19.2621 87.5595 19.2404C87.5596 19.2188 87.5596 19.1972 87.5597 19.1756C87.5597 19.154 87.5598 19.1325 87.5598 19.111C87.5599 19.0894 87.5599 19.0679 87.56 19.0465C87.56 19.025 87.5601 19.0035 87.5601 18.9821C87.5602 18.9607 87.5602 18.9393 87.5603 18.918C87.5603 18.8966 87.5604 18.8753 87.5604 18.854C87.5604 18.8327 87.5605 18.8114 87.5605 18.7901C87.5606 18.7689 87.5606 18.7477 87.5607 18.7265C87.5607 18.7053 87.5608 18.6841 87.5608 18.663C87.5609 18.6418 87.5609 18.6207 87.561 18.5996C87.561 18.5785 87.5611 18.5575 87.5611 18.5365C87.5612 18.5154 87.5612 18.4944 87.5612 18.4735C87.5613 18.4525 87.5613 18.4316 87.5614 18.4107C87.5614 18.3898 87.5615 18.3689 87.5615 18.348C87.5616 18.3272 87.5616 18.3064 87.5617 18.2856C87.5617 18.2648 87.5618 18.244 87.5618 18.2233C87.5619 18.2026 87.5619 18.1819 87.5619 18.1612C87.562 18.1405 87.562 18.1199 87.5621 18.0993C87.5621 18.0786 87.5622 18.0581 87.5622 18.0375C87.5623 18.017 87.5623 17.9964 87.5624 17.9759C87.5624 17.9555 87.5624 17.935 87.5625 17.9146C87.5625 17.8941 87.5626 17.8737 87.5626 17.8534C87.5627 17.833 87.5627 17.8127 87.5628 17.7924C87.5628 17.7721 87.5629 17.7518 87.5629 17.7315C87.5629 17.7113 87.563 17.6911 87.563 17.6709C87.5631 17.6507 87.5631 17.6306 87.5632 17.6105C87.5632 17.5903 87.5633 17.5703 87.5633 17.5502C87.5633 17.5302 87.5634 17.5101 87.5634 17.4902C87.5635 17.4702 87.5635 17.4502 87.5636 17.4303C87.5636 17.4104 87.5637 17.3905 87.5637 17.3706C87.5637 17.3508 87.5638 17.3309 87.5638 17.3111C87.5639 17.2913 87.5639 17.2716 87.564 17.2519C87.564 17.2321 87.5641 17.2124 87.5641 17.1928C87.5641 17.1731 87.5642 17.1535 87.5642 17.1339C87.5643 17.1143 87.5643 17.0947 87.5644 17.0752C87.5644 17.0557 87.5644 17.0362 87.5645 17.0167C87.5645 16.9973 87.5646 16.9778 87.5646 16.9585C87.5647 16.9391 87.5647 16.9197 87.5647 16.9004C87.5648 16.8811 87.5648 16.8618 87.5649 16.8425C87.5649 16.8233 87.565 16.804 87.565 16.7849C87.565 16.7657 87.5651 16.7465 87.5651 16.7274C87.5652 16.7083 87.5652 16.6892 87.5653 16.6702C87.5653 16.6511 87.5653 16.6321 87.5654 16.6131C87.5654 16.5942 87.5655 16.5752 87.5655 16.5563C87.5656 16.5374 87.5656 16.5185 87.5656 16.4997C87.5657 16.4809 87.5657 16.4621 87.5658 16.4433C87.5658 16.4245 87.5658 16.4058 87.5659 16.3871C87.5659 16.3684 87.566 16.3498 87.566 16.3312C87.5661 16.3125 87.5661 16.294 87.5661 16.2754C87.5662 16.2569 87.5662 16.2384 87.5663 16.2199C87.5663 16.2014 87.5663 16.183 87.5664 16.1646C87.5664 16.1462 87.5665 16.1278 87.5665 16.1095L83.5665 16.1012C83.5665 16.1196 83.5664 16.1379 83.5664 16.1563C83.5664 16.1747 83.5663 16.1931 83.5663 16.2116C83.5662 16.2301 83.5662 16.2486 83.5661 16.2671C83.5661 16.2857 83.5661 16.3043 83.566 16.3229C83.566 16.3415 83.5659 16.3602 83.5659 16.3789C83.5659 16.3975 83.5658 16.4163 83.5658 16.435C83.5657 16.4538 83.5657 16.4726 83.5656 16.4914C83.5656 16.5103 83.5656 16.5291 83.5655 16.548C83.5655 16.5669 83.5654 16.5859 83.5654 16.6048C83.5654 16.6238 83.5653 16.6428 83.5653 16.6619C83.5652 16.6809 83.5652 16.7 83.5651 16.7191C83.5651 16.7382 83.5651 16.7574 83.565 16.7766C83.565 16.7958 83.5649 16.815 83.5649 16.8342C83.5648 16.8535 83.5648 16.8728 83.5648 16.8921C83.5647 16.9114 83.5647 16.9308 83.5646 16.9502C83.5646 16.9696 83.5645 16.989 83.5645 17.0085C83.5645 17.0279 83.5644 17.0474 83.5644 17.0669C83.5643 17.0865 83.5643 17.106 83.5642 17.1256C83.5642 17.1452 83.5642 17.1648 83.5641 17.1845C83.5641 17.2042 83.564 17.2239 83.564 17.2436C83.5639 17.2633 83.5639 17.2831 83.5638 17.3029C83.5638 17.3227 83.5638 17.3425 83.5637 17.3623C83.5637 17.3822 83.5636 17.4021 83.5636 17.422C83.5635 17.4419 83.5635 17.4619 83.5634 17.4819C83.5634 17.5019 83.5634 17.5219 83.5633 17.5419C83.5633 17.562 83.5632 17.5821 83.5632 17.6022C83.5631 17.6223 83.5631 17.6425 83.563 17.6626C83.563 17.6828 83.563 17.703 83.5629 17.7233C83.5629 17.7435 83.5628 17.7638 83.5628 17.7841C83.5627 17.8044 83.5627 17.8247 83.5626 17.8451C83.5626 17.8655 83.5625 17.8859 83.5625 17.9063C83.5625 17.9267 83.5624 17.9472 83.5624 17.9677C83.5623 17.9882 83.5623 18.0087 83.5622 18.0292C83.5622 18.0498 83.5621 18.0704 83.5621 18.091C83.562 18.1116 83.562 18.1322 83.562 18.1529C83.5619 18.1736 83.5619 18.1943 83.5618 18.215C83.5618 18.2357 83.5617 18.2565 83.5617 18.2773C83.5616 18.2981 83.5616 18.3189 83.5615 18.3398C83.5615 18.3606 83.5614 18.3815 83.5614 18.4024C83.5614 18.4233 83.5613 18.4442 83.5613 18.4652C83.5612 18.4862 83.5612 18.5072 83.5611 18.5282C83.5611 18.5492 83.561 18.5703 83.561 18.5913C83.5609 18.6124 83.5609 18.6335 83.5608 18.6547C83.5608 18.6758 83.5607 18.697 83.5607 18.7182C83.5606 18.7394 83.5606 18.7606 83.5606 18.7818C83.5605 18.8031 83.5605 18.8244 83.5604 18.8457C83.5604 18.867 83.5603 18.8883 83.5603 18.9097C83.5602 18.931 83.5602 18.9524 83.5601 18.9739C83.5601 18.9953 83.56 19.0167 83.56 19.0382C83.5599 19.0597 83.5599 19.0812 83.5598 19.1027C83.5598 19.1242 83.5597 19.1458 83.5597 19.1673C83.5596 19.1889 83.5596 19.2105 83.5596 19.2321C83.5595 19.2538 83.5595 19.2754 83.5594 19.2971C83.5594 19.3188 83.5593 19.3405 83.5593 19.3623C83.5592 19.384 83.5592 19.4058 83.5591 19.4275C83.5591 19.4493 83.559 19.4711 83.559 19.493C83.5589 19.5148 83.5589 19.5367 83.5588 19.5586C83.5588 19.5805 83.5587 19.6024 83.5587 19.6243C83.5586 19.6463 83.5586 19.6682 83.5585 19.6902C83.5585 19.7122 83.5584 19.7343 83.5584 19.7563C83.5583 19.7783 83.5583 19.8004 83.5582 19.8225C83.5582 19.8446 83.5581 19.8667 83.5581 19.8888C83.558 19.911 83.558 19.9332 83.5579 19.9553C83.5579 19.9775 83.5578 19.9997 83.5578 20.022C83.5577 20.0442 83.5577 20.0665 83.5576 20.0888C83.5576 20.1111 83.5575 20.1334 83.5575 20.1557C83.5574 20.178 83.5574 20.2004 83.5573 20.2228C83.5573 20.2452 83.5572 20.2676 83.5572 20.29C83.5571 20.3124 83.5571 20.3349 83.557 20.3573C83.557 20.3798 83.5569 20.4023 83.5569 20.4248C83.5568 20.4473 83.5568 20.4699 83.5567 20.4924C83.5567 20.515 83.5566 20.5376 83.5566 20.5602C83.5565 20.5828 83.5565 20.6054 83.5564 20.6281C83.5564 20.6508 83.5563 20.6734 83.5563 20.6961C83.5562 20.7188 83.5562 20.7416 83.5561 20.7643C83.5561 20.787 83.556 20.8098 83.556 20.8326C83.5559 20.8554 83.5559 20.8782 83.5558 20.901C83.5558 20.9238 83.5557 20.9467 83.5557 20.9696C83.5556 20.9924 83.5556 21.0153 83.5555 21.0382C83.5555 21.0611 83.5554 21.0841 83.5554 21.107C83.5553 21.13 83.5553 21.153 83.5552 21.176C83.5552 21.199 83.5551 21.222 83.5551 21.245C83.555 21.268 83.555 21.2911 83.5549 21.3142C83.5549 21.3373 83.5548 21.3604 83.5548 21.3835C83.5547 21.4066 83.5547 21.4297 83.5546 21.4529C83.5546 21.476 83.5545 21.4992 83.5545 21.5224C83.5544 21.5456 83.5544 21.5688 83.5543 21.5921C83.5542 21.6153 83.5542 21.6386 83.5541 21.6618C83.5541 21.6851 83.554 21.7084 83.554 21.7317C83.5539 21.755 83.5539 21.7784 83.5538 21.8017C83.5538 21.8251 83.5537 21.8484 83.5537 21.8718C83.5536 21.8952 83.5536 21.9186 83.5535 21.942C83.5535 21.9655 83.5534 21.9889 83.5534 22.0124C83.5533 22.0358 83.5533 22.0593 83.5532 22.0828C83.5532 22.1063 83.5531 22.1298 83.5531 22.1533C83.553 22.1769 83.5529 22.2004 83.5529 22.224C83.5528 22.2475 83.5528 22.2711 83.5527 22.2947C83.5527 22.3183 83.5526 22.342 83.5526 22.3656C83.5525 22.3892 83.5525 22.4129 83.5524 22.4365C83.5524 22.4602 83.5523 22.4839 83.5523 22.5076C83.5522 22.5313 83.5522 22.555 83.5521 22.5788C83.5521 22.6025 83.552 22.6263 83.5519 22.65C83.5519 22.6738 83.5518 22.6976 83.5518 22.7214C83.5517 22.7452 83.5517 22.769 83.5516 22.7928C83.5516 22.8167 83.5515 22.8405 83.5515 22.8644C83.5514 22.8883 83.5514 22.9121 83.5513 22.936C83.5513 22.9599 83.5512 22.9838 83.5512 23.0078C83.5511 23.0317 83.551 23.0556 83.551 23.0796C83.5509 23.1036 83.5509 23.1275 83.5508 23.1515C83.5508 23.1755 83.5507 23.1995 83.5507 23.2235C83.5506 23.2475 83.5506 23.2716 83.5505 23.2956C83.5505 23.3197 83.5504 23.3437 83.5503 23.3678C83.5503 23.3919 83.5502 23.416 83.5502 23.4401C83.5501 23.4642 83.5501 23.4883 83.55 23.5124C83.55 23.5365 83.5499 23.5607 83.5499 23.5848C83.5498 23.609 83.5498 23.6332 83.5497 23.6574C83.5497 23.6815 83.5496 23.7057 83.5495 23.7299C83.5495 23.7542 83.5494 23.7784 83.5494 23.8026C83.5493 23.8269 83.5493 23.8511 83.5492 23.8754C83.5492 23.8996 83.5491 23.9239 83.5491 23.9482C83.549 23.9725 83.549 23.9968 83.5489 24.0211C83.5488 24.0454 83.5488 24.0697 83.5487 24.0941C83.5487 24.1184 83.5486 24.1428 83.5486 24.1671C83.5485 24.1915 83.5485 24.2159 83.5484 24.2403C83.5484 24.2646 83.5483 24.289 83.5482 24.3135C83.5482 24.3379 83.5481 24.3623 83.5481 24.3867C83.548 24.4111 83.548 24.4356 83.5479 24.46C83.5479 24.4845 83.5478 24.509 83.5478 24.5334C83.5477 24.5579 83.5476 24.5824 83.5476 24.6069C83.5475 24.6314 83.5475 24.6559 83.5474 24.6804C83.5474 24.705 83.5473 24.7295 83.5473 24.754C83.5472 24.7786 83.5472 24.8031 83.5471 24.8277C83.547 24.8522 83.547 24.8768 83.5469 24.9014C83.5469 24.926 83.5468 24.9506 83.5468 24.9752C83.5467 24.9998 83.5467 25.0244 83.5466 25.049C83.5466 25.0736 83.5465 25.0983 83.5464 25.1229C83.5464 25.1475 83.5463 25.1722 83.5463 25.1968C83.5462 25.2215 83.5462 25.2462 83.5461 25.2708C83.5461 25.2955 83.546 25.3202 83.546 25.3449C83.5459 25.3696 83.5458 25.3943 83.5458 25.419C83.5457 25.4437 83.5457 25.4684 83.5456 25.4932C83.5456 25.5179 83.5455 25.5426 83.5455 25.5674C83.5454 25.5921 83.5453 25.6169 83.5453 25.6416C83.5452 25.6664 83.5452 25.6911 83.5451 25.7159C83.5451 25.7407 83.545 25.7655 83.545 25.7903C83.5449 25.8151 83.5448 25.8399 83.5448 25.8647C83.5447 25.8895 83.5447 25.9143 83.5446 25.9391C83.5446 25.9639 83.5445 25.9887 83.5445 26.0136C83.5444 26.0384 83.5444 26.0633 83.5443 26.0881C83.5442 26.1129 83.5442 26.1378 83.5441 26.1627C83.5441 26.1875 83.544 26.2124 83.544 26.2373C83.5439 26.2621 83.5439 26.287 83.5438 26.3119C83.5437 26.3368 83.5437 26.3617 83.5436 26.3866C83.5436 26.4115 83.5435 26.4364 83.5435 26.4613C83.5434 26.4862 83.5434 26.5111 83.5433 26.536C83.5432 26.5609 83.5432 26.5859 83.5431 26.6108C83.5431 26.6357 83.543 26.6607 83.543 26.6856C83.5429 26.7105 83.5429 26.7355 83.5428 26.7604C83.5427 26.7854 83.5427 26.8103 83.5426 26.8353C83.5426 26.8603 83.5425 26.8852 83.5425 26.9102C83.5424 26.9352 83.5424 26.9601 83.5423 26.9851C83.5422 27.0101 83.5422 27.0351 83.5421 27.06C83.5421 27.085 83.542 27.11 83.542 27.135C83.5419 27.16 83.5419 27.185 83.5418 27.21C83.5417 27.235 83.5417 27.26 83.5416 27.285C83.5416 27.31 83.5415 27.335 83.5415 27.36C83.5414 27.3851 83.5414 27.4101 83.5413 27.4351C83.5412 27.4601 83.5412 27.4851 83.5411 27.5102C83.5411 27.5352 83.541 27.5602 83.541 27.5853C83.5409 27.6103 83.5409 27.6353 83.5408 27.6604C83.5407 27.6854 83.5407 27.7104 83.5406 27.7355C83.5406 27.7605 83.5405 27.7856 83.5405 27.8106C83.5404 27.8356 83.5404 27.8607 83.5403 27.8857C83.5402 27.9108 83.5402 27.9358 83.5401 27.9609C83.5401 27.9859 83.54 28.011 83.54 28.036C83.5399 28.0611 83.5399 28.0862 83.5398 28.1112C83.5397 28.1363 83.5397 28.1613 83.5396 28.1864C83.5396 28.2115 83.5395 28.2365 83.5395 28.2616C83.5394 28.2866 83.5394 28.3117 83.5393 28.3368C83.5392 28.3618 83.5392 28.3869 83.5391 28.4119C83.5391 28.437 83.539 28.4621 83.539 28.4871C83.5389 28.5122 83.5388 28.5373 83.5388 28.5623C83.5387 28.5874 83.5387 28.6124 83.5386 28.6375C83.5386 28.6626 83.5385 28.6876 83.5385 28.7127C83.5384 28.7378 83.5383 28.7628 83.5383 28.7879C83.5382 28.8129 83.5382 28.838 83.5381 28.8631C83.5381 28.8881 83.538 28.9132 83.538 28.9382C83.5379 28.9633 83.5378 28.9884 83.5378 29.0134C83.5377 29.0385 83.5377 29.0635 83.5376 29.0886C83.5376 29.1136 83.5375 29.1387 83.5375 29.1637C83.5374 29.1888 83.5373 29.2138 83.5373 29.2389C83.5372 29.2639 83.5372 29.2889 83.5371 29.314C83.5371 29.339 83.537 29.3641 83.537 29.3891C83.5369 29.4141 83.5368 29.4392 83.5368 29.4642C83.5367 29.4892 83.5367 29.5143 83.5366 29.5393C83.5366 29.5643 83.5365 29.5893 83.5365 29.6144C83.5364 29.6394 83.5363 29.6644 83.5363 29.6894C83.5362 29.7144 83.5362 29.7394 83.5361 29.7645C83.5361 29.7895 83.536 29.8145 83.536 29.8395C83.5359 29.8645 83.5358 29.8895 83.5358 29.9145C83.5357 29.9395 83.5357 29.9644 83.5356 29.9894C83.5356 30.0144 83.5355 30.0394 83.5355 30.0644C83.5354 30.0894 83.5353 30.1143 83.5353 30.1393C83.5352 30.1643 83.5352 30.1892 83.5351 30.2142C83.5351 30.2391 83.535 30.2641 83.535 30.2891C83.5349 30.314 83.5348 30.339 83.5348 30.3639C83.5347 30.3888 83.5347 30.4138 83.5346 30.4387C83.5346 30.4636 83.5345 30.4886 83.5345 30.5135C83.5344 30.5384 83.5343 30.5633 83.5343 30.5882C83.5342 30.6131 83.5342 30.638 83.5341 30.6629C83.5341 30.6878 83.534 30.7127 83.534 30.7376C83.5339 30.7625 83.5338 30.7874 83.5338 30.8122C83.5337 30.8371 83.5337 30.862 83.5336 30.8869C83.5336 30.9117 83.5335 30.9366 83.5335 30.9614C83.5334 30.9863 83.5333 31.0111 83.5333 31.0359C83.5332 31.0608 83.5332 31.0856 83.5331 31.1104C83.5331 31.1352 83.533 31.1601 83.533 31.1849C83.5329 31.2097 83.5328 31.2345 83.5328 31.2593C83.5327 31.2841 83.5327 31.3088 83.5326 31.3336C83.5326 31.3584 83.5325 31.3832 83.5325 31.4079C83.5324 31.4327 83.5324 31.4574 83.5323 31.4822C83.5322 31.5069 83.5322 31.5317 83.5321 31.5564C83.5321 31.5811 83.532 31.6058 83.532 31.6305C83.5319 31.6553 83.5319 31.68 83.5318 31.7047C83.5317 31.7294 83.5317 31.754 83.5316 31.7787C83.5316 31.8034 83.5315 31.8281 83.5315 31.8527C83.5314 31.8774 83.5314 31.902 83.5313 31.9267C83.5313 31.9513 83.5312 31.9759 83.5311 32.0006C83.5311 32.0252 83.531 32.0498 83.531 32.0744C83.5309 32.099 83.5309 32.1236 83.5308 32.1482C83.5308 32.1728 83.5307 32.1973 83.5307 32.2219C83.5306 32.2465 83.5305 32.271 83.5305 32.2956C83.5304 32.3201 83.5304 32.3446 83.5303 32.3692C83.5303 32.3937 83.5302 32.4182 83.5302 32.4427C83.5301 32.4672 83.53 32.4917 83.53 32.5162C83.5299 32.5406 83.5299 32.5651 83.5298 32.5896C83.5298 32.614 83.5297 32.6385 83.5297 32.6629C83.5296 32.6873 83.5296 32.7118 83.5295 32.7362C83.5295 32.7606 83.5294 32.785 83.5293 32.8094C83.5293 32.8338 83.5292 32.8581 83.5292 32.8825C83.5291 32.9069 83.5291 32.9312 83.529 32.9556C83.529 32.9799 83.5289 33.0042 83.5289 33.0285C83.5288 33.0529 83.5287 33.0772 83.5287 33.1015C83.5286 33.1257 83.5286 33.15 83.5285 33.1743C83.5285 33.1986 83.5284 33.2228 83.5284 33.247C83.5283 33.2713 83.5283 33.2955 83.5282 33.3197C83.5282 33.3439 83.5281 33.3681 83.528 33.3923C83.528 33.4165 83.5279 33.4407 83.5279 33.4649C83.5278 33.489 83.5278 33.5132 83.5277 33.5373C83.5277 33.5614 83.5276 33.5855 83.5276 33.6096C83.5275 33.6338 83.5275 33.6578 83.5274 33.6819C83.5273 33.706 83.5273 33.7301 83.5272 33.7541C83.5272 33.7782 83.5271 33.8022 83.5271 33.8262C83.527 33.8502 83.527 33.8742 83.5269 33.8982C83.5269 33.9222 83.5268 33.9462 83.5268 33.9702C83.5267 33.9941 83.5267 34.0181 83.5266 34.042C83.5265 34.0659 83.5265 34.0898 83.5264 34.1137C83.5264 34.1376 83.5263 34.1615 83.5263 34.1854C83.5262 34.2092 83.5262 34.2331 83.5261 34.2569C83.5261 34.2808 83.526 34.3046 83.526 34.3284C83.5259 34.3522 83.5259 34.376 83.5258 34.3998C83.5258 34.4235 83.5257 34.4473 83.5256 34.471C83.5256 34.4948 83.5255 34.5185 83.5255 34.5422C83.5254 34.5659 83.5254 34.5896 83.5253 34.6133C83.5253 34.6369 83.5252 34.6606 83.5252 34.6842C83.5251 34.7079 83.5251 34.7315 83.525 34.7551C83.525 34.7787 83.5249 34.8023 83.5249 34.8259C83.5248 34.8494 83.5248 34.873 83.5247 34.8965C83.5246 34.9201 83.5246 34.9436 83.5245 34.9671C83.5245 34.9906 83.5244 35.0141 83.5244 35.0375C83.5243 35.061 83.5243 35.0844 83.5242 35.1079C83.5242 35.1313 83.5241 35.1547 83.5241 35.1781C83.524 35.2015 83.524 35.2248 83.5239 35.2482C83.5239 35.2715 83.5238 35.2949 83.5238 35.3182C83.5237 35.3415 83.5237 35.3648 83.5236 35.3881C83.5236 35.4114 83.5235 35.4346 83.5235 35.4579C83.5234 35.4811 83.5233 35.5043 83.5233 35.5275C83.5232 35.5507 83.5232 35.5739 83.5231 35.5971C83.5231 35.6202 83.523 35.6434 83.523 35.6665C83.5229 35.6896 83.5229 35.7127 83.5228 35.7358C83.5228 35.7589 83.5227 35.7819 83.5227 35.805C83.5226 35.828 83.5226 35.851 83.5225 35.874C83.5225 35.897 83.5224 35.92 83.5224 35.943C83.5223 35.9659 83.5223 35.9889 83.5222 36.0118C83.5222 36.0347 83.5221 36.0576 83.5221 36.0805C83.522 36.1033 83.522 36.1262 83.5219 36.149C83.5219 36.1719 83.5218 36.1947 83.5218 36.2175C83.5217 36.2403 83.5217 36.263 83.5216 36.2858C83.5216 36.3085 83.5215 36.3312 83.5215 36.3539C83.5214 36.3766 83.5214 36.3993 83.5213 36.422C83.5213 36.4446 83.5212 36.4673 83.5212 36.4899C83.5211 36.5125 83.5211 36.5351 83.521 36.5577C83.521 36.5802 83.5209 36.6028 83.5209 36.6253C83.5208 36.6478 83.5208 36.6703 83.5207 36.6928C83.5207 36.7153 83.5206 36.7377 83.5206 36.7602C83.5205 36.7826 83.5205 36.805 83.5204 36.8274C83.5204 36.8498 83.5203 36.8721 83.5203 36.8945C83.5202 36.9168 83.5202 36.9391 83.5201 36.9614C83.5201 36.9837 83.52 37.006 83.52 37.0282C83.5199 37.0505 83.5199 37.0727 83.5198 37.0949C83.5198 37.1171 83.5197 37.1392 83.5197 37.1614C83.5196 37.1835 83.5196 37.2056 83.5195 37.2277C83.5195 37.2498 83.5194 37.2719 83.5194 37.2939C83.5193 37.316 83.5193 37.338 83.5192 37.36C83.5192 37.382 83.5191 37.404 83.5191 37.4259C83.519 37.4479 83.519 37.4698 83.5189 37.4917C83.5189 37.5136 83.5188 37.5355 83.5188 37.5573C83.5187 37.5792 83.5187 37.601 83.5186 37.6228C83.5186 37.6446 83.5185 37.6663 83.5185 37.6881C83.5184 37.7098 83.5184 37.7315 83.5183 37.7532C83.5183 37.7749 83.5182 37.7966 83.5182 37.8182C83.5182 37.8398 83.5181 37.8614 83.5181 37.883C83.518 37.9046 83.518 37.9262 83.5179 37.9477C83.5179 37.9692 83.5178 37.9907 83.5178 38.0122C83.5177 38.0337 83.5177 38.0551 83.5176 38.0766C83.5176 38.098 83.5175 38.1194 83.5175 38.1407C83.5174 38.1621 83.5174 38.1834 83.5173 38.2048C83.5173 38.2261 83.5172 38.2473 83.5172 38.2686C83.5171 38.2899 83.5171 38.3111 83.5171 38.3323C83.517 38.3535 83.517 38.3747 83.5169 38.3958C83.5169 38.4169 83.5168 38.4381 83.5168 38.4591C83.5167 38.4802 83.5167 38.5013 83.5166 38.5223C83.5166 38.5433 83.5165 38.5643 83.5165 38.5853C83.5164 38.6063 83.5164 38.6272 83.5164 38.6481C83.5163 38.6691 83.5163 38.6899 83.5162 38.7108C83.5162 38.7317 83.5161 38.7525 83.5161 38.7733C83.516 38.7941 83.516 38.8148 83.5159 38.8356C83.5159 38.8563 83.5158 38.877 83.5158 38.8977C83.5158 38.9184 83.5157 38.939 83.5157 38.9596C83.5156 38.9803 83.5156 39.0008 83.5155 39.0214C83.5155 39.042 83.5154 39.0625 83.5154 39.083C83.5153 39.1035 83.5153 39.1239 83.5152 39.1444C83.5152 39.1648 83.5152 39.1852 83.5151 39.2056C83.5151 39.226 83.515 39.2463 83.515 39.2666C83.5149 39.2869 83.5149 39.3072 83.5148 39.3274C83.5148 39.3477 83.5148 39.3679 83.5147 39.3881C83.5147 39.4083 83.5146 39.4284 83.5146 39.4486C83.5145 39.4687 83.5145 39.4888 83.5144 39.5088C83.5144 39.5289 83.5143 39.5489 83.5143 39.5689C83.5143 39.5889 83.5142 39.6089 83.5142 39.6288C83.5141 39.6487 83.5141 39.6686 83.514 39.6885C83.514 39.7083 83.5139 39.7282 83.5139 39.748C83.5139 39.7678 83.5138 39.7875 83.5138 39.8073C83.5137 39.827 83.5137 39.8467 83.5136 39.8664C83.5136 39.886 83.5136 39.9057 83.5135 39.9253C83.5135 39.9449 83.5134 39.9644 83.5134 39.984C83.5133 40.0035 83.5133 40.023 83.5133 40.0425C83.5132 40.0619 83.5132 40.0814 83.5131 40.1008C83.5131 40.1202 83.513 40.1395 83.513 40.1588C83.5129 40.1782 83.5129 40.1975 83.5129 40.2167C83.5128 40.236 83.5128 40.2552 83.5127 40.2744C83.5127 40.2936 83.5126 40.3128 83.5126 40.3319C83.5126 40.351 83.5125 40.3701 83.5125 40.3891C83.5124 40.4082 83.5124 40.4272 83.5124 40.4462C83.5123 40.4652 83.5123 40.4841 83.5122 40.503C83.5122 40.5219 83.5121 40.5408 83.5121 40.5597C83.5121 40.5785 83.512 40.5973 83.512 40.6161C83.5119 40.6348 83.5119 40.6536 83.5118 40.6723C83.5118 40.691 83.5118 40.7096 83.5117 40.7282C83.5117 40.7469 83.5116 40.7655 83.5116 40.784C83.5116 40.8026 83.5115 40.8211 83.5115 40.8396C83.5114 40.858 83.5114 40.8765 83.5114 40.8949C83.5113 40.9133 83.5113 40.9316 83.5112 40.95C83.5112 40.9683 83.5111 40.9866 83.5111 41.0049C83.5111 41.0231 83.511 41.0413 83.511 41.0595C83.5109 41.0777 83.5109 41.0958 83.5109 41.1139C83.5108 41.1321 83.5108 41.1501 83.5107 41.1681C83.5107 41.1862 83.5107 41.2042 83.5106 41.2221C83.5106 41.2401 83.5105 41.258 83.5105 41.2759C83.5105 41.2938 83.5104 41.3116 83.5104 41.3294C83.5103 41.3472 83.5103 41.365 83.5103 41.3827C83.5102 41.4004 83.5102 41.4181 83.5102 41.4357C83.5101 41.4534 83.5101 41.471 83.51 41.4886C83.51 41.5061 83.51 41.5236 83.5099 41.5411C83.5099 41.5586 83.5098 41.5761 83.5098 41.5935C83.5098 41.6109 83.5097 41.6283 83.5097 41.6456C83.5096 41.6629 83.5096 41.6802 83.5096 41.6975C83.5095 41.7147 83.5095 41.7319 83.5095 41.7491C83.5094 41.7663 83.5094 41.7834 83.5093 41.8005C83.5093 41.8176 83.5093 41.8346 83.5092 41.8517C83.5092 41.8687 83.5091 41.8856 83.5091 41.9026C83.5091 41.9195 83.509 41.9364 83.509 41.9532C83.509 41.9701 83.5089 41.9869 83.5089 42.0036C83.5088 42.0204 83.5088 42.0371 83.5088 42.0538C83.5087 42.0705 83.5087 42.0871 83.5087 42.1037C83.5086 42.1203 83.5086 42.1369 83.5086 42.1534C83.5085 42.1699 83.5085 42.1864 83.5084 42.2028C83.5084 42.2192 83.5084 42.2356 83.5083 42.252C83.5083 42.2683 83.5083 42.2846 83.5082 42.3009C83.5082 42.3172 83.5082 42.3334 83.5081 42.3496C83.5081 42.3657 83.508 42.3819 83.508 42.398C83.508 42.4141 83.5079 42.4301 83.5079 42.4461C83.5079 42.4621 83.5078 42.4781 83.5078 42.494C83.5078 42.5099 83.5077 42.5258 83.5077 42.5416C83.5077 42.5575 83.5076 42.5733 83.5076 42.589C83.5075 42.6047 83.5075 42.6205 83.5075 42.6361C83.5074 42.6518 83.5074 42.6674 83.5074 42.683C83.5073 42.6985 83.5073 42.7141 83.5073 42.7295C83.5072 42.745 83.5072 42.7605 83.5072 42.7758C83.5071 42.7912 83.5071 42.8066 83.5071 42.8219C83.507 42.8372 83.507 42.8525 83.507 42.8677C83.5069 42.8829 83.5069 42.8981 83.5069 42.9132C83.5068 42.9283 83.5068 42.9434 83.5068 42.9584C83.5067 42.9735 83.5067 42.9884 83.5067 43.0034C83.5066 43.0183 83.5066 43.0332 83.5066 43.0481C83.5065 43.0629 83.5065 43.0777 83.5065 43.0925C83.5064 43.1073 83.5064 43.122 83.5064 43.1367C83.5063 43.1513 83.5063 43.1659 83.5063 43.1805C83.5062 43.1951 83.5062 43.2096 83.5062 43.2241C83.5061 43.2386 83.5061 43.253 83.5061 43.2674C83.506 43.2818 83.506 43.2962 83.506 43.3105C83.5059 43.3248 83.5059 43.339 83.5059 43.3532C83.5059 43.3674 83.5058 43.3816 83.5058 43.3957C83.5058 43.4098 83.5057 43.4238 83.5057 43.4379C83.5057 43.4519 83.5056 43.4658 83.5056 43.4798C83.5056 43.4937 83.5055 43.5075 83.5055 43.5214C83.5055 43.5352 83.5054 43.549 83.5054 43.5627C83.5054 43.5764 83.5054 43.5901 83.5053 43.6037C83.5053 43.6174 83.5053 43.6309 83.5052 43.6445C83.5052 43.658 83.5052 43.6715 83.5051 43.6849C83.5051 43.6984 83.5051 43.7118 83.5051 43.7251C83.505 43.7384 83.505 43.7517 83.505 43.765C83.5049 43.7782 83.5049 43.7914 83.5049 43.8045C83.5049 43.8177 83.5048 43.8308 83.5048 43.8438C83.5048 43.8568 83.5047 43.8698 83.5047 43.8828C83.5047 43.8957 83.5046 43.9086 83.5046 43.9215C83.5046 43.9343 83.5046 43.9471 83.5045 43.9598C83.5045 43.9726 83.5045 43.9853 83.5044 43.9979C83.5044 44.0106 83.5044 44.0232 83.5044 44.0357C83.5043 44.0482 83.5043 44.0607 83.5043 44.0732C83.5043 44.0856 83.5042 44.098 83.5042 44.1103C83.5042 44.1227 83.5041 44.135 83.5041 44.1472C83.5041 44.1594 83.5041 44.1716 83.504 44.1838C83.504 44.1959 83.504 44.208 83.504 44.22C83.5039 44.232 83.5039 44.244 83.5039 44.2559C83.5038 44.2679 83.5038 44.2797 83.5038 44.2916C83.5038 44.3034 83.5037 44.3152 83.5037 44.3269C83.5037 44.3386 83.5037 44.3503 83.5036 44.3619C83.5036 44.3735 83.5036 44.3851 83.5036 44.3966C83.5035 44.4081 83.5035 44.4195 83.5035 44.4309C83.5035 44.4423 83.5034 44.4537 83.5034 44.465C83.5034 44.4763 83.5034 44.4875 83.5033 44.4987C83.5033 44.5099 83.5033 44.521 83.5033 44.5321C83.5032 44.5432 83.5032 44.5542 83.5032 44.5652C83.5032 44.5762 83.5031 44.5871 83.5031 44.598C83.5031 44.6089 83.5031 44.6197 83.503 44.6304C83.503 44.6412 83.503 44.6519 83.503 44.6626C83.5029 44.6732 83.5029 44.6838 83.5029 44.6944C83.5029 44.7049 83.5029 44.7154 83.5028 44.7258C83.5028 44.7363 83.5028 44.7467 83.5028 44.757C83.5027 44.7673 83.5027 44.7776 83.5027 44.7878C83.5027 44.798 83.5026 44.8082 83.5026 44.8183C83.5026 44.8284 83.5026 44.8384 83.5026 44.8484C83.5025 44.8584 83.5025 44.8684 83.5025 44.8782C83.5025 44.8881 83.5024 44.898 83.5024 44.9077C83.5024 44.9175 83.5024 44.9272 83.5024 44.9369C83.5023 44.9465 83.5023 44.9561 83.5023 44.9657C83.5023 44.9752 83.5023 44.9847 83.5022 44.9942C83.5022 45.0036 83.5022 45.013 83.5022 45.0223C83.5021 45.0316 83.5021 45.0409 83.5021 45.0501C83.5021 45.0593 83.5021 45.0685 83.502 45.0775C83.502 45.0866 83.502 45.0957 83.502 45.1047C83.502 45.1136 83.5019 45.1226 83.5019 45.1314C83.5019 45.1403 83.5019 45.1491 83.5019 45.1578C83.5018 45.1666 83.5018 45.1753 83.5018 45.1839C83.5018 45.1926 83.5018 45.2011 83.5018 45.2096C83.5017 45.2182 83.5017 45.2266 83.5017 45.235C83.5017 45.2434 83.5017 45.2518 83.5016 45.26C83.5016 45.2683 83.5016 45.2766 83.5016 45.2847C83.5016 45.2929 83.5016 45.301 83.5015 45.309C83.5015 45.3171 83.5015 45.3251 83.5015 45.333C83.5015 45.3409 83.5014 45.3488 83.5014 45.3566C83.5014 45.3644 83.5014 45.3722 83.5014 45.3799C83.5014 45.3876 83.5013 45.3952 83.5013 45.4028C83.5013 45.4104 83.5013 45.4179 83.5013 45.4253C83.5013 45.4328 83.5012 45.4402 83.5012 45.4475C83.5012 45.4548 83.5012 45.4621 83.5012 45.4693C83.5012 45.4765 83.5011 45.4837 83.5011 45.4908C83.5011 45.4979 83.5011 45.5049 83.5011 45.5119C83.5011 45.5188 83.5011 45.5258 83.501 45.5326C83.501 45.5394 83.501 45.5462 83.501 45.553C83.501 45.5597 83.501 45.5664 83.5009 45.573C83.5009 45.5796 83.5009 45.5861 83.5009 45.5926C83.5009 45.5991 83.5009 45.6055 83.5009 45.6118C83.5008 45.6182 83.5008 45.6245 83.5008 45.6307C83.5008 45.637 83.5008 45.6431 83.5008 45.6492C83.5008 45.6553 83.5007 45.6614 83.5007 45.6674C83.5007 45.6734 83.5007 45.6793 83.5007 45.6851C83.5007 45.691 83.5007 45.6968 83.5007 45.7025C83.5006 45.7083 83.5006 45.7139 83.5006 45.7195C83.5006 45.7251 83.5006 45.7307 83.5006 45.7362C83.5006 45.7417 83.5006 45.7471 83.5005 45.7524C83.5005 45.7578 83.5005 45.7631 83.5005 45.7683C83.5005 45.7735 83.5005 45.7787 83.5005 45.7838C83.5005 45.7889 83.5005 45.7939 83.5004 45.7989C83.5004 45.8039 83.5004 45.8088 83.5004 45.8136C83.5004 45.8185 83.5004 45.8232 83.5004 45.828C83.5004 45.8327 83.5004 45.8373 83.5003 45.8419C83.5003 45.8465 83.5003 45.851 83.5003 45.8555C83.5003 45.8599 83.5003 45.8643 83.5003 45.8686C83.5003 45.873 83.5003 45.8772 83.5003 45.8814C83.5002 45.8856 83.5002 45.8897 83.5002 45.8938C83.5002 45.8979 83.5002 45.9019 83.5002 45.9058C83.5002 45.9097 83.5002 45.9136 83.5002 45.9174C83.5002 45.9212 83.5002 45.9249 83.5002 45.9286C83.5001 45.9323 83.5001 45.9359 83.5001 45.9394C83.5001 45.9429 83.5001 45.9464 83.5001 45.9498C83.5001 45.9532 83.5001 45.9566 83.5001 45.9598C83.5001 45.9631 83.5001 45.9663 83.5001 45.9694C83.5001 45.9726 83.5 45.9757 83.5 45.9787C83.5 45.9817 83.5 45.9846 83.5 45.9875C83.5 45.9903 83.5 45.9931 83.5 45.9959L87.5 46.0041Z" fill="#FFFEFE" style="mix-blend-mode:hard-light"/>
</g>
<path d="M2.64 57V14.28H8.52L17.76 40.02H17.88V14.28H24V57H18.24L8.88 31.32H8.76V57H2.64ZM29.5402 57V14.28H47.7802V20.04H35.6602V32.58H46.2202V38.34H35.6602V50.88H47.7802V57H29.5402ZM51.7472 57V14.28H60.6872C62.6472 14.28 64.3072 14.58 65.6672 15.18C67.0672 15.78 68.2072 16.58 69.0872 17.58C69.9672 18.58 70.5872 19.74 70.9472 21.06C71.3472 22.34 71.5472 23.68 71.5472 25.08V26.64C71.5472 27.8 71.4472 28.78 71.2472 29.58C71.0872 30.38 70.8272 31.08 70.4672 31.68C69.7872 32.8 68.7472 33.76 67.3472 34.56C68.7872 35.24 69.8472 36.24 70.5272 37.56C71.2072 38.88 71.5472 40.68 71.5472 42.96V45.36C71.5472 49.12 70.6272 52 68.7872 54C66.9872 56 64.0872 57 60.0872 57H51.7472ZM57.8672 37.2V50.88H60.5072C61.7472 50.88 62.7072 50.7 63.3872 50.34C64.1072 49.98 64.6472 49.48 65.0072 48.84C65.3672 48.2 65.5872 47.44 65.6672 46.56C65.7472 45.68 65.7872 44.72 65.7872 43.68C65.7872 42.6 65.7272 41.66 65.6072 40.86C65.4872 40.06 65.2472 39.38 64.8872 38.82C64.4872 38.26 63.9472 37.86 63.2672 37.62C62.5872 37.34 61.6872 37.2 60.5672 37.2H57.8672ZM57.8672 20.04V31.8H60.6272C62.6672 31.8 64.0272 31.3 64.7072 30.3C65.4272 29.26 65.7872 27.76 65.7872 25.8C65.7872 23.88 65.3872 22.44 64.5872 21.48C63.8272 20.52 62.4272 20.04 60.3872 20.04H57.8672ZM111.92 42.06L108.92 26.58H108.8L105.8 42.06H111.92ZM96.7997 57L106.34 14.28H111.44L120.98 57H114.86L113.06 47.82H104.72L102.92 57H96.7997Z" fill="white"/>
<path d="M78 46H93V52C93 54.7614 90.7614 57 88 57H83C80.2386 57 78 54.7614 78 52V46Z" fill="#FFFEFE"/>
<path d="M84.0675 18.3769C84.8205 17.5757 84.7787 16.3068 83.9741 15.543C83.1695 14.7791 81.9067 14.8094 81.1536 15.6107L84.0675 18.3769ZM81.1536 15.6107C79.732 17.1232 78.08 18.5697 76.8591 20.4198C75.5469 22.4084 74.6615 24.8791 74.1593 28.7562L78.117 29.3094C78.5677 25.8297 79.3103 23.9921 80.1919 22.656C81.1649 21.1815 82.2725 20.2868 84.0675 18.3769L81.1536 15.6107Z" fill="#FFFEFE" style="mix-blend-mode:hard-light"/>
<defs>
<filter id="filter0_d_55_43" x="79.5" y="14.1054" width="12.0665" height="39.8988" filterUnits="userSpaceOnUse" color-interpolation-filters="sRGB">
<feFlood flood-opacity="0" result="BackgroundImageFix"/>
<feColorMatrix in="SourceAlpha" type="matrix" values="0 0 0 0 0 0 0 0 0 0 0 0 0 0 0 0 0 0 127 0" result="hardAlpha"/>
<feOffset dy="4"/>
<feGaussianBlur stdDeviation="2"/>
<feComposite in2="hardAlpha" operator="out"/>
<feColorMatrix type="matrix" values="0 0 0 0 0 0 0 0 0 0 0 0 0 0 0 0 0 0 0.25 0"/>
<feBlend mode="normal" in2="BackgroundImageFix" result="effect1_dropShadow_55_43"/>
<feBlend mode="normal" in="SourceGraphic" in2="effect1_dropShadow_55_43" result="shape"/>
</filter>
</defs>
</svg>
