<?xml version="1.0" encoding="UTF-8"?>
<!DOCTYPE svg PUBLIC "-//W3C//DTD SVG 1.1//EN" "http://www.w3.org/Graphics/SVG/1.1/DTD/svg11.dtd">
<svg xmlns="http://www.w3.org/2000/svg" version="1.1" width="385px" height="324px" style="shape-rendering:geometricPrecision; text-rendering:geometricPrecision; image-rendering:optimizeQuality; fill-rule:evenodd; clip-rule:evenodd" xmlns:xlink="http://www.w3.org/1999/xlink">
<g><path style="opacity:0.492" fill="#191717" d="M 65.5,-0.5 C 68.8333,-0.5 72.1667,-0.5 75.5,-0.5C 73.6745,4.48444 71.3411,9.1511 68.5,13.5C 67.3124,8.83468 66.3124,4.16802 65.5,-0.5 Z"/></g>
<g><path style="opacity:0.372" fill="#030303" d="M 102.5,-0.5 C 105.833,-0.5 109.167,-0.5 112.5,-0.5C 108.436,2.05385 104.769,5.22052 101.5,9C 101.833,9.33333 102.167,9.66667 102.5,10C 100.223,14.1447 100.389,18.3114 103,22.5C 105.041,23.4231 107.208,23.7564 109.5,23.5C 109.675,25.6208 109.341,27.6208 108.5,29.5C 107.167,29.8333 107.167,30.1667 108.5,30.5C 109.369,32.717 109.702,35.0504 109.5,37.5C 108.5,36.8333 107.5,36.1667 106.5,35.5C 106.167,35.5 105.833,35.5 105.5,35.5C 103.521,32.8544 101.188,30.5211 98.5,28.5C 83.674,30.1738 68.674,32.3405 53.5,35C 46.1332,36.2577 39.1332,38.5911 32.5,42C 31.3128,43.0195 30.3128,44.1861 29.5,45.5C 35.845,47.2609 42.5116,49.0942 49.5,51C 52.6612,52.4131 55.6612,54.0797 58.5,56C 61.3112,59.2935 60.9779,62.2935 57.5,65C 43.8716,67.0091 32.8716,62.6757 24.5,52C 4.52969,51.5196 2.19636,57.8529 17.5,71C 37.1821,85.2885 58.8488,95.4551 82.5,101.5C 86.9404,100.021 91.2737,98.3548 95.5,96.5C 95.7564,98.7925 95.4231,100.959 94.5,103C 96.1233,105.08 97.6233,107.246 99,109.5C 106.608,97.4005 114.775,85.7338 123.5,74.5C 124.833,73.8333 125.833,72.8333 126.5,71.5C 134.501,66.0225 139.168,68.0225 140.5,77.5C 140.5,79.1667 140.5,80.8333 140.5,82.5C 139.5,82.5 138.5,82.5 137.5,82.5C 137.784,80.5853 137.451,78.9187 136.5,77.5C 136.767,75.0289 135.767,73.3622 133.5,72.5C 130.895,73.7695 128.562,75.4361 126.5,77.5C 116.932,88.9609 108.598,101.294 101.5,114.5C 97.4095,121.68 93.5761,129.014 90,136.5C 89.2506,137.635 89.4173,138.635 90.5,139.5C 99.0866,137.362 107.42,134.029 115.5,129.5C 116.529,131.517 117.529,133.517 118.5,135.5C 113.31,136.619 108.477,138.619 104,141.5C 103.667,141.167 103.333,140.833 103,140.5C 97.4273,142.808 91.7606,144.808 86,146.5C 80.512,158.274 76.012,170.44 72.5,183C 75.5258,182.436 78.5258,181.436 81.5,180C 92.735,178.247 96.235,182.747 92,193.5C 88.5638,198.936 83.8971,202.936 78,205.5C 72.0215,205.194 68.0215,202.194 66,196.5C 55.1134,206.445 48.28,218.611 45.5,233C 45.6696,238.667 48.6696,241.5 54.5,241.5C 62.2488,240.084 69.5821,237.584 76.5,234C 102.411,217.589 123.411,196.422 139.5,170.5C 134.908,161.855 132.908,152.855 133.5,143.5C 133.206,127.479 135.373,111.813 140,96.5C 141.549,92.1296 144.049,88.4629 147.5,85.5C 154.64,83.2365 159.64,85.5698 162.5,92.5C 162.134,93.6946 161.301,94.3613 160,94.5C 158.074,92.8686 156.24,91.0353 154.5,89C 152.833,88.3333 151.167,88.3333 149.5,89C 142.699,98.6804 139.199,109.514 139,121.5C 137.94,132.017 138.44,142.35 140.5,152.5C 140.185,156.774 141.018,161.108 143,165.5C 145.099,162.3 146.933,158.967 148.5,155.5C 150.717,154.631 153.05,154.298 155.5,154.5C 152.528,159.816 149.528,165.15 146.5,170.5C 149.335,172.963 152.335,173.13 155.5,171C 160.273,165.62 163.607,159.454 165.5,152.5C 167.614,154.019 169.28,156.019 170.5,158.5C 167.47,162.863 164.637,167.53 162,172.5C 156.494,177.799 150.327,178.799 143.5,175.5C 127.328,200.172 106.995,220.672 82.5,237C 72.3334,243.29 61.3334,246.29 49.5,246C 42.8118,244.305 39.4785,239.972 39.5,233C 42.936,215.392 51.6026,200.892 65.5,189.5C 69.2014,175.241 73.368,161.241 78,147.5C 70.3333,148.833 62.6667,150.167 55,151.5C 47.2501,151.154 39.4168,151.154 31.5,151.5C 8.02582,146.296 6.35915,137.129 26.5,124C 41.1388,116.622 56.1388,110.122 71.5,104.5C 52.2475,98.0398 34.2475,89.2064 17.5,78C 9.47678,72.9858 4.14344,65.9858 1.5,57C 1.89963,53.5326 3.5663,50.866 6.5,49C 11.6377,47.0842 16.971,46.0842 22.5,46C 25.2981,39.8719 29.9647,35.8719 36.5,34C 56.1247,28.4105 76.1247,24.9105 96.5,23.5C 93.8231,14.2066 95.8231,6.20664 102.5,-0.5 Z M 32.5,53.5 C 39.7429,52.8908 46.7429,54.8908 53.5,59.5C 49.8125,60.6195 46.1458,60.4529 42.5,59C 38.9789,57.4082 35.6456,55.5749 32.5,53.5 Z M 81.5,106.5 C 86.8212,107.83 92.1545,109.164 97.5,110.5C 92.0392,120.588 86.7059,130.754 81.5,141C 61.8766,145.891 41.8766,146.558 21.5,143C 20.4495,141.615 19.1161,140.615 17.5,140C 20.3372,134.409 24.6706,130.409 30.5,128C 47.6115,120.082 64.6115,112.916 81.5,106.5 Z M 101.5,114.5 C 105.586,118.209 110.253,120.876 115.5,122.5C 115.5,124.833 115.5,127.167 115.5,129.5C 107.42,134.029 99.0866,137.362 90.5,139.5C 89.4173,138.635 89.2506,137.635 90,136.5C 93.5761,129.014 97.4095,121.68 101.5,114.5 Z M 118.5,135.5 C 121.839,139.592 126.006,142.592 131,144.5C 131.671,143.748 132.504,143.414 133.5,143.5C 132.908,152.855 134.908,161.855 139.5,170.5C 123.411,196.422 102.411,217.589 76.5,234C 69.5821,237.584 62.2488,240.084 54.5,241.5C 48.6696,241.5 45.6696,238.667 45.5,233C 48.28,218.611 55.1134,206.445 66,196.5C 68.0215,202.194 72.0215,205.194 78,205.5C 83.8971,202.936 88.5638,198.936 92,193.5C 96.235,182.747 92.735,178.247 81.5,180C 78.5258,181.436 75.5258,182.436 72.5,183C 76.012,170.44 80.512,158.274 86,146.5C 91.7606,144.808 97.4273,142.808 103,140.5C 103.333,140.833 103.667,141.167 104,141.5C 108.477,138.619 113.31,136.619 118.5,135.5 Z M 140.5,152.5 C 143.053,153.805 145.72,154.805 148.5,155.5C 146.933,158.967 145.099,162.3 143,165.5C 141.018,161.108 140.185,156.774 140.5,152.5 Z M 165.5,152.5 C 163.607,159.454 160.273,165.62 155.5,171C 152.335,173.13 149.335,172.963 146.5,170.5C 149.528,165.15 152.528,159.816 155.5,154.5C 156.117,154.611 156.617,154.944 157,155.5C 159.69,154.071 162.523,153.071 165.5,152.5 Z M 83.5,184.5 C 85.1992,184.34 86.8659,184.506 88.5,185C 87.9572,193.544 83.2905,198.21 74.5,199C 72.4564,196.869 71.623,194.369 72,191.5C 75.5136,188.5 79.3469,186.167 83.5,184.5 Z"/></g>
<g><path style="opacity:0.502" fill="#333130" d="M 137.5,-0.5 C 175.833,-0.5 214.167,-0.5 252.5,-0.5C 249.233,1.81111 245.9,4.14444 242.5,6.5C 245.131,10.7675 247.464,15.1008 249.5,19.5C 249.196,20.1499 248.863,20.8165 248.5,21.5C 249.707,25.7438 250.374,30.0771 250.5,34.5C 250.5,35.1667 250.5,35.8333 250.5,36.5C 249.038,42.0663 247.872,47.7329 247,53.5C 244.54,54.9578 242.373,56.7911 240.5,59C 239.668,59.6877 239.002,59.521 238.5,58.5C 237.138,54.9444 235.138,51.7777 232.5,49C 229.173,48.0299 227.007,49.1966 226,52.5C 224.679,59.8766 226.179,66.5433 230.5,72.5C 229.408,74.6013 228.408,76.7679 227.5,79C 222.075,78.8219 217.075,80.1553 212.5,83C 207.325,87.0094 202.658,91.5094 198.5,96.5C 190.979,92.0018 183.979,92.6685 177.5,98.5C 173.773,93.4746 168.773,91.4746 162.5,92.5C 159.64,85.5698 154.64,83.2365 147.5,85.5C 145.891,84.2291 144.058,83.2291 142,82.5C 141.802,80.6183 141.302,78.9516 140.5,77.5C 139.168,68.0225 134.501,66.0225 126.5,71.5C 124.952,71.1788 124.285,70.1788 124.5,68.5C 123.325,68.719 122.325,68.3857 121.5,67.5C 120.752,65.6675 119.752,64.0009 118.5,62.5C 116.167,63.5 115.5,62.8333 116.5,60.5C 116.192,59.6919 115.692,59.0253 115,58.5C 114.788,53.1901 113.955,48.0234 112.5,43C 113.297,39.2546 113.797,35.4213 114,31.5C 115.016,30.3659 115.683,30.6992 116,32.5C 116.5,32 117,31.5 117.5,31C 116.782,28.5393 116.115,26.0393 115.5,23.5C 116.631,22.3961 117.465,22.7295 118,24.5C 119.461,19.5809 121.461,14.9142 124,10.5C 124.667,9.16667 125.333,9.16667 126,10.5C 129.755,6.57417 133.589,2.9075 137.5,-0.5 Z"/></g>
<g><path style="opacity:0.414" fill="#2a2c2a" d="M 282.5,5.5 C 282.553,10.0071 281.22,14.0071 278.5,17.5C 275.681,19.0971 272.681,19.5971 269.5,19C 273.336,13.9974 277.67,9.49743 282.5,5.5 Z"/></g>
<g><path style="opacity:0.49" fill="#282626" d="M 116.5,-0.5 C 123.5,-0.5 130.5,-0.5 137.5,-0.5C 133.589,2.9075 129.755,6.57417 126,10.5C 125.333,9.16667 124.667,9.16667 124,10.5C 121.461,14.9142 119.461,19.5809 118,24.5C 117.465,22.7295 116.631,22.3961 115.5,23.5C 116.115,26.0393 116.782,28.5393 117.5,31C 117,31.5 116.5,32 116,32.5C 115.683,30.6992 115.016,30.3659 114,31.5C 113.797,35.4213 113.297,39.2546 112.5,43C 113.955,48.0234 114.788,53.1901 115,58.5C 115.692,59.0253 116.192,59.6919 116.5,60.5C 115.5,62.8333 116.167,63.5 118.5,62.5C 119.752,64.0009 120.752,65.6675 121.5,67.5C 122.325,68.3857 123.325,68.719 124.5,68.5C 124.285,70.1788 124.952,71.1788 126.5,71.5C 125.833,72.8333 124.833,73.8333 123.5,74.5C 120.909,70.7016 117.243,68.7016 112.5,68.5C 111.72,58.1438 110.72,47.8105 109.5,37.5C 109.702,35.0504 109.369,32.717 108.5,30.5C 108.5,30.1667 108.5,29.8333 108.5,29.5C 109.341,27.6208 109.675,25.6208 109.5,23.5C 110.831,15.6714 114.164,8.83807 119.5,3C 118.29,1.9609 117.29,0.794229 116.5,-0.5 Z"/></g>
<g><path style="opacity:0.492" fill="#202121" d="M 348.5,11.5 C 352.068,11.7593 353.401,13.7593 352.5,17.5C 356.805,17.8424 358.305,20.1757 357,24.5C 356.005,25.0659 355.172,25.7326 354.5,26.5C 349.065,30.7664 344.065,35.5997 339.5,41C 338.552,41.4828 337.552,41.6495 336.5,41.5C 336.123,45.2118 334.456,48.2118 331.5,50.5C 328.607,48.2515 326.94,45.2515 326.5,41.5C 327.79,40.9423 328.623,39.9423 329,38.5C 330.297,39.7836 331.464,39.6169 332.5,38C 330.47,36.1038 328.803,33.9371 327.5,31.5C 328.167,31.1667 328.833,30.8333 329.5,30.5C 332.58,31.4773 335.58,32.3107 338.5,33C 338.957,32.586 339.291,32.086 339.5,31.5C 337.5,30.5 335.5,29.5 333.5,28.5C 336.631,25.2916 340.297,21.9583 344.5,18.5C 344.291,17.914 343.957,17.414 343.5,17C 345.373,15.2962 347.04,13.4628 348.5,11.5 Z"/></g>
<g><path style="opacity:0.471" fill="#171717" d="M 348.5,11.5 C 347.04,13.4628 345.373,15.2962 343.5,17C 343.957,17.414 344.291,17.914 344.5,18.5C 340.297,21.9583 336.631,25.2916 333.5,28.5C 335.5,29.5 337.5,30.5 339.5,31.5C 339.291,32.086 338.957,32.586 338.5,33C 335.58,32.3107 332.58,31.4773 329.5,30.5C 328.833,30.8333 328.167,31.1667 327.5,31.5C 328.803,33.9371 330.47,36.1038 332.5,38C 331.464,39.6169 330.297,39.7836 329,38.5C 328.623,39.9423 327.79,40.9423 326.5,41.5C 324.912,36.9904 322.745,32.657 320,28.5C 316.712,28.6584 313.212,28.6584 309.5,28.5C 308.5,27.5 307.5,26.5 306.5,25.5C 307.905,17.3812 312.572,12.0478 320.5,9.5C 321.086,9.70931 321.586,10.0426 322,10.5C 322.968,15.3598 322.468,20.0265 320.5,24.5C 321,24.8333 321.5,25.1667 322,25.5C 326.799,22.0465 331.632,18.5465 336.5,15C 339.901,13.3094 343.401,11.8094 347,10.5C 347.383,11.056 347.883,11.3893 348.5,11.5 Z"/></g>
<g><path style="opacity:0.492" fill="#151615" d="M 282.5,5.5 C 277.67,9.49743 273.336,13.9974 269.5,19C 272.681,19.5971 275.681,19.0971 278.5,17.5C 278.5,18.1667 278.833,18.5 279.5,18.5C 278.694,19.7281 277.694,20.7281 276.5,21.5C 270.177,20.1846 264.177,20.3513 258.5,22C 259.942,22.3768 260.942,23.2101 261.5,24.5C 258.749,26.7453 256.083,29.2453 253.5,32C 254.365,33.3588 255.365,34.5255 256.5,35.5C 255.167,35.8333 255.167,36.1667 256.5,36.5C 256.833,36.5 257.167,36.5 257.5,36.5C 257.5,36.8333 257.5,37.1667 257.5,37.5C 256.041,37.5674 254.708,37.2341 253.5,36.5C 253.027,35.0937 252.027,34.427 250.5,34.5C 250.374,30.0771 249.707,25.7438 248.5,21.5C 248.863,20.8165 249.196,20.1499 249.5,19.5C 254.148,18.5792 258.481,17.5792 262.5,16.5C 264.375,5.78909 270.708,0.955759 281.5,2C 282.337,3.01127 282.67,4.17793 282.5,5.5 Z"/></g>
<g><path style="opacity:0.502" fill="#1d1b1a" d="M 138.5,24.5 C 146.99,22.8338 150.823,26.1671 150,34.5C 145.304,40.7672 140.304,41.1005 135,35.5C 133.663,30.9159 134.829,27.2493 138.5,24.5 Z"/></g>
<g><path style="opacity:0.502" fill="#1e1b1b" d="M 212.5,25.5 C 220.987,24.4964 224.487,28.1631 223,36.5C 218.333,41.8333 213.667,41.8333 209,36.5C 207.663,31.9159 208.829,28.2493 212.5,25.5 Z"/></g>
<g><path style="opacity:0.44" fill="#242524" d="M 279.5,18.5 C 287.03,19.7982 294.03,22.4649 300.5,26.5C 302.409,25.6518 304.409,25.3184 306.5,25.5C 307.5,26.5 308.5,27.5 309.5,28.5C 307.064,28.7489 305.064,29.7489 303.5,31.5C 305.27,34.1934 305.937,37.1934 305.5,40.5C 304.167,40.5 302.833,40.5 301.5,40.5C 301.264,38.9509 301.264,37.4509 301.5,36C 300.325,32.3094 298.492,31.8094 296,34.5C 293.915,37.4554 294.082,40.1221 296.5,42.5C 296.068,43.7095 295.401,44.7095 294.5,45.5C 288.992,39.8194 289.326,34.3194 295.5,29C 289.595,25.3796 283.262,22.8796 276.5,21.5C 277.694,20.7281 278.694,19.7281 279.5,18.5 Z"/></g>
<g><path style="opacity:0.502" fill="#2a2c2a" d="M 261.5,24.5 C 269.128,31.3066 267.795,35.3066 257.5,36.5C 257.167,36.5 256.833,36.5 256.5,36.5C 256.5,36.1667 256.5,35.8333 256.5,35.5C 255.365,34.5255 254.365,33.3588 253.5,32C 256.083,29.2453 258.749,26.7453 261.5,24.5 Z"/></g>
<g><path style="opacity:0.502" fill="#161514" d="M 170.5,27.5 C 172.017,27.5106 173.184,28.1772 174,29.5C 176.621,28.0085 179.455,27.3418 182.5,27.5C 182.5,28.5 182.5,29.5 182.5,30.5C 180.436,30.687 178.436,31.187 176.5,32C 175.663,33.0113 175.33,34.1779 175.5,35.5C 174.167,35.5 172.833,35.5 171.5,35.5C 171.753,33.1727 171.086,31.1727 169.5,29.5C 169.863,28.8165 170.196,28.1499 170.5,27.5 Z"/></g>
<g><path style="opacity:0.479" fill="#2c2928" d="M 105.5,35.5 C 105.833,35.5 106.167,35.5 106.5,35.5C 106.855,40.8489 107.022,46.1822 107,51.5C 106.333,52.1667 105.667,52.8333 105,53.5C 103.5,51.6667 102,49.8333 100.5,48C 99.0563,47.2195 97.723,47.3861 96.5,48.5C 99.2003,50.2344 101.2,52.5677 102.5,55.5C 100.312,58.5218 97.6452,61.0218 94.5,63C 95.2752,64.2295 96.2752,64.5628 97.5,64C 100.98,61.3542 104.314,58.5209 107.5,55.5C 109.351,60.6963 109.851,66.0296 109,71.5C 108.292,72.3805 107.458,73.0472 106.5,73.5C 94.3867,72.553 87.72,66.053 86.5,54C 88.0289,42.9717 94.3623,36.8051 105.5,35.5 Z"/></g>
<g><path style="opacity:0.453" fill="#313231" d="M 354.5,26.5 C 355.6,27.5585 356.934,28.3918 358.5,29C 359.059,29.7247 359.392,30.5581 359.5,31.5C 358.559,34.1076 356.892,36.1076 354.5,37.5C 357.893,42.3749 356.56,45.2082 350.5,46C 351.765,47.3374 352.265,48.8374 352,50.5C 349.834,52.1213 347.334,52.9546 344.5,53C 345.28,54.073 345.113,55.2396 344,56.5C 338.349,57.927 334.182,55.927 331.5,50.5C 334.456,48.2118 336.123,45.2118 336.5,41.5C 337.552,41.6495 338.552,41.4828 339.5,41C 344.065,35.5997 349.065,30.7664 354.5,26.5 Z"/></g>
<g><path style="opacity:0.476" fill="#2f2d2c" d="M 252.5,36.5 C 252.833,36.5 253.167,36.5 253.5,36.5C 254.708,37.2341 256.041,37.5674 257.5,37.5C 266.56,39.23 271.894,44.73 273.5,54C 272.87,57.9611 271.87,61.7944 270.5,65.5C 267.337,67.8112 264.003,69.9778 260.5,72C 257.937,73.0793 255.271,73.5793 252.5,73.5C 252.31,67.985 249.976,63.6517 245.5,60.5C 247.192,58.6414 248.692,56.6414 250,54.5C 253.595,59.2223 258.095,62.889 263.5,65.5C 263.833,65 264.167,64.5 264.5,64C 261.634,61.73 258.968,59.23 256.5,56.5C 258.69,54.476 261.023,52.6427 263.5,51C 262.953,50.0754 262.287,49.2421 261.5,48.5C 259.116,50.8847 256.45,52.8847 253.5,54.5C 252.522,54.0233 251.689,53.3567 251,52.5C 251.381,47.1972 251.881,41.8639 252.5,36.5 Z"/></g>
<g><path style="opacity:0.445" fill="#0f100f" d="M 301.5,40.5 C 302.833,40.5 304.167,40.5 305.5,40.5C 305.733,42.0618 306.4,43.3951 307.5,44.5C 305.592,47.2799 303.425,49.9466 301,52.5C 300.517,53.448 300.351,54.448 300.5,55.5C 299.542,55.0472 298.708,54.3805 298,53.5C 297.262,50.5534 296.096,47.8867 294.5,45.5C 295.401,44.7095 296.068,43.7095 296.5,42.5C 297.117,42.6107 297.617,42.944 298,43.5C 299.039,42.2899 300.206,41.2899 301.5,40.5 Z"/></g>
<g><path style="opacity:0.465" fill="#222422" d="M 307.5,44.5 C 309.606,46.2716 311.273,48.4383 312.5,51C 313.64,53.7608 313.64,56.5941 312.5,59.5C 307.631,60.766 303.631,59.4326 300.5,55.5C 300.351,54.448 300.517,53.448 301,52.5C 303.425,49.9466 305.592,47.2799 307.5,44.5 Z"/></g>
<g><path style="opacity:0.501" fill="#161414" d="M 250.5,36.5 C 251.167,36.5 251.833,36.5 252.5,36.5C 251.881,41.8639 251.381,47.1972 251,52.5C 251.689,53.3567 252.522,54.0233 253.5,54.5C 256.45,52.8847 259.116,50.8847 261.5,48.5C 262.287,49.2421 262.953,50.0754 263.5,51C 261.023,52.6427 258.69,54.476 256.5,56.5C 258.968,59.23 261.634,61.73 264.5,64C 264.167,64.5 263.833,65 263.5,65.5C 258.095,62.889 253.595,59.2223 250,54.5C 248.692,56.6414 247.192,58.6414 245.5,60.5C 249.976,63.6517 252.31,67.985 252.5,73.5C 255.271,73.5793 257.937,73.0793 260.5,72C 264.003,69.9778 267.337,67.8112 270.5,65.5C 275.529,65.8381 278.863,68.3381 280.5,73C 282.81,73.4966 285.143,73.6633 287.5,73.5C 288.843,66.9986 292.843,64.1652 299.5,65C 301.116,65.6152 302.449,66.6152 303.5,68C 303.454,70.1022 302.454,72.1022 300.5,74C 308.447,75.9022 316.114,78.5689 323.5,82C 324.381,82.7083 325.047,83.5416 325.5,84.5C 325.833,85.8333 326.167,87.1667 326.5,88.5C 325.833,88.5 325.167,88.5 324.5,88.5C 323.836,86.513 322.669,84.8463 321,83.5C 318.83,85.8231 316.33,87.4897 313.5,88.5C 312.722,86.3362 312.388,84.1696 312.5,82C 305.254,78.9086 297.921,77.7419 290.5,78.5C 289.883,78.3893 289.383,78.056 289,77.5C 283.5,78.9078 278,80.4078 272.5,82C 283.02,87.0879 293.02,92.9213 302.5,99.5C 303.853,101.128 303.519,102.462 301.5,103.5C 294.926,97.534 287.593,92.534 279.5,88.5C 281.048,93.3241 283.048,98.3241 285.5,103.5C 284.5,104.833 283.5,104.833 282.5,103.5C 280.631,98.4005 278.464,93.4005 276,88.5C 273.085,85.93 270.419,86.2634 268,89.5C 266.788,90.776 265.955,92.276 265.5,94C 266.109,96.7085 267.109,99.2085 268.5,101.5C 264.908,101.784 261.741,100.784 259,98.5C 256.326,102.005 253.492,105.338 250.5,108.5C 249.185,109.476 247.852,110.476 246.5,111.5C 245.391,110.41 244.391,110.41 243.5,111.5C 241.166,117.51 237.833,122.843 233.5,127.5C 234.71,129.817 234.21,131.817 232,133.5C 231.549,131.071 230.715,130.904 229.5,133C 230.154,136.009 230.154,138.842 229.5,141.5C 227.49,143.023 227.156,144.856 228.5,147C 231.051,147.023 233.551,146.523 236,145.5C 239.047,146.562 241.88,147.895 244.5,149.5C 241.003,150.06 238.503,152.06 237,155.5C 235.601,155.499 234.101,155.165 232.5,154.5C 232.167,154.833 231.833,155.167 231.5,155.5C 232.243,156.182 232.909,156.849 233.5,157.5C 234.518,161.083 235.351,164.75 236,168.5C 236.417,169.756 237.25,170.423 238.5,170.5C 240.062,171.785 241.396,173.285 242.5,175C 242.333,175.5 242.167,176 242,176.5C 240.027,175.36 238.193,174.027 236.5,172.5C 236.307,175.878 236.307,179.211 236.5,182.5C 235.914,182.291 235.414,181.957 235,181.5C 234.587,178.768 233.92,176.101 233,173.5C 232.152,175.874 230.819,177.874 229,179.5C 228.5,179.333 228,179.167 227.5,179C 229.891,176.126 229.558,174.626 226.5,174.5C 229.077,173.365 231.077,171.531 232.5,169C 231.392,164.072 229.892,159.239 228,154.5C 227.583,153.244 226.75,152.577 225.5,152.5C 224.998,150.915 223.998,150.415 222.5,151C 219.877,154.412 217.377,157.912 215,161.5C 213.871,163.141 212.371,164.141 210.5,164.5C 210.782,160.704 210.782,157.037 210.5,153.5C 206.475,153.193 202.475,152.859 198.5,152.5C 197.066,159.963 196.066,167.463 195.5,175C 196,175.5 196.5,176 197,176.5C 201.372,175.261 205.206,176.261 208.5,179.5C 204.475,181.197 201.808,184.197 200.5,188.5C 199.202,187.884 198.202,187.884 197.5,188.5C 196.715,190.374 196.048,192.374 195.5,194.5C 192.127,184.493 191.127,174.16 192.5,163.5C 188.366,164.057 184.699,163.057 181.5,160.5C 179.777,163.83 179.443,166.83 180.5,169.5C 178.983,169.511 177.816,170.177 177,171.5C 170.375,183.833 164.209,196.5 158.5,209.5C 157.022,206.759 156.355,203.925 156.5,201C 159.339,190.484 163.172,180.317 168,170.5C 170.195,168.07 172.862,166.403 176,165.5C 176.497,163.19 176.663,160.857 176.5,158.5C 174.297,158.935 172.297,158.935 170.5,158.5C 169.28,156.019 167.614,154.019 165.5,152.5C 162.523,153.071 159.69,154.071 157,155.5C 156.617,154.944 156.117,154.611 155.5,154.5C 153.05,154.298 150.717,154.631 148.5,155.5C 145.72,154.805 143.053,153.805 140.5,152.5C 138.44,142.35 137.94,132.017 139,121.5C 139.199,109.514 142.699,98.6804 149.5,89C 151.167,88.3333 152.833,88.3333 154.5,89C 156.24,91.0353 158.074,92.8686 160,94.5C 161.301,94.3613 162.134,93.6946 162.5,92.5C 168.773,91.4746 173.773,93.4746 177.5,98.5C 183.979,92.6685 190.979,92.0018 198.5,96.5C 202.658,91.5094 207.325,87.0094 212.5,83C 217.075,80.1553 222.075,78.8219 227.5,79C 228.408,76.7679 229.408,74.6013 230.5,72.5C 226.179,66.5433 224.679,59.8766 226,52.5C 227.007,49.1966 229.173,48.0299 232.5,49C 235.138,51.7777 237.138,54.9444 238.5,58.5C 239.002,59.521 239.668,59.6877 240.5,59C 242.373,56.7911 244.54,54.9578 247,53.5C 247.872,47.7329 249.038,42.0663 250.5,36.5 Z"/></g>
<g><path style="opacity:0.502" fill="#181616" d="M 149.5,58.5 C 155.542,57.3742 160.542,59.0408 164.5,63.5C 162.8,66.0265 161.133,65.8599 159.5,63C 155.171,60.8465 151.004,61.0132 147,63.5C 145.941,63.3699 145.108,62.8699 144.5,62C 146.233,60.8111 147.9,59.6444 149.5,58.5 Z"/></g>
<g><path style="opacity:0.502" fill="#181615" d="M 201.5,59.5 C 205.182,59.3347 208.848,59.5014 212.5,60C 214.116,60.6152 215.449,61.6152 216.5,63C 215.975,63.6924 215.308,64.1924 214.5,64.5C 208.938,60.3403 203.605,60.6736 198.5,65.5C 197.692,65.1924 197.025,64.6924 196.5,64C 198.063,62.264 199.73,60.764 201.5,59.5 Z"/></g>
<g><path style="opacity:0.494" fill="#100e0e" d="M 106.5,35.5 C 107.5,36.1667 108.5,36.8333 109.5,37.5C 110.72,47.8105 111.72,58.1438 112.5,68.5C 117.243,68.7016 120.909,70.7016 123.5,74.5C 114.775,85.7338 106.608,97.4005 99,109.5C 97.6233,107.246 96.1233,105.08 94.5,103C 95.4231,100.959 95.7564,98.7925 95.5,96.5C 97.073,93.1069 99.7396,91.7736 103.5,92.5C 103.123,85.9134 104.123,79.5801 106.5,73.5C 107.458,73.0472 108.292,72.3805 109,71.5C 109.851,66.0296 109.351,60.6963 107.5,55.5C 104.314,58.5209 100.98,61.3542 97.5,64C 96.2752,64.5628 95.2752,64.2295 94.5,63C 97.6452,61.0218 100.312,58.5218 102.5,55.5C 101.2,52.5677 99.2003,50.2344 96.5,48.5C 97.723,47.3861 99.0563,47.2195 100.5,48C 102,49.8333 103.5,51.6667 105,53.5C 105.667,52.8333 106.333,52.1667 107,51.5C 107.022,46.1822 106.855,40.8489 106.5,35.5 Z"/></g>
<g><path style="opacity:0.502" fill="#181515" d="M 150.5,71.5 C 153.91,71.4571 157.243,71.9571 160.5,73C 163.341,76.1588 162.674,78.4922 158.5,80C 155.036,80.8166 151.702,80.4833 148.5,79C 145.759,75.711 146.425,73.211 150.5,71.5 Z"/></g>
<g><path style="opacity:0.502" fill="#171414" d="M 200.5,72.5 C 204.182,72.3347 207.848,72.5014 211.5,73C 214.371,75.8402 214.037,78.1735 210.5,80C 207.167,80.6667 203.833,80.6667 200.5,80C 197.914,77.506 197.914,75.006 200.5,72.5 Z"/></g>
<g><path style="opacity:0.502" fill="#292726" d="M 136.5,77.5 C 136.5,79.1667 136.5,80.8333 136.5,82.5C 133.901,82.5494 131.734,83.5494 130,85.5C 128.007,83.1825 126.841,80.5158 126.5,77.5C 128.562,75.4361 130.895,73.7695 133.5,72.5C 135.767,73.3622 136.767,75.0289 136.5,77.5 Z"/></g>
<g><path style="opacity:0.497" fill="#110f0f" d="M 126.5,77.5 C 126.841,80.5158 128.007,83.1825 130,85.5C 131.734,83.5494 133.901,82.5494 136.5,82.5C 136.5,80.8333 136.5,79.1667 136.5,77.5C 137.451,78.9187 137.784,80.5853 137.5,82.5C 138.5,82.5 139.5,82.5 140.5,82.5C 140.5,80.8333 140.5,79.1667 140.5,77.5C 141.302,78.9516 141.802,80.6183 142,82.5C 144.058,83.2291 145.891,84.2291 147.5,85.5C 144.049,88.4629 141.549,92.1296 140,96.5C 135.373,111.813 133.206,127.479 133.5,143.5C 132.504,143.414 131.671,143.748 131,144.5C 126.006,142.592 121.839,139.592 118.5,135.5C 117.529,133.517 116.529,131.517 115.5,129.5C 115.5,127.167 115.5,124.833 115.5,122.5C 110.253,120.876 105.586,118.209 101.5,114.5C 108.598,101.294 116.932,88.9609 126.5,77.5 Z"/></g>
<g><path style="opacity:0.494" fill="#282a28" d="M 290.5,78.5 C 291.768,80.6702 291.768,82.8368 290.5,85C 296.289,88.4435 300.289,93.2769 302.5,99.5C 293.02,92.9213 283.02,87.0879 272.5,82C 278,80.4078 283.5,78.9078 289,77.5C 289.383,78.056 289.883,78.3893 290.5,78.5 Z"/></g>
<g><path style="opacity:0.445" fill="#282928" d="M 324.5,88.5 C 325.958,92.9542 324.458,95.9542 320,97.5C 316.079,95.7489 313.913,92.7489 313.5,88.5C 316.33,87.4897 318.83,85.8231 321,83.5C 322.669,84.8463 323.836,86.513 324.5,88.5 Z"/></g>
<g><path style="opacity:0.461" fill="#312f2e" d="M 7.5,82.5 C 17.0028,86.719 26.3361,91.219 35.5,96C 34.782,97.9874 33.782,99.8208 32.5,101.5C 23.2447,96.9107 13.9114,92.4107 4.5,88C 5.63939,86.2196 6.63939,84.3863 7.5,82.5 Z"/></g>
<g><path style="opacity:0.464" fill="#282a28" d="M 282.5,103.5 C 278.969,103.428 275.636,102.095 272.5,99.5C 271.14,100.18 269.807,100.847 268.5,101.5C 267.109,99.2085 266.109,96.7085 265.5,94C 265.955,92.276 266.788,90.776 268,89.5C 270.419,86.2634 273.085,85.93 276,88.5C 278.464,93.4005 280.631,98.4005 282.5,103.5 Z"/></g>
<g><path style="opacity:0.502" fill="#343633" d="M 301.5,103.5 C 296.984,104.505 292.817,103.505 289,100.5C 287.961,101.71 286.794,102.71 285.5,103.5C 283.048,98.3241 281.048,93.3241 279.5,88.5C 287.593,92.534 294.926,97.534 301.5,103.5 Z"/></g>
<g><path style="opacity:0.473" fill="#2a2827" d="M 363.5,94.5 C 363.53,95.4972 363.03,96.1639 362,96.5C 360.088,93.0393 357.755,92.706 355,95.5C 350.176,103.661 345.342,111.828 340.5,120C 340.728,120.399 341.062,120.565 341.5,120.5C 337.044,123.269 332.378,123.769 327.5,122C 325.246,120.946 324.913,119.446 326.5,117.5C 327.833,116.833 329.167,116.167 330.5,115.5C 328.415,114.459 326.748,112.959 325.5,111C 326.167,110 326.833,109 327.5,108C 329.952,107.71 332.285,107.044 334.5,106C 331.45,102.154 332.116,99.1544 336.5,97C 332.975,94.302 329.642,91.4686 326.5,88.5C 326.167,87.1667 325.833,85.8333 325.5,84.5C 331.353,87.0222 336.353,90.6888 340.5,95.5C 340.389,93.3664 340.722,91.0331 341.5,88.5C 344.035,87.4967 346.202,88.1633 348,90.5C 349,92.1667 350,93.8333 351,95.5C 351.559,91.8136 352.226,88.147 353,84.5C 353.775,82.7769 355.108,81.7769 357,81.5C 360.543,83.4993 361.709,85.9993 360.5,89C 361.264,91.0693 361.764,93.236 362,95.5C 362.383,94.944 362.883,94.6107 363.5,94.5 Z"/></g>
<g><path style="opacity:0.502" fill="#3b3a38" d="M 359.5,112.5 C 353.263,109.454 349.597,111.454 348.5,118.5C 346.254,119.455 343.921,120.122 341.5,120.5C 341.062,120.565 340.728,120.399 340.5,120C 345.342,111.828 350.176,103.661 355,95.5C 357.755,92.706 360.088,93.0393 362,96.5C 363.03,96.1639 363.53,95.4972 363.5,94.5C 365.587,90.4118 368.92,88.4118 373.5,88.5C 372.47,98.5525 367.803,106.553 359.5,112.5 Z"/></g>
<g><path style="opacity:0.452" fill="#161212" d="M 27.5,106.5 C 31.8445,106.526 33.1778,108.526 31.5,112.5C 21.8333,116.5 12.1667,120.5 2.5,124.5C 1.16667,122.167 1.16667,119.833 2.5,117.5C 11.0176,114.004 19.351,110.337 27.5,106.5 Z"/></g>
<g><path style="opacity:0.498" fill="#131112" d="M 359.5,112.5 C 358.769,120.031 355.103,122.031 348.5,118.5C 349.597,111.454 353.263,109.454 359.5,112.5 Z"/></g>
<g><path style="opacity:0.47" fill="#1d1c1b" d="M 250.5,108.5 C 251.361,110.386 252.361,112.22 253.5,114C 262.069,116.621 270.403,119.788 278.5,123.5C 278.768,125.099 278.434,126.432 277.5,127.5C 276.292,126.766 274.959,126.433 273.5,126.5C 270.555,124.562 267.388,122.895 264,121.5C 263.601,121.728 263.435,122.062 263.5,122.5C 261.547,121.095 260.547,121.761 260.5,124.5C 259.754,128.132 259.421,131.798 259.5,135.5C 258.542,135.047 257.708,134.381 257,133.5C 254.924,129.263 253.257,124.929 252,120.5C 247.529,130.806 240.029,137.806 229.5,141.5C 230.154,138.842 230.154,136.009 229.5,133C 230.715,130.904 231.549,131.071 232,133.5C 234.21,131.817 234.71,129.817 233.5,127.5C 237.833,122.843 241.166,117.51 243.5,111.5C 244.391,110.41 245.391,110.41 246.5,111.5C 247.852,110.476 249.185,109.476 250.5,108.5 Z"/></g>
<g><path style="opacity:0.482" fill="#131313" d="M 286.5,122.5 C 285.061,128.792 282.061,134.292 277.5,139C 281.957,143.758 281.124,147.258 275,149.5C 273.289,149.561 271.956,148.894 271,147.5C 268.06,149.573 266.226,152.24 265.5,155.5C 262.205,153.852 258.539,152.685 254.5,152C 252.567,147.533 253.567,143.867 257.5,141C 260.5,140 263.5,139 266.5,138C 265.915,136.698 265.249,135.531 264.5,134.5C 265.15,132.565 265.483,130.565 265.5,128.5C 267.82,126.774 270.487,126.107 273.5,126.5C 274.765,127.479 276.099,128.479 277.5,129.5C 278.463,129.03 278.463,128.363 277.5,127.5C 278.434,126.432 278.768,125.099 278.5,123.5C 279.265,123.923 280.098,124.257 281,124.5C 282.567,123.144 284.4,122.477 286.5,122.5 Z M 273.5,126.5 C 274.959,126.433 276.292,126.766 277.5,127.5C 278.463,128.363 278.463,129.03 277.5,129.5C 276.099,128.479 274.765,127.479 273.5,126.5 Z"/></g>
<g><path style="opacity:0.452" fill="#2e312e" d="M 263.5,122.5 C 264.363,124.421 265.029,126.421 265.5,128.5C 265.483,130.565 265.15,132.565 264.5,134.5C 262.958,135.301 261.292,135.634 259.5,135.5C 259.421,131.798 259.754,128.132 260.5,124.5C 260.547,121.761 261.547,121.095 263.5,122.5 Z"/></g>
<g><path style="opacity:0.398" fill="#111110" d="M 292.5,130.5 C 294.204,133.399 296.204,136.232 298.5,139C 300.115,139.062 301.448,139.229 302.5,139.5C 302.058,143.154 301.724,146.821 301.5,150.5C 299.317,154.259 295.983,155.925 291.5,155.5C 286.639,152.962 286.639,151.296 291.5,150.5C 293.089,151.621 294.756,151.454 296.5,150C 297.801,148.384 297.801,146.884 296.5,145.5C 296.025,143.216 295.025,141.216 293.5,139.5C 292.833,138.167 291.833,137.167 290.5,136.5C 290.259,134.102 290.926,132.102 292.5,130.5 Z"/></g>
<g><path style="opacity:0.428" fill="#2b2c2a" d="M 302.5,139.5 C 307.558,141.75 310.891,145.583 312.5,151C 312.054,153.741 310.554,155.575 308,156.5C 305.348,155.015 303.182,153.015 301.5,150.5C 301.724,146.821 302.058,143.154 302.5,139.5 Z"/></g>
<g><path style="opacity:0.476" fill="#252625" d="M 286.5,122.5 C 291.119,123.127 293.119,125.794 292.5,130.5C 290.926,132.102 290.259,134.102 290.5,136.5C 289.596,137.209 289.263,138.209 289.5,139.5C 290.833,139.5 292.167,139.5 293.5,139.5C 295.025,141.216 296.025,143.216 296.5,145.5C 295.811,148.189 294.144,149.856 291.5,150.5C 286.639,151.296 286.639,152.962 291.5,155.5C 292.186,160.151 290.186,162.817 285.5,163.5C 282.812,162.995 280.645,161.662 279,159.5C 276.705,165.776 272.705,167.11 267,163.5C 265.921,160.937 265.421,158.271 265.5,155.5C 266.226,152.24 268.06,149.573 271,147.5C 271.956,148.894 273.289,149.561 275,149.5C 281.124,147.258 281.957,143.758 277.5,139C 282.061,134.292 285.061,128.792 286.5,122.5 Z"/></g>
<g><path style="opacity:0.493" fill="#282a28" d="M 244.5,149.5 C 249.486,149.305 251.152,151.472 249.5,156C 244.156,156.471 238.822,156.971 233.5,157.5C 232.909,156.849 232.243,156.182 231.5,155.5C 231.833,155.167 232.167,154.833 232.5,154.5C 234.101,155.165 235.601,155.499 237,155.5C 238.503,152.06 241.003,150.06 244.5,149.5 Z"/></g>
<g><path style="opacity:0.483" fill="#262725" d="M 225.5,152.5 C 223.721,159.67 221.054,166.503 217.5,173C 215.559,173.743 213.726,173.576 212,172.5C 210.748,169.986 210.248,167.32 210.5,164.5C 212.371,164.141 213.871,163.141 215,161.5C 217.377,157.912 219.877,154.412 222.5,151C 223.998,150.415 224.998,150.915 225.5,152.5 Z"/></g>
<g><path style="opacity:0.502" fill="#32302e" d="M 226.5,174.5 C 229.558,174.626 229.891,176.126 227.5,179C 228,179.167 228.5,179.333 229,179.5C 230.819,177.874 232.152,175.874 233,173.5C 233.92,176.101 234.587,178.768 235,181.5C 235.414,181.957 235.914,182.291 236.5,182.5C 236.307,179.211 236.307,175.878 236.5,172.5C 238.193,174.027 240.027,175.36 242,176.5C 242.167,176 242.333,175.5 242.5,175C 241.396,173.285 240.062,171.785 238.5,170.5C 243.365,170.618 248.032,172.118 252.5,175C 257.461,181.425 256.127,185.925 248.5,188.5C 247.894,190.709 247.227,192.876 246.5,195C 243.653,195.944 241.153,195.444 239,193.5C 237.812,198.042 234.978,200.208 230.5,200C 228.393,198.736 227.393,196.903 227.5,194.5C 224.859,195.263 222.192,195.43 219.5,195C 218.02,193.701 217.354,192.034 217.5,190C 218.602,183.616 221.602,178.449 226.5,174.5 Z"/></g>
<g><path style="opacity:0.498" fill="#232523" d="M 180.5,169.5 C 182.066,173.52 181.399,177.52 178.5,181.5C 175.834,183.489 174.167,186.156 173.5,189.5C 169.893,196.432 165.893,203.098 161.5,209.5C 160.313,210.653 159.313,210.653 158.5,209.5C 164.209,196.5 170.375,183.833 177,171.5C 177.816,170.177 178.983,169.511 180.5,169.5 Z"/></g>
<g><path style="opacity:0.502" fill="#403e3c" d="M 56.5,174.5 C 60.3076,174.163 63.9743,174.663 67.5,176C 59.1926,183.638 50.8593,191.305 42.5,199C 40.0709,199.703 37.7375,199.537 35.5,198.5C 41.3247,193.175 46.9914,187.675 52.5,182C 52.1667,181.667 51.8333,181.333 51.5,181C 52.7298,178.394 54.3965,176.227 56.5,174.5 Z"/></g>
<g><path style="opacity:0.499" fill="#2f302e" d="M 208.5,179.5 C 211.086,182.293 211.086,185.126 208.5,188C 205.854,188.497 203.187,188.664 200.5,188.5C 201.808,184.197 204.475,181.197 208.5,179.5 Z"/></g>
<g><path style="opacity:0.485" fill="#1a1717" d="M 280.5,179.5 C 293.36,181.62 305.694,185.453 317.5,191C 323.085,196.163 322.585,200.663 316,204.5C 312.439,204.226 308.939,203.893 305.5,203.5C 305.822,205.722 305.155,207.556 303.5,209C 299.467,210.04 295.801,209.374 292.5,207C 286.66,198.651 282.66,189.484 280.5,179.5 Z"/></g>
<g><path style="opacity:0.482" fill="#2c2a28" d="M 56.5,174.5 C 54.3965,176.227 52.7298,178.394 51.5,181C 51.8333,181.333 52.1667,181.667 52.5,182C 46.9914,187.675 41.3247,193.175 35.5,198.5C 29.0922,198.241 22.7589,197.407 16.5,196C 23.0921,190.66 30.0921,185.827 37.5,181.5C 33.9496,181.189 30.2829,180.355 26.5,179C 40.1667,170.5 53.8333,162 67.5,153.5C 67.8333,153.667 68.1667,153.833 68.5,154C 66.2298,157.27 64.3964,160.77 63,164.5C 60.5738,167.691 58.4072,171.025 56.5,174.5 Z"/></g>
<g><path style="opacity:0.496" fill="#141212" d="M 153.5,179.5 C 154.634,181.966 154.801,184.633 154,187.5C 149.323,212.563 144.323,237.563 139,262.5C 138.389,265.721 137.222,268.721 135.5,271.5C 127.384,257.848 119.384,244.015 111.5,230C 124.974,212.696 138.974,195.863 153.5,179.5 Z"/></g>
<g><path style="opacity:0.484" fill="#0d0c0d" d="M 232.5,232.5 C 232.5,231.833 232.5,231.167 232.5,230.5C 233.117,230.611 233.617,230.944 234,231.5C 235.123,228.751 236.623,226.251 238.5,224C 236.302,223.627 234.135,223.127 232,222.5C 231.235,222.57 230.735,222.903 230.5,223.5C 229.883,223.389 229.383,223.056 229,222.5C 226.209,226.782 224.376,231.115 223.5,235.5C 218.13,230.588 216.13,224.588 217.5,217.5C 218.29,216.599 219.29,215.932 220.5,215.5C 225.257,217.142 230.09,218.475 235,219.5C 234.983,217.432 233.983,215.766 232,214.5C 230.699,208.78 233.033,205.447 239,204.5C 241.725,204.493 244.391,205.493 247,207.5C 246.616,204.228 246.949,200.894 248,197.5C 250.732,193.453 254.065,192.786 258,195.5C 259.595,198.121 261.095,200.787 262.5,203.5C 265.386,200.95 268.719,199.283 272.5,198.5C 278.091,199.651 279.925,202.984 278,208.5C 276.6,211.902 274.433,214.736 271.5,217C 275.263,218.486 277.929,221.153 279.5,225C 279.248,228.355 277.581,230.688 274.5,232C 270.747,232.091 267.08,232.258 263.5,232.5C 265.516,238.468 263.683,242.801 258,245.5C 253.193,242.576 250.359,238.242 249.5,232.5C 246.451,235.711 242.951,238.377 239,240.5C 235.166,239.155 232.999,236.489 232.5,232.5 Z M 232.5,230.5 C 232.606,227.921 231.939,225.588 230.5,223.5C 230.735,222.903 231.235,222.57 232,222.5C 234.135,223.127 236.302,223.627 238.5,224C 236.623,226.251 235.123,228.751 234,231.5C 233.617,230.944 233.117,230.611 232.5,230.5 Z"/></g>
<g><path style="opacity:0.409" fill="#202120" d="M 197.5,188.5 C 198.846,193.871 201.679,198.205 206,201.5C 207.695,196.401 211.195,194.568 216.5,196C 220.808,202.085 219.141,206.085 211.5,208C 214.518,210.612 217.518,213.112 220.5,215.5C 219.29,215.932 218.29,216.599 217.5,217.5C 215.86,216.68 214.193,215.847 212.5,215C 208.667,209.833 204.167,205.333 199,201.5C 197.295,199.423 196.128,197.09 195.5,194.5C 196.048,192.374 196.715,190.374 197.5,188.5 Z M 212.5,199.5 C 213.756,199.461 214.756,199.961 215.5,201C 214.034,201.635 212.7,202.469 211.5,203.5C 211.167,203 210.833,202.5 210.5,202C 211.056,200.989 211.722,200.156 212.5,199.5 Z"/></g>
<g><path style="opacity:0.502" fill="#302e2d" d="M 254.5,213.5 C 260.499,213.002 262.666,215.669 261,221.5C 258.294,224.978 255.294,225.311 252,222.5C 250.927,218.9 251.76,215.9 254.5,213.5 Z"/></g>
<g><path style="opacity:0.454" fill="#202220" d="M 189.5,215.5 C 190.885,216.574 192.051,217.907 193,219.5C 195.038,224.408 197.205,229.241 199.5,234C 198.751,235.734 198.251,237.567 198,239.5C 196.612,240.554 195.112,240.72 193.5,240C 190.949,236.956 188.616,233.789 186.5,230.5C 187.788,228.199 187.121,226.366 184.5,225C 185.328,224.085 186.328,223.419 187.5,223C 187.167,222.667 186.833,222.333 186.5,222C 188.451,220.266 189.451,218.099 189.5,215.5 Z"/></g>
<g><path style="opacity:0.445" fill="#2b2d2b" d="M 230.5,223.5 C 231.939,225.588 232.606,227.921 232.5,230.5C 232.5,231.167 232.5,231.833 232.5,232.5C 232.178,236.976 229.844,238.476 225.5,237C 224.956,236.283 224.289,235.783 223.5,235.5C 224.376,231.115 226.209,226.782 229,222.5C 229.383,223.056 229.883,223.389 230.5,223.5 Z"/></g>
<g><path style="opacity:0.496" fill="#121111" d="M 178.5,181.5 C 179.399,190.63 179.399,199.963 178.5,209.5C 183.475,209.153 187.142,211.153 189.5,215.5C 189.451,218.099 188.451,220.266 186.5,222C 186.833,222.333 187.167,222.667 187.5,223C 186.328,223.419 185.328,224.085 184.5,225C 187.121,226.366 187.788,228.199 186.5,230.5C 185.215,228.548 183.549,226.882 181.5,225.5C 181.06,226.698 180.727,227.865 180.5,229C 182.311,239.96 184.811,250.794 188,261.5C 195.458,262.941 202.958,264.441 210.5,266C 212.759,267.715 214.926,269.548 217,271.5C 217.495,273.473 217.662,275.473 217.5,277.5C 213.46,280.625 208.96,281.291 204,279.5C 200.611,282.533 196.778,283.199 192.5,281.5C 189.754,283.473 186.754,284.973 183.5,286C 180.355,289.273 180.022,291.94 182.5,294C 181.852,295.44 181.519,296.94 181.5,298.5C 171.584,300.279 166.25,295.946 165.5,285.5C 165.891,282.249 167.058,279.249 169,276.5C 173.559,271.916 178.226,267.582 183,263.5C 182.678,259.245 181.844,254.911 180.5,250.5C 181.553,247.148 181.553,243.815 180.5,240.5C 178.526,244.308 175.692,247.308 172,249.5C 170.14,253.22 168.307,256.886 166.5,260.5C 164.804,260.315 163.471,259.481 162.5,258C 165.793,249.585 171.126,242.751 178.5,237.5C 176.917,229.782 175.584,222.282 174.5,215C 175.019,212.974 175.353,210.974 175.5,209C 174.85,202.401 174.184,195.901 173.5,189.5C 174.167,186.156 175.834,183.489 178.5,181.5 Z"/></g>
<g><path style="opacity:0.404" fill="#222322" d="M 180.5,250.5 C 177.333,253.498 174,256.331 170.5,259C 169.255,259.791 167.922,260.291 166.5,260.5C 168.307,256.886 170.14,253.22 172,249.5C 175.692,247.308 178.526,244.308 180.5,240.5C 181.553,243.815 181.553,247.148 180.5,250.5 Z"/></g>
<g><path style="opacity:0.492" fill="#211e1d" d="M 217.5,277.5 C 218.384,283.077 216.217,286.744 211,288.5C 210.136,297.271 205.469,300.271 197,297.5C 194.323,302.923 190.156,304.59 184.5,302.5C 183.476,301.148 182.476,299.815 181.5,298.5C 181.519,296.94 181.852,295.44 182.5,294C 180.022,291.94 180.355,289.273 183.5,286C 186.754,284.973 189.754,283.473 192.5,281.5C 196.778,283.199 200.611,282.533 204,279.5C 208.96,281.291 213.46,280.625 217.5,277.5 Z"/></g>
</svg>
