<?xml version="1.0" encoding="UTF-8"?>
<!DOCTYPE svg PUBLIC "-//W3C//DTD SVG 1.1//EN" "http://www.w3.org/Graphics/SVG/1.1/DTD/svg11.dtd">
<svg xmlns="http://www.w3.org/2000/svg" version="1.1" width="349px" height="415px" style="shape-rendering:geometricPrecision; text-rendering:geometricPrecision; image-rendering:optimizeQuality; fill-rule:evenodd; clip-rule:evenodd" xmlns:xlink="http://www.w3.org/1999/xlink">
<g><path style="opacity:0.493" fill="#191715" d="M 152.5,61.5 C 154.39,61.2965 155.89,61.9632 157,63.5C 158.27,70.5663 159.77,77.5663 161.5,84.5C 172.96,81.2877 184.627,79.7877 196.5,80C 196.957,80.414 197.291,80.914 197.5,81.5C 188.323,92.51 178.323,102.677 167.5,112C 174.804,115.977 180.804,121.31 185.5,128C 185.355,128.772 185.022,129.439 184.5,130C 173.528,131.082 162.528,131.749 151.5,132C 143.138,145.051 133.805,157.384 123.5,169C 122.552,169.483 121.552,169.649 120.5,169.5C 121.145,154.843 122.812,140.343 125.5,126C 112.062,122.712 98.7283,119.046 85.5,115C 84.6433,114.311 83.9767,113.478 83.5,112.5C 85.9954,110.157 88.9954,108.657 92.5,108C 99.8065,106.241 107.14,104.575 114.5,103C 106.273,93.7872 99.2728,83.7872 93.5,73C 94.09,71.7011 95.09,70.8678 96.5,70.5C 110.032,74.1216 123.032,79.1216 135.5,85.5C 140.685,77.1196 146.351,69.1196 152.5,61.5 Z"/></g>
<g><path style="opacity:0.479" fill="#111115" d="M 323.5,64.5 C 329.425,64.1918 335.259,64.5251 341,65.5C 342.54,78.1242 342.874,90.7908 342,103.5C 339.433,105.305 336.599,106.638 333.5,107.5C 332.522,107.023 331.689,106.357 331,105.5C 331.295,95.5262 331.462,85.5262 331.5,75.5C 323.178,76.6092 314.845,77.6092 306.5,78.5C 306.121,74.4238 307.121,70.7571 309.5,67.5C 314.234,66.2089 318.901,65.2089 323.5,64.5 Z"/></g>
<g><path style="opacity:0.502" fill="#1b1a17" d="M 148.5,81.5 C 149.496,81.4142 150.329,81.7476 151,82.5C 152.283,86.414 153.116,90.414 153.5,94.5C 160.444,93.1111 167.444,92.1111 174.5,91.5C 174.649,92.552 174.483,93.552 174,94.5C 168.5,100 163,105.5 157.5,111C 160.927,112.796 164.094,114.963 167,117.5C 167.49,118.793 167.657,120.127 167.5,121.5C 161.108,122.112 154.775,122.279 148.5,122C 143.654,129.881 137.988,137.048 131.5,143.5C 130.359,135.511 131.026,127.678 133.5,120C 126.381,117.698 119.047,116.032 111.5,115C 109.579,114.64 107.912,113.806 106.5,112.5C 107.09,111.201 108.09,110.368 109.5,110C 115.13,108.343 120.796,106.843 126.5,105.5C 122.808,100.975 119.308,96.3081 116,91.5C 115.506,89.8659 115.34,88.1992 115.5,86.5C 123.47,88.6487 131.136,91.6487 138.5,95.5C 142.214,91.117 145.547,86.4503 148.5,81.5 Z"/></g>
<g><path style="opacity:0.479" fill="#111115" d="M 52.5,88.5 C 58.8421,88.3338 65.1754,88.5005 71.5,89C 74.1924,90.8799 75.3591,93.3799 75,96.5C 64.8941,98.0315 54.7274,99.3648 44.5,100.5C 44.1667,101.333 43.8333,102.167 43.5,103C 44.8512,108.783 45.3512,114.616 45,120.5C 41.9049,121.395 38.7383,121.395 35.5,120.5C 33.9149,111.223 33.4149,101.89 34,92.5C 34.5,92 35,91.5 35.5,91C 41.3312,90.2903 46.9978,89.457 52.5,88.5 Z"/></g>
<g><path style="opacity:0.494" fill="#191a19" d="M 293.5,164.5 C 285.881,165.831 278.215,167.498 270.5,169.5C 268.287,167.472 265.787,165.805 263,164.5C 262.505,162.527 262.338,160.527 262.5,158.5C 266.324,157.665 269.49,155.665 272,152.5C 276.366,145.94 277.366,138.94 275,131.5C 268.125,122.935 260.458,122.268 252,129.5C 245.417,137.887 244.917,146.554 250.5,155.5C 250,156.5 249.5,157.5 249,158.5C 243.553,158.395 238.053,158.729 232.5,159.5C 231.522,162.268 231.855,164.934 233.5,167.5C 210.583,164.453 187.583,162.62 164.5,162C 161.781,163.597 159.614,165.763 158,168.5C 154.815,175.382 151.315,181.882 147.5,188C 112.015,190.684 76.6812,194.684 41.5,200C 38.0408,200.863 34.7074,202.03 31.5,203.5C 26.4329,208.615 22.5996,214.615 20,221.5C 19.7679,220.263 19.2679,219.263 18.5,218.5C 18.0679,210.721 18.5679,203.054 20,195.5C 25.2134,193.085 30.7134,192.085 36.5,192.5C 41.6965,192.636 46.8632,192.303 52,191.5C 53.6811,191.392 54.8478,190.725 55.5,189.5C 58.5176,189.296 61.5176,188.963 64.5,188.5C 69.9753,189.489 75.642,189.822 81.5,189.5C 81.5,188.5 81.5,187.5 81.5,186.5C 83.1667,186.5 84.8333,186.5 86.5,186.5C 94.9733,187.966 103.307,187.299 111.5,184.5C 122.167,183.833 132.833,183.167 143.5,182.5C 144.298,170.842 146.632,159.508 150.5,148.5C 152.61,147.109 154.943,146.442 157.5,146.5C 177.599,148.012 197.599,150.346 217.5,153.5C 218.5,153.167 219.5,152.833 220.5,152.5C 224.785,139.142 229.952,126.142 236,113.5C 237.473,111.993 239.307,111.326 241.5,111.5C 263.457,113.589 285.124,117.255 306.5,122.5C 306.833,123.5 307.167,124.5 307.5,125.5C 304.017,138.951 299.35,151.951 293.5,164.5 Z"/></g>
<g><path style="opacity:0.502" fill="#0a0c0e" d="M 270.5,169.5 C 268.949,171.913 268.283,174.579 268.5,177.5C 258.133,177.925 247.8,177.925 237.5,177.5C 236.355,174.058 235.021,170.725 233.5,167.5C 231.855,164.934 231.522,162.268 232.5,159.5C 238.053,158.729 243.553,158.395 249,158.5C 249.5,157.5 250,156.5 250.5,155.5C 244.917,146.554 245.417,137.887 252,129.5C 260.458,122.268 268.125,122.935 275,131.5C 277.366,138.94 276.366,145.94 272,152.5C 269.49,155.665 266.324,157.665 262.5,158.5C 262.338,160.527 262.505,162.527 263,164.5C 265.787,165.805 268.287,167.472 270.5,169.5 Z"/></g>
<g><path style="opacity:0.502" fill="#171415" d="M 233.5,167.5 C 235.021,170.725 236.355,174.058 237.5,177.5C 247.8,177.925 258.133,177.925 268.5,177.5C 268.283,174.579 268.949,171.913 270.5,169.5C 278.215,167.498 285.881,165.831 293.5,164.5C 298.828,163.852 304.162,163.685 309.5,164C 312.311,166.406 312.977,169.239 311.5,172.5C 310.659,174.379 310.325,176.379 310.5,178.5C 313.846,178.435 316.346,179.768 318,182.5C 318.644,197.851 318.311,213.185 317,228.5C 314.919,252.891 312.419,277.224 309.5,301.5C 308.518,304.962 308.185,308.629 308.5,312.5C 306.864,320.656 305.53,328.989 304.5,337.5C 282.638,338.324 260.805,339.657 239,341.5C 237.293,341.492 235.793,341.158 234.5,340.5C 267.828,319.821 280.328,290.155 272,251.5C 257.886,215.092 231.219,196.092 192,194.5C 153.014,195.653 126.348,214.32 112,250.5C 102.772,289.694 115.272,319.694 149.5,340.5C 109.908,338.935 70.4078,334.601 31,327.5C 30.0979,327.743 29.2646,328.077 28.5,328.5C 27.9084,325.873 27.5751,323.206 27.5,320.5C 27.6107,319.883 27.944,319.383 28.5,319C 51.8464,313.884 74.8464,307.551 97.5,300C 98.419,291.556 98.2523,283.056 97,274.5C 95.5503,263.135 93.8836,251.802 92,240.5C 91.4217,237.097 90.2551,233.93 88.5,231C 82.657,231.274 76.9903,232.608 71.5,235C 54.0229,241.576 36.6895,248.409 19.5,255.5C 20.094,253.59 20.4274,251.59 20.5,249.5C 19.4248,239.19 18.7581,228.856 18.5,218.5C 19.2679,219.263 19.7679,220.263 20,221.5C 22.5996,214.615 26.4329,208.615 31.5,203.5C 34.7074,202.03 38.0408,200.863 41.5,200C 76.6812,194.684 112.015,190.684 147.5,188C 151.315,181.882 154.815,175.382 158,168.5C 159.614,165.763 161.781,163.597 164.5,162C 187.583,162.62 210.583,164.453 233.5,167.5 Z"/></g>
<g><path style="opacity:0.479" fill="#020202" d="M 327.5,302.5 C 324.417,303.125 321.251,303.458 318,303.5C 314.748,303.481 311.915,302.814 309.5,301.5C 312.419,277.224 314.919,252.891 317,228.5C 318.311,213.185 318.644,197.851 318,182.5C 316.346,179.768 313.846,178.435 310.5,178.5C 310.325,176.379 310.659,174.379 311.5,172.5C 316.828,171.321 322.162,171.321 327.5,172.5C 328.447,174.059 329.113,175.726 329.5,177.5C 328.731,180.115 328.397,182.781 328.5,185.5C 331.099,185.549 333.266,186.549 335,188.5C 335.799,205.857 335.466,223.19 334,240.5C 331.833,261.175 329.666,281.842 327.5,302.5 Z"/></g>
<g><path style="opacity:0.47" fill="#090a0c" d="M 81.5,186.5 C 81.5,187.5 81.5,188.5 81.5,189.5C 75.642,189.822 69.9753,189.489 64.5,188.5C 64.162,185.843 64.8287,183.51 66.5,181.5C 70.7953,178.886 75.2953,177.886 80,178.5C 81.0793,181.063 81.5793,183.729 81.5,186.5 Z"/></g>
<g><path style="opacity:0.475" fill="#090a0c" d="M 111.5,184.5 C 103.307,187.299 94.9733,187.966 86.5,186.5C 86.0833,183.921 86.75,181.754 88.5,180C 93.5,179.333 98.5,179.333 103.5,180C 105.342,183.017 108.009,184.517 111.5,184.5 Z"/></g>
<g><path style="opacity:0.471" fill="#0a0b0e" d="M 55.5,189.5 C 54.8478,190.725 53.6811,191.392 52,191.5C 46.8632,192.303 41.6965,192.636 36.5,192.5C 36.4141,182.187 41.4141,178.687 51.5,182C 52.3081,182.308 52.9747,182.808 53.5,183.5C 54.0505,185.657 54.7171,187.657 55.5,189.5 Z"/></g>
<g><path style="opacity:0.502" fill="#0a0c0e" d="M 234.5,340.5 C 223.251,346.137 211.584,350.137 199.5,352.5C 194.5,352.5 189.5,352.5 184.5,352.5C 172.229,350.502 160.562,346.502 149.5,340.5C 115.272,319.694 102.772,289.694 112,250.5C 126.348,214.32 153.014,195.653 192,194.5C 231.219,196.092 257.886,215.092 272,251.5C 280.328,290.155 267.828,319.821 234.5,340.5 Z"/></g>
<g><path style="opacity:0.502" fill="#111115" d="M 182.5,205.5 C 167.531,243.095 152.865,280.762 138.5,318.5C 133.755,313.411 129.755,307.745 126.5,301.5C 138.359,271.767 149.693,241.767 160.5,211.5C 167.376,207.947 174.709,205.947 182.5,205.5 Z"/></g>
<g><path style="opacity:0.502" fill="#2f2f2f" d="M 182.5,205.5 C 182.833,205.5 183.167,205.5 183.5,205.5C 187.884,205.174 192.217,205.508 196.5,206.5C 191.959,216.142 187.626,225.808 183.5,235.5C 174.78,253.995 166.446,272.661 158.5,291.5C 153.5,302.167 148.5,312.833 143.5,323.5C 141.5,322.167 139.833,320.5 138.5,318.5C 152.865,280.762 167.531,243.095 182.5,205.5 Z"/></g>
<g><path style="opacity:0.502" fill="#111215" d="M 183.5,205.5 C 217.958,202.649 243.125,216.649 259,247.5C 271.005,292.499 255.172,322.999 211.5,339C 186.037,344.99 163.37,339.823 143.5,323.5C 148.5,312.833 153.5,302.167 158.5,291.5C 158.461,294.81 159.794,297.476 162.5,299.5C 182.588,315.752 202.421,315.418 222,298.5C 232.742,284.963 234.409,270.296 227,254.5C 216.485,239.331 201.985,232.998 183.5,235.5C 187.626,225.808 191.959,216.142 196.5,206.5C 192.217,205.508 187.884,205.174 183.5,205.5 Z"/></g>
<g><path style="opacity:0.502" fill="#2f2f2f" d="M 160.5,211.5 C 149.693,241.767 138.359,271.767 126.5,301.5C 123.726,295.507 121.726,289.174 120.5,282.5C 129.204,261.421 138.204,240.421 147.5,219.5C 151.63,216.597 155.963,213.93 160.5,211.5 Z"/></g>
<g><path style="opacity:0.502" fill="#121216" d="M 147.5,219.5 C 138.204,240.421 129.204,261.421 120.5,282.5C 117.703,256.43 126.703,235.43 147.5,219.5 Z"/></g>
<g><path style="opacity:0.499" fill="#191b19" d="M 27.5,320.5 C 23.1765,321.164 18.8432,321.831 14.5,322.5C 12.9002,322.449 11.4002,322.116 10,321.5C 5.27581,307.684 1.77581,293.684 -0.5,279.5C -0.5,274.5 -0.5,269.5 -0.5,264.5C 5.89464,260.971 12.5613,257.971 19.5,255.5C 36.6895,248.409 54.0229,241.576 71.5,235C 76.9903,232.608 82.657,231.274 88.5,231C 90.2551,233.93 91.4217,237.097 92,240.5C 93.8836,251.802 95.5503,263.135 97,274.5C 98.2523,283.056 98.419,291.556 97.5,300C 74.8464,307.551 51.8464,313.884 28.5,319C 27.944,319.383 27.6107,319.883 27.5,320.5 Z"/></g>
<g><path style="opacity:0.502" fill="#0a0c0e" d="M 158.5,291.5 C 166.446,272.661 174.78,253.995 183.5,235.5C 201.985,232.998 216.485,239.331 227,254.5C 234.409,270.296 232.742,284.963 222,298.5C 202.421,315.418 182.588,315.752 162.5,299.5C 159.794,297.476 158.461,294.81 158.5,291.5 Z"/></g>
<g><path style="opacity:0.502" fill="#0b0d0e" d="M 67.5,249.5 C 74.5642,251.017 75.8976,254.517 71.5,260C 63.9147,261.421 61.4147,258.588 64,251.5C 65.3024,250.915 66.469,250.249 67.5,249.5 Z"/></g>
<g><path style="opacity:0.502" fill="#020202" d="M 188.5,257.5 C 203.17,257.324 209.337,264.324 207,278.5C 201.308,288.617 193.141,291.117 182.5,286C 173.175,277.38 173.175,268.713 182.5,260C 184.611,259.155 186.611,258.322 188.5,257.5 Z"/></g>
<g><path style="opacity:0.502" fill="#0a0c0e" d="M 32.5,263.5 C 34.7834,263.608 36.7834,264.441 38.5,266C 42.7098,270.042 46.7098,274.208 50.5,278.5C 52.6994,275.282 55.0328,272.116 57.5,269C 58.9078,268.685 60.2411,269.018 61.5,270C 69.3984,277.063 76.3984,284.896 82.5,293.5C 78.9438,296.109 74.9438,297.942 70.5,299C 53.3935,303.921 36.0602,307.754 18.5,310.5C 18.5739,303.632 19.7406,296.965 22,290.5C 23.9743,285.272 25.6409,279.938 27,274.5C 28.3194,270.528 30.1528,266.861 32.5,263.5 Z"/></g>
<g><path style="opacity:0.482" fill="#111115" d="M 348.5,278.5 C 348.5,288.5 348.5,298.5 348.5,308.5C 340.981,310.575 333.315,311.908 325.5,312.5C 319.833,312.5 314.167,312.5 308.5,312.5C 308.185,308.629 308.518,304.962 309.5,301.5C 311.915,302.814 314.748,303.481 318,303.5C 321.251,303.458 324.417,303.125 327.5,302.5C 330.807,301.949 334.14,301.616 337.5,301.5C 336.917,292.845 336.584,284.178 336.5,275.5C 339.518,275.335 342.518,275.502 345.5,276C 346.691,276.698 347.691,277.531 348.5,278.5 Z"/></g>
<g><path style="opacity:0.474" fill="#020202" d="M 308.5,312.5 C 314.167,312.5 319.833,312.5 325.5,312.5C 324.581,325.931 322.914,339.265 320.5,352.5C 314.5,352.5 308.5,352.5 302.5,352.5C 304.039,347.657 304.706,342.657 304.5,337.5C 305.53,328.989 306.864,320.656 308.5,312.5 Z"/></g>
<g><path style="opacity:0.497" fill="#131113" d="M 149.5,340.5 C 160.562,346.502 172.229,350.502 184.5,352.5C 133.5,352.5 82.5,352.5 31.5,352.5C 30.3361,344.522 29.3361,336.522 28.5,328.5C 29.2646,328.077 30.0979,327.743 31,327.5C 70.4078,334.601 109.908,338.935 149.5,340.5 Z"/></g>
<g><path style="opacity:0.502" fill="#131213" d="M 304.5,337.5 C 304.706,342.657 304.039,347.657 302.5,352.5C 268.167,352.5 233.833,352.5 199.5,352.5C 211.584,350.137 223.251,346.137 234.5,340.5C 235.793,341.158 237.293,341.492 239,341.5C 260.805,339.657 282.638,338.324 304.5,337.5 Z"/></g>
</svg>
