<?xml version="1.0" encoding="UTF-8"?>
<!DOCTYPE svg PUBLIC "-//W3C//DTD SVG 1.1//EN" "http://www.w3.org/Graphics/SVG/1.1/DTD/svg11.dtd">
<svg xmlns="http://www.w3.org/2000/svg" version="1.1" width="492px" height="314px" style="shape-rendering:geometricPrecision; text-rendering:geometricPrecision; image-rendering:optimizeQuality; fill-rule:evenodd; clip-rule:evenodd" xmlns:xlink="http://www.w3.org/1999/xlink">
<g><path style="opacity:0.486" fill="#1f1500" d="M 219.5,48.5 C 216.406,49.2134 213.406,50.2134 210.5,51.5C 210.5,46.1667 210.5,40.8333 210.5,35.5C 221.664,36.8436 225.83,32.1769 223,21.5C 218.522,17.0652 213.522,16.3985 208,19.5C 206.688,21.9552 205.522,24.4552 204.5,27C 201.833,27.6667 199.167,27.6667 196.5,27C 196.705,15.1225 202.871,8.62245 215,7.5C 229.55,9.58059 235.55,17.9139 233,32.5C 230.833,38.6667 226.667,42.8333 220.5,45C 219.663,46.0113 219.33,47.1779 219.5,48.5 Z"/></g>
<g><path style="opacity:0.376" fill="#030200" d="M 455.5,123.5 C 422.42,124.406 398.587,139.739 384,169.5C 381.723,175.332 380.056,181.332 379,187.5C 378.5,202.163 378.333,216.83 378.5,231.5C 378.666,240.839 378.5,250.173 378,259.5C 377.535,260.931 376.701,262.097 375.5,263C 347.833,263.333 320.167,263.667 292.5,264C 284.6,268.117 276.6,271.951 268.5,275.5C 265.594,276.787 262.594,277.787 259.5,278.5C 259.5,267.167 259.5,255.833 259.5,244.5C 262.594,245.213 265.594,246.213 268.5,247.5C 276.14,251.32 283.807,255.153 291.5,259C 318.168,259.733 344.834,260.067 371.5,260C 372.416,259.626 373.25,259.126 374,258.5C 374.283,240.487 374.783,222.487 375.5,204.5C 367.913,205.981 360.247,206.648 352.5,206.5C 352.5,182.5 352.5,158.5 352.5,134.5C 349.5,134.5 346.5,134.5 343.5,134.5C 343.5,133.167 343.5,131.833 343.5,130.5C 346.833,130.5 350.167,130.5 353.5,130.5C 357.79,131.111 362.123,131.778 366.5,132.5C 362.893,133.489 359.226,133.823 355.5,133.5C 355.5,156.833 355.5,180.167 355.5,203.5C 361.993,203.473 368.326,202.473 374.5,200.5C 376.693,165.83 393.36,140.997 424.5,126C 427.72,124.648 431.053,123.814 434.5,123.5C 433.91,90.1505 418.91,65.6505 389.5,50C 378.723,44.9725 367.39,42.4725 355.5,42.5C 355.5,68.8333 355.5,95.1667 355.5,121.5C 358.898,121.18 362.232,121.513 365.5,122.5C 361.555,123.491 357.555,123.824 353.5,123.5C 352.668,92.0026 352.168,60.336 352,28.5C 351.5,28 351,27.5 350.5,27C 326.5,26.3333 302.5,26.3333 278.5,27C 278,27.5 277.5,28 277,28.5C 276.333,37.1667 276.333,45.8333 277,54.5C 281.071,61.5883 284.738,68.9216 288,76.5C 302.115,89.285 306.782,104.952 302,123.5C 299.116,131.964 294.283,138.964 287.5,144.5C 286.549,143.081 286.216,141.415 286.5,139.5C 300.732,126.172 303.899,110.505 296,92.5C 293.588,88.0841 290.422,84.2508 286.5,81C 278.167,80.6667 269.833,80.3333 261.5,80C 260.978,79.4387 260.645,78.772 260.5,78C 264.197,70.1053 268.031,62.272 272,54.5C 272.051,44.7337 272.718,35.0671 274,25.5C 274.75,24.8742 275.584,24.3742 276.5,24C 301.833,23.3333 327.167,23.3333 352.5,24C 354.333,24.5 355.5,25.6667 356,27.5C 356.499,31.1516 356.665,34.8183 356.5,38.5C 406.014,44.3468 433.347,72.0135 438.5,121.5C 444.142,120.646 449.809,119.98 455.5,119.5C 455.5,120.833 455.5,122.167 455.5,123.5 Z"/></g>
<g><path style="opacity:0.502" fill="#191919" d="M 353.5,130.5 C 353.5,128.167 353.5,125.833 353.5,123.5C 357.555,123.824 361.555,123.491 365.5,122.5C 362.232,121.513 358.898,121.18 355.5,121.5C 355.5,95.1667 355.5,68.8333 355.5,42.5C 367.39,42.4725 378.723,44.9725 389.5,50C 418.91,65.6505 433.91,90.1505 434.5,123.5C 431.053,123.814 427.72,124.648 424.5,126C 393.36,140.997 376.693,165.83 374.5,200.5C 368.326,202.473 361.993,203.473 355.5,203.5C 355.5,180.167 355.5,156.833 355.5,133.5C 359.226,133.823 362.893,133.489 366.5,132.5C 362.123,131.778 357.79,131.111 353.5,130.5 Z"/></g>
<g><path style="opacity:0.38" fill="#040201" d="M 219.5,48.5 C 219.5,58.5 219.5,68.5 219.5,78.5C 216.402,77.7837 213.402,76.7837 210.5,75.5C 203.703,72.6015 197.036,69.4348 190.5,66C 175.5,65.3333 160.5,65.3333 145.5,66C 141.763,67.2811 139.263,69.7811 138,73.5C 138.161,106.849 137.328,139.849 135.5,172.5C 131.833,172.5 128.167,172.5 124.5,172.5C 124.5,171.5 124.5,170.5 124.5,169.5C 127.833,169.5 131.167,169.5 134.5,169.5C 134.5,143.167 134.5,116.833 134.5,90.5C 92.4707,94.3696 66.3041,116.703 56,157.5C 55.3333,165.833 55.3333,174.167 56,182.5C 88.688,193.346 107.855,215.68 113.5,249.5C 120.396,251.082 127.396,251.749 134.5,251.5C 134.5,228.5 134.5,205.5 134.5,182.5C 130.833,182.5 127.167,182.5 123.5,182.5C 123.5,181.5 123.5,180.5 123.5,179.5C 127.5,179.5 131.5,179.5 135.5,179.5C 139.167,179.5 142.833,179.5 146.5,179.5C 146.67,180.822 146.337,181.989 145.5,183C 142.854,183.497 140.187,183.664 137.5,183.5C 137.667,207.169 137.5,230.836 137,254.5C 136.275,255.059 135.442,255.392 134.5,255.5C 128.087,254.918 121.754,253.918 115.5,252.5C 114.736,261.387 114.57,270.387 115,279.5C 115.707,281.081 116.54,282.581 117.5,284C 132.077,285.151 146.744,285.651 161.5,285.5C 175.5,285.333 189.5,285.167 203.5,285C 208.351,283.131 211.184,279.631 212,274.5C 212.667,266.167 212.667,257.833 212,249.5C 205.855,238.509 200.355,227.176 195.5,215.5C 197.833,215.5 200.167,215.5 202.5,215.5C 210.5,215.5 218.5,215.5 226.5,215.5C 226.828,203.322 226.495,191.322 225.5,179.5C 226.041,170.509 226.374,161.509 226.5,152.5C 226.5,145.5 226.5,138.5 226.5,131.5C 230.5,131.5 234.5,131.5 238.5,131.5C 238.5,127.5 238.5,123.5 238.5,119.5C 242.167,119.5 245.833,119.5 249.5,119.5C 249.5,115.833 249.5,112.167 249.5,108.5C 253.833,108.5 258.167,108.5 262.5,108.5C 262.5,119.167 262.5,129.833 262.5,140.5C 262.5,153.167 262.5,165.833 262.5,178.5C 261.5,178.5 260.5,178.5 259.5,178.5C 259.5,170.5 259.5,162.5 259.5,154.5C 260.482,140.245 260.816,125.912 260.5,111.5C 257.833,111.5 255.167,111.5 252.5,111.5C 252.5,115.167 252.5,118.833 252.5,122.5C 248.5,122.5 244.5,122.5 240.5,122.5C 240.5,126.167 240.5,129.833 240.5,133.5C 236.833,133.5 233.167,133.5 229.5,133.5C 229.5,140.5 229.5,147.5 229.5,154.5C 229.5,174.833 229.5,195.167 229.5,215.5C 230.5,215.5 231.5,215.5 232.5,215.5C 228.151,226.531 222.985,237.198 217,247.5C 215.985,257.809 215.319,268.143 215,278.5C 213.221,282.612 210.388,285.778 206.5,288C 177.562,289.642 148.562,289.975 119.5,289C 113.13,286.768 110.464,282.268 111.5,275.5C 115.809,236.274 100.809,207.441 66.5,189C 56.2382,184.781 45.5716,182.948 34.5,183.5C 34.5,182.167 34.5,180.833 34.5,179.5C 40.4688,179.346 46.3021,180.013 52,181.5C 49.7861,139.744 67.6194,110.244 105.5,93C 114.627,90.0746 123.96,88.2413 133.5,87.5C 133.211,81.7551 133.711,76.0884 135,70.5C 136.833,67.3333 139.333,64.8333 142.5,63C 158.78,61.7266 175.114,61.0599 191.5,61C 197.86,57.8201 204.193,54.6534 210.5,51.5C 213.406,50.2134 216.406,49.2134 219.5,48.5 Z M 210.5,115.5 C 208.108,131.365 213.441,143.699 226.5,152.5C 226.374,161.509 226.041,170.509 225.5,179.5C 217.833,179.5 210.167,179.5 202.5,179.5C 191.294,169.364 187.127,156.698 190,141.5C 192.945,129.727 199.778,121.06 210.5,115.5 Z"/></g>
<g><path style="opacity:0.502" fill="#191919" d="M 214.5,52.5 C 215.823,55.9377 216.49,59.771 216.5,64C 216.333,67.8333 216.167,71.6667 216,75.5C 208.769,71.592 201.603,67.592 194.5,63.5C 201.229,59.8053 207.895,56.1386 214.5,52.5 Z"/></g>
<g><path style="opacity:0.502" fill="#191919" d="M 273.5,57.5 C 274.376,57.3691 275.043,57.7025 275.5,58.5C 278.734,64.2967 281.401,70.2967 283.5,76.5C 277.158,76.6662 270.825,76.4995 264.5,76C 267.912,70.0106 270.912,63.8439 273.5,57.5 Z"/></g>
<g><path style="opacity:0.456" fill="#1f1500" d="M 210.5,75.5 C 213.402,76.7837 216.402,77.7837 219.5,78.5C 219.5,82.5 219.5,86.5 219.5,90.5C 216.5,90.5 213.5,90.5 210.5,90.5C 210.5,85.5 210.5,80.5 210.5,75.5 Z"/></g>
<g><path style="opacity:0.502" fill="#050402" d="M 370.5,86.5 C 372.167,86.5 373.833,86.5 375.5,86.5C 377.116,91.2554 379.449,91.5887 382.5,87.5C 389.134,86.5033 395.8,86.17 402.5,86.5C 402.5,87.5 402.5,88.5 402.5,89.5C 399.5,89.5 396.5,89.5 393.5,89.5C 392.868,94.3049 390.201,97.4716 385.5,99C 375.849,100.499 370.849,96.3328 370.5,86.5 Z"/></g>
<g><path style="opacity:0.492" fill="#191919" d="M 274.5,139.5 C 270.6,140.43 266.6,140.763 262.5,140.5C 262.5,129.833 262.5,119.167 262.5,108.5C 258.167,108.5 253.833,108.5 249.5,108.5C 249.5,112.167 249.5,115.833 249.5,119.5C 245.833,119.5 242.167,119.5 238.5,119.5C 238.5,123.5 238.5,127.5 238.5,131.5C 234.5,131.5 230.5,131.5 226.5,131.5C 226.5,138.5 226.5,145.5 226.5,152.5C 213.441,143.699 208.108,131.365 210.5,115.5C 215.721,112.438 221.388,110.438 227.5,109.5C 226.167,109.167 224.833,108.833 223.5,108.5C 219.793,109.011 216.126,109.678 212.5,110.5C 223.047,91.2361 238.714,85.4028 259.5,93C 277.198,104.263 282.198,119.763 274.5,139.5 Z"/></g>
<g><path style="opacity:0.502" fill="#191919" d="M 135.5,172.5 C 135.5,174.833 135.5,177.167 135.5,179.5C 131.5,179.5 127.5,179.5 123.5,179.5C 123.5,180.5 123.5,181.5 123.5,182.5C 127.167,182.5 130.833,182.5 134.5,182.5C 134.5,205.5 134.5,228.5 134.5,251.5C 127.396,251.749 120.396,251.082 113.5,249.5C 107.855,215.68 88.688,193.346 56,182.5C 55.3333,174.167 55.3333,165.833 56,157.5C 66.3041,116.703 92.4707,94.3696 134.5,90.5C 134.5,116.833 134.5,143.167 134.5,169.5C 131.167,169.5 127.833,169.5 124.5,169.5C 124.5,170.5 124.5,171.5 124.5,172.5C 128.167,172.5 131.833,172.5 135.5,172.5 Z"/></g>
<g><path style="opacity:0.331" fill="#030100" d="M 210.5,115.5 C 199.778,121.06 192.945,129.727 190,141.5C 187.127,156.698 191.294,169.364 202.5,179.5C 202.5,181.167 202.5,182.833 202.5,184.5C 185.912,170.416 181.412,153.083 189,132.5C 193.778,121.888 201.611,114.555 212.5,110.5C 216.126,109.678 219.793,109.011 223.5,108.5C 224.833,108.833 226.167,109.167 227.5,109.5C 221.388,110.438 215.721,112.438 210.5,115.5 Z"/></g>
<g><path style="opacity:0.498" fill="#191919" d="M 259.5,154.5 C 249.468,158.445 239.468,158.445 229.5,154.5C 229.5,147.5 229.5,140.5 229.5,133.5C 233.167,133.5 236.833,133.5 240.5,133.5C 240.5,129.833 240.5,126.167 240.5,122.5C 244.5,122.5 248.5,122.5 252.5,122.5C 252.5,118.833 252.5,115.167 252.5,111.5C 255.167,111.5 257.833,111.5 260.5,111.5C 260.816,125.912 260.482,140.245 259.5,154.5 Z"/></g>
<g><path style="opacity:0.501" fill="#05150d" d="M 455.5,123.5 C 455.5,159.5 455.5,195.5 455.5,231.5C 429.833,231.5 404.167,231.5 378.5,231.5C 378.333,216.83 378.5,202.163 379,187.5C 380.056,181.332 381.723,175.332 384,169.5C 398.587,139.739 422.42,124.406 455.5,123.5 Z"/></g>
<g><path style="opacity:0.502" fill="#050301" d="M 88.5,135.5 C 96.4195,134.784 103.919,135.784 111,138.5C 113.42,136.602 116.254,135.602 119.5,135.5C 119.364,143.106 115.531,147.44 108,148.5C 102.413,147.785 98.5799,144.785 96.5,139.5C 93.9135,138.52 91.2469,138.187 88.5,138.5C 88.5,137.5 88.5,136.5 88.5,135.5 Z"/></g>
<g><path style="opacity:0.497" fill="#170011" d="M 274.5,139.5 C 278.5,139.5 282.5,139.5 286.5,139.5C 286.216,141.415 286.549,143.081 287.5,144.5C 287.5,147.5 287.5,150.5 287.5,153.5C 283.541,154.106 279.541,154.773 275.5,155.5C 279.647,156.167 283.647,156.834 287.5,157.5C 287.5,164.5 287.5,171.5 287.5,178.5C 279.167,178.5 270.833,178.5 262.5,178.5C 262.5,165.833 262.5,153.167 262.5,140.5C 266.6,140.763 270.6,140.43 274.5,139.5 Z"/></g>
<g><path style="opacity:0.384" fill="#030100" d="M 287.5,153.5 C 289.5,153.5 291.5,153.5 293.5,153.5C 293.5,154.833 293.5,156.167 293.5,157.5C 291.5,157.5 289.5,157.5 287.5,157.5C 283.647,156.834 279.647,156.167 275.5,155.5C 279.541,154.773 283.541,154.106 287.5,153.5 Z"/></g>
<g><path style="opacity:0.493" fill="#05160d" d="M 202.5,179.5 C 210.167,179.5 217.833,179.5 225.5,179.5C 226.495,191.322 226.828,203.322 226.5,215.5C 218.5,215.5 210.5,215.5 202.5,215.5C 202.5,205.167 202.5,194.833 202.5,184.5C 202.5,182.833 202.5,181.167 202.5,179.5 Z"/></g>
<g><path style="opacity:0.316" fill="#020100" d="M 315.5,181.5 C 317.346,181.222 318.68,181.889 319.5,183.5C 316.727,190.656 314.06,197.822 311.5,205C 316.5,205.333 321.5,205.667 326.5,206C 327.059,206.725 327.392,207.558 327.5,208.5C 322.279,219.943 316.279,230.943 309.5,241.5C 308.5,241 307.5,240.5 306.5,240C 311.96,230.247 317.294,220.413 322.5,210.5C 317.533,209.671 312.533,209.171 307.5,209C 307.043,208.586 306.709,208.086 306.5,207.5C 309.906,198.948 312.906,190.281 315.5,181.5 Z"/></g>
<g><path style="opacity:0.498" fill="#170011" d="M 34.5,183.5 C 45.5716,182.948 56.2382,184.781 66.5,189C 100.809,207.441 115.809,236.274 111.5,275.5C 107.833,275.5 104.167,275.5 100.5,275.5C 85.2407,275.03 69.9074,273.696 54.5,271.5C 56.6511,266.564 58.6511,261.564 60.5,256.5C 60,256.167 59.5,255.833 59,255.5C 55.2406,261.267 52.7406,267.601 51.5,274.5C 45.8333,274.5 40.1667,274.5 34.5,274.5C 34.5,244.167 34.5,213.833 34.5,183.5 Z"/></g>
<g><path style="opacity:0.502" fill="#191919" d="M 199.5,219.5 C 208.991,218.342 218.658,218.175 228.5,219C 223.299,227.898 218.466,237.065 214,246.5C 209.632,237.088 204.799,228.088 199.5,219.5 Z"/></g>
<g><path style="opacity:0.493" fill="#1f1500" d="M 268.5,247.5 C 265.594,246.213 262.594,245.213 259.5,244.5C 259.817,240.298 259.483,236.298 258.5,232.5C 259.369,230.283 259.702,227.95 259.5,225.5C 262.5,225.5 265.5,225.5 268.5,225.5C 268.5,232.833 268.5,240.167 268.5,247.5 Z"/></g>
<g><path style="opacity:0.502" fill="#191919" d="M 262.5,248.5 C 271.757,252.462 280.757,256.962 289.5,262C 280.711,265.894 272.045,270.061 263.5,274.5C 262.502,265.859 262.169,257.192 262.5,248.5 Z"/></g>
<g><path style="opacity:0.376" fill="#070100" d="M 100.5,275.5 C 89.1618,275.333 77.8284,275.5 66.5,276C 62.5259,282.784 58.6925,289.618 55,296.5C 53.9887,297.337 52.8221,297.67 51.5,297.5C 54.0139,290.138 57.3472,283.138 61.5,276.5C 52.3423,275.833 43.3423,275.167 34.5,274.5C 40.1667,274.5 45.8333,274.5 51.5,274.5C 52.7406,267.601 55.2406,261.267 59,255.5C 59.5,255.833 60,256.167 60.5,256.5C 58.6511,261.564 56.6511,266.564 54.5,271.5C 69.9074,273.696 85.2407,275.03 100.5,275.5 Z"/></g>
<g><path style="opacity:0.493" fill="#1f1800" d="M 258.5,232.5 C 259.483,236.298 259.817,240.298 259.5,244.5C 259.5,255.833 259.5,267.167 259.5,278.5C 262.594,277.787 265.594,276.787 268.5,275.5C 268.5,279.833 268.5,284.167 268.5,288.5C 265.167,288.5 261.833,288.5 258.5,288.5C 258.5,269.833 258.5,251.167 258.5,232.5 Z"/></g>
<g><path style="opacity:0.472" fill="#1f1500" d="M 260.5,294.5 C 267.888,293.718 270.888,296.885 269.5,304C 265.856,308.413 262.023,308.579 258,304.5C 256.861,300.579 257.695,297.246 260.5,294.5 Z"/></g>
</svg>
