<svg width="34" height="27" viewBox="0 0 34 27" fill="none" xmlns="http://www.w3.org/2000/svg">
<path d="M30.3571 4.90909H25.8795C25.6518 4.90909 25.3695 4.76028 25.1494 4.52557L23.1807 1.38528C23.1496 1.33545 23.1148 1.28802 23.0767 1.24338C22.3967 0.441818 21.4777 0 20.4911 0H13.5089C12.5223 0 11.6033 0.441818 10.9233 1.24338C10.8852 1.28802 10.8504 1.33545 10.8193 1.38528L8.85063 4.53017C8.68214 4.7158 8.44536 4.91369 8.19643 4.91369V4.30006C8.19643 3.97456 8.06849 3.6624 7.84077 3.43224C7.61305 3.20209 7.30419 3.07278 6.98214 3.07278H5.16071C4.83867 3.07278 4.52981 3.20209 4.30208 3.43224C4.07436 3.6624 3.94643 3.97456 3.94643 4.30006V4.91369H3.64286C2.67702 4.91471 1.75103 5.30294 1.06808 5.99319C0.385127 6.68345 0.00100451 7.61934 0 8.59551V23.3182C0.00100451 24.2943 0.385127 25.2302 1.06808 25.9205C1.75103 26.6108 2.67702 26.999 3.64286 27H30.3571C31.323 26.999 32.249 26.6108 32.9319 25.9205C33.6149 25.2302 33.999 24.2943 34 23.3182V8.59091C33.999 7.61474 33.6149 6.67885 32.9319 5.98859C32.249 5.29834 31.323 4.91011 30.3571 4.90909ZM17 22.0909C15.559 22.0909 14.1504 21.659 12.9523 20.8499C11.7541 20.0408 10.8203 18.8907 10.2689 17.5452C9.71744 16.1997 9.57316 14.7191 9.85428 13.2907C10.1354 11.8623 10.8293 10.5502 11.8482 9.5204C12.8671 8.49057 14.1653 7.78926 15.5786 7.50513C16.9919 7.221 18.4568 7.36682 19.7881 7.92416C21.1194 8.4815 22.2573 9.42531 23.0578 10.6363C23.8584 11.8472 24.2857 13.2709 24.2857 14.7273C24.2835 16.6795 23.5152 18.5512 22.1493 19.9317C20.7835 21.3121 18.9316 22.0887 17 22.0909Z" fill="#098256"/>
</svg>
