<svg width="34" height="27" viewBox="0 0 34 27" fill="none" xmlns="http://www.w3.org/2000/svg">
<path d="M17 27C16.4751 26.9994 15.9625 26.863 15.5289 26.6084C9.10605 22.8572 6.3249 20.2852 4.79089 18.6771C1.52184 15.2494 -0.0432248 11.7302 0.000907504 7.9193C0.0523951 3.55219 4.12482 0 9.07908 0C12.6816 0 15.1767 1.74586 16.6298 3.19992C16.6758 3.24552 16.7327 3.28208 16.7966 3.30714C16.8604 3.3322 16.9298 3.34516 17 3.34516C17.0702 3.34516 17.1396 3.3322 17.2034 3.30714C17.2673 3.28208 17.3242 3.24552 17.3702 3.19992C18.8233 1.74445 21.3184 0 24.9209 0C29.8752 0 33.9476 3.55219 33.9991 7.92C34.0432 11.7316 32.4765 15.2508 29.2091 18.6778C27.6751 20.2859 24.894 22.8579 18.4711 26.6091C18.0374 26.8634 17.5248 26.9996 17 27Z" fill="#098256"/>
</svg>
