<?xml version="1.0" encoding="UTF-8"?>
<!DOCTYPE svg PUBLIC "-//W3C//DTD SVG 1.1//EN" "http://www.w3.org/Graphics/SVG/1.1/DTD/svg11.dtd">
<svg xmlns="http://www.w3.org/2000/svg" version="1.1" width="412px" height="320px" style="shape-rendering:geometricPrecision; text-rendering:geometricPrecision; image-rendering:optimizeQuality; fill-rule:evenodd; clip-rule:evenodd" xmlns:xlink="http://www.w3.org/1999/xlink">
<g><path style="opacity:0.129" fill="#230a1c" d="M 14.5,10.5 C 20.7259,10.5303 25.8926,12.8637 30,17.5C 30.6667,18.5 30.6667,19.5 30,20.5C 23.045,12.9123 15.045,11.579 6,16.5C 4.17391,15.9896 4.00724,15.1562 5.5,14C 8.45884,12.3957 11.4588,11.2291 14.5,10.5 Z"/></g>
<g><path style="opacity:0.176" fill="#1e0819" d="M 11.5,16.5 C 17.5418,15.3742 22.5418,17.0408 26.5,21.5C 25.2261,23.85 23.8927,23.6833 22.5,21C 18.1024,17.9053 13.6024,17.7386 9,20.5C 8.5,20.1667 8,19.8333 7.5,19.5C 8.9014,18.4793 10.2347,17.4793 11.5,16.5 Z"/></g>
<g><path style="opacity:0.5" fill="#18151e" d="M 27.5,48.5 C 25.2843,49.2026 23.451,50.5359 22,52.5C 22.7083,59.42 20.0417,64.42 14,67.5C 13.8333,67.1667 13.6667,66.8333 13.5,66.5C 15.8031,64.5371 17.8031,62.3704 19.5,60C 19.6448,58.7741 19.9781,57.6074 20.5,56.5C 19.635,55.4173 18.635,55.2506 17.5,56C 11.6239,61.4188 5.62387,66.5854 -0.5,71.5C -0.5,59.8333 -0.5,48.1667 -0.5,36.5C 3.95902,33.213 8.29235,29.713 12.5,26C 10.8753,25.1475 10.5419,24.1475 11.5,23C 15.3877,20.7775 18.8877,21.2775 22,24.5C 22.4561,25.7441 21.9561,26.5774 20.5,27C 23.6667,30.8333 26.8333,34.6667 30,38.5C 31.1387,42.4211 30.3054,45.7544 27.5,48.5 Z"/></g>
<g><path style="opacity:0.459" fill="#030105" d="M 73.5,23.5 C 84.8444,20.8081 90.1777,25.1414 89.5,36.5C 101.416,33.7526 105.083,38.0859 100.5,49.5C 104.314,52.1867 105.48,55.8533 104,60.5C 99.1613,65.7691 94.4946,65.7691 90,60.5C 84.5735,64.8163 79.5735,64.4829 75,59.5C 55.1866,67.6871 49.1866,61.6871 57,41.5C 59.8333,37.3333 63.3333,33.8333 67.5,31C 66.376,30.7508 65.376,30.2508 64.5,29.5C 67.0651,26.768 70.0651,24.768 73.5,23.5 Z M 76.5,26.5 C 79.3404,25.0829 82.007,25.4162 84.5,27.5C 81.8728,26.9084 79.2062,26.5751 76.5,26.5 Z"/></g>
<g><path style="opacity:0.45" fill="#030205" d="M 391.5,52.5 C 390.5,52.5 389.5,52.5 388.5,52.5C 388.5,47.5 388.5,42.5 388.5,37.5C 378.833,37.5 369.167,37.5 359.5,37.5C 359.768,40.1194 359.435,42.6194 358.5,45C 342.167,45.6667 325.833,45.6667 309.5,45C 303.388,41.7535 301.888,36.9201 305,30.5C 306.255,29.7894 307.421,28.956 308.5,28C 325.167,27.3333 341.833,27.3333 358.5,28C 359.435,30.3806 359.768,32.8806 359.5,35.5C 370.167,35.5 380.833,35.5 391.5,35.5C 391.5,41.1667 391.5,46.8333 391.5,52.5 Z"/></g>
<g><path style="opacity:0.502" fill="#210c1e" d="M 12.5,32.5 C 20.2008,32.3622 23.3674,36.0289 22,43.5C 17.3333,50.1667 12.6667,50.1667 8,43.5C 6.39258,38.4383 7.89258,34.7716 12.5,32.5 Z"/></g>
<g><path style="opacity:0.116" fill="#20081c" d="M 34.5,31.5 C 37.4521,32.3589 39.2854,34.3589 40,37.5C 40.6667,40.5 40.6667,43.5 40,46.5C 39.0943,48.612 37.5943,49.4453 35.5,49C 37.1953,46.7763 38.1953,44.2763 38.5,41.5C 37.7015,37.9102 36.3682,34.5768 34.5,31.5 Z"/></g>
<g><path style="opacity:0.163" fill="#20071b" d="M 37.5,27.5 C 43.4088,30.1393 46.4088,34.806 46.5,41.5C 45.991,46.0386 44.3243,50.0386 41.5,53.5C 41.1667,53 40.8333,52.5 40.5,52C 45.1125,43.0675 44.1125,34.9008 37.5,27.5 Z"/></g>
<g><path style="opacity:0.18" fill="#1c0519" d="M 30.5,35.5 C 33.0495,35.5608 34.5495,36.8941 35,39.5C 35.3336,41.8473 35.167,44.1806 34.5,46.5C 33.325,46.719 32.325,46.3857 31.5,45.5C 32.9059,41.9498 32.5725,38.6165 30.5,35.5 Z"/></g>
<g><path style="opacity:0.463" fill="#210e1d" d="M 229.5,45.5 C 233.009,45.8079 234.676,47.8079 234.5,51.5C 236.5,51.5 238.5,51.5 240.5,51.5C 241.026,54.8078 239.693,56.9745 236.5,58C 239.805,62.4571 238.805,64.4571 233.5,64C 232.667,63.1667 231.833,62.3333 231,61.5C 229.535,63.915 227.368,64.915 224.5,64.5C 224.318,62.4086 224.652,60.4086 225.5,58.5C 219.559,53.378 220.559,51.0447 228.5,51.5C 228.517,49.4352 228.85,47.4352 229.5,45.5 Z"/></g>
<g><path style="opacity:0.498" fill="#272315" d="M 27.5,48.5 C 29.9193,49.2567 31.2526,50.9233 31.5,53.5C 26.9121,67.1454 29.5787,79.1454 39.5,89.5C 51.8332,87.3888 64.1666,85.3888 76.5,83.5C 77.0854,95.5941 75.252,107.261 71,118.5C 68.8663,121.153 66.3663,123.153 63.5,124.5C 53.0299,125.995 42.5299,127.328 32,128.5C 23.7802,128.22 16.7802,125.22 11,119.5C 6.93592,112.943 3.10258,106.277 -0.5,99.5C -0.5,90.1667 -0.5,80.8333 -0.5,71.5C 5.62387,66.5854 11.6239,61.4188 17.5,56C 18.635,55.2506 19.635,55.4173 20.5,56.5C 19.9781,57.6074 19.6448,58.7741 19.5,60C 17.8031,62.3704 15.8031,64.5371 13.5,66.5C 13.6667,66.8333 13.8333,67.1667 14,67.5C 20.0417,64.42 22.7083,59.42 22,52.5C 23.451,50.5359 25.2843,49.2026 27.5,48.5 Z"/></g>
<g><path style="opacity:0.496" fill="#0e0c19" d="M 411.5,35.5 C 411.5,58.8333 411.5,82.1667 411.5,105.5C 408.5,105.5 405.5,105.5 402.5,105.5C 401.833,105.5 401.167,105.5 400.5,105.5C 396.167,105.5 391.833,105.5 387.5,105.5C 387.5,101.5 387.5,97.5 387.5,93.5C 378.5,93.5 369.5,93.5 360.5,93.5C 360.768,90.8806 360.435,88.3806 359.5,86C 351.167,85.3333 342.833,85.3333 334.5,86C 329.715,89.0594 324.715,91.5594 319.5,93.5C 319.167,79.4841 319.501,65.4841 320.5,51.5C 324.668,53.7497 328.668,56.2497 332.5,59C 341.827,59.4998 351.161,59.6665 360.5,59.5C 360.5,57.1667 360.5,54.8333 360.5,52.5C 369.833,52.5 379.167,52.5 388.5,52.5C 389.5,52.5 390.5,52.5 391.5,52.5C 393.857,52.6633 396.19,52.4966 398.5,52C 401.952,48.2664 404.785,44.0997 407,39.5C 408.307,37.8082 409.807,36.4749 411.5,35.5 Z"/></g>
<g><path style="opacity:0.461" fill="#210d1d" d="M 214.5,57.5 C 219.159,57.0146 220.492,58.848 218.5,63C 226.467,65.7014 226.467,68.2014 218.5,70.5C 220.03,73.2421 219.364,75.2421 216.5,76.5C 214.795,75.455 213.295,74.1217 212,72.5C 209.959,73.4231 207.792,73.7564 205.5,73.5C 205.549,70.9009 206.549,68.7342 208.5,67C 203.976,61.5476 205.143,59.7142 212,61.5C 213.095,60.3066 213.928,58.9733 214.5,57.5 Z"/></g>
<g><path style="opacity:0.472" fill="#050306" d="M 114.5,59.5 C 114.333,66.6859 111.667,72.6859 106.5,77.5C 104.827,76.657 103.66,75.3237 103,73.5C 101.217,64.1222 105.05,59.4555 114.5,59.5 Z"/></g>
<g><path style="opacity:0.479" fill="#272215" d="M 114.5,59.5 C 121.421,61.6706 123.921,66.3373 122,73.5C 119.081,79.0248 114.581,80.8581 108.5,79C 107.584,78.7216 106.918,78.2216 106.5,77.5C 111.667,72.6859 114.333,66.6859 114.5,59.5 Z"/></g>
<g><path style="opacity:0.455" fill="#0e2200" d="M 238.5,95.5 C 238.167,95.5 237.833,95.5 237.5,95.5C 231.833,95.5 226.167,95.5 220.5,95.5C 220.167,95.5 219.833,95.5 219.5,95.5C 213.283,88.2496 205.283,84.7496 195.5,85C 197.97,83.886 200.636,83.386 203.5,83.5C 207.97,83.6247 212.303,84.1247 216.5,85C 211.092,79.2978 204.426,76.2978 196.5,76C 206.595,73.9831 215.595,76.1498 223.5,82.5C 223.5,83.8333 223.5,85.1667 223.5,86.5C 224.833,86.5 226.167,86.5 227.5,86.5C 228.206,87.5573 228.539,87.2239 228.5,85.5C 228.56,84.9569 228.893,84.6236 229.5,84.5C 231.173,86.0863 233.173,86.7529 235.5,86.5C 235.753,84.1727 235.086,82.1727 233.5,80.5C 235.737,79.8679 237.403,78.5346 238.5,76.5C 237.68,74.8888 236.346,74.2222 234.5,74.5C 242.757,65.3412 253.09,61.8412 265.5,64C 254.901,64.2139 246.734,68.7139 241,77.5C 240.333,78.5 240.333,79.5 241,80.5C 248.469,75.7906 256.635,74.2906 265.5,76C 252.182,76.6478 243.182,83.1478 238.5,95.5 Z"/></g>
<g><path style="opacity:0.466" fill="#210e1d" d="M 234.5,74.5 C 236.346,74.2222 237.68,74.8888 238.5,76.5C 237.403,78.5346 235.737,79.8679 233.5,80.5C 235.086,82.1727 235.753,84.1727 235.5,86.5C 233.173,86.7529 231.173,86.0863 229.5,84.5C 228.893,84.6236 228.56,84.9569 228.5,85.5C 227.833,85.5 227.5,85.8333 227.5,86.5C 226.167,86.5 224.833,86.5 223.5,86.5C 223.5,85.1667 223.5,83.8333 223.5,82.5C 222.611,80.264 221.278,78.264 219.5,76.5C 219.709,75.914 220.043,75.414 220.5,75C 222.473,74.5045 224.473,74.3379 226.5,74.5C 226.34,72.8008 226.506,71.1341 227,69.5C 227.561,68.9781 228.228,68.6448 229,68.5C 231.079,70.3665 232.913,72.3665 234.5,74.5 Z"/></g>
<g><path style="opacity:0.5" fill="#220c1e" d="M 76.5,83.5 C 91.5037,83.3334 106.504,83.5001 121.5,84C 129.996,84.7663 137.329,87.933 143.5,93.5C 151.943,103.557 156.61,115.224 157.5,128.5C 157.5,129.5 157.5,130.5 157.5,131.5C 125.833,131.5 94.1667,131.5 62.5,131.5C 62.6646,129.173 63.3313,127.007 64.5,125C 64.2716,124.601 63.9382,124.435 63.5,124.5C 66.3663,123.153 68.8663,121.153 71,118.5C 75.252,107.261 77.0854,95.5941 76.5,83.5 Z"/></g>
<g><path style="opacity:0.497" fill="#272315" d="M 143.5,93.5 C 155.439,100.262 167.273,107.262 179,114.5C 186.106,109.732 192.939,104.565 199.5,99C 205.932,96.4802 212.599,95.3136 219.5,95.5C 219.833,95.5 220.167,95.5 220.5,95.5C 220.217,96.2891 219.717,96.9558 219,97.5C 217.506,96.2528 216.006,96.2528 214.5,97.5C 220.738,99.2359 224.905,103.236 227,109.5C 228.167,113.667 226.667,115.167 222.5,114C 220.943,111.704 219.276,109.538 217.5,107.5C 215.979,108.937 214.145,109.604 212,109.5C 204.868,108.153 204.701,108.82 211.5,111.5C 213.568,111.033 215.568,110.366 217.5,109.5C 218.95,110.85 219.617,112.516 219.5,114.5C 218.113,116.489 218.447,118.322 220.5,120C 217.523,123.947 218.189,127.114 222.5,129.5C 212.442,138.374 201.775,146.54 190.5,154C 180.622,157.299 171.289,156.132 162.5,150.5C 161.393,146.189 160.393,141.856 159.5,137.5C 159.142,134.311 158.475,131.311 157.5,128.5C 156.61,115.224 151.943,103.557 143.5,93.5 Z"/></g>
<g><path style="opacity:0.493" fill="#262215" d="M 237.5,95.5 C 237.833,95.5 238.167,95.5 238.5,95.5C 242.229,98.374 242.229,101.207 238.5,104C 241.865,106.338 242.198,109.005 239.5,112C 241.973,114.752 241.973,117.586 239.5,120.5C 242.304,125.231 240.971,128.231 235.5,129.5C 231.273,127.72 226.606,126.886 221.5,127C 219.078,125.112 219.078,123.112 221.5,121C 242.833,120.333 242.833,119.667 221.5,119C 219.963,117.89 219.297,116.39 219.5,114.5C 221.126,114.938 222.793,115.272 224.5,115.5C 228.416,113.345 232.75,112.179 237.5,112C 234.833,111.667 232.167,111.333 229.5,111C 228.415,108.828 227.081,106.828 225.5,105C 229.5,104.667 233.5,104.333 237.5,104C 230.636,104.774 224.97,102.774 220.5,98C 226.175,96.8787 231.842,96.0453 237.5,95.5 Z"/></g>
<g><path style="opacity:0.502" fill="#0f0d0b" d="M 220.5,95.5 C 226.167,95.5 231.833,95.5 237.5,95.5C 231.842,96.0453 226.175,96.8787 220.5,98C 224.97,102.774 230.636,104.774 237.5,104C 233.5,104.333 229.5,104.667 225.5,105C 227.081,106.828 228.415,108.828 229.5,111C 232.167,111.333 234.833,111.667 237.5,112C 232.75,112.179 228.416,113.345 224.5,115.5C 222.793,115.272 221.126,114.938 219.5,114.5C 219.617,112.516 218.95,110.85 217.5,109.5C 215.568,110.366 213.568,111.033 211.5,111.5C 204.701,108.82 204.868,108.153 212,109.5C 214.145,109.604 215.979,108.937 217.5,107.5C 219.276,109.538 220.943,111.704 222.5,114C 226.667,115.167 228.167,113.667 227,109.5C 224.905,103.236 220.738,99.2359 214.5,97.5C 216.006,96.2528 217.506,96.2528 219,97.5C 219.717,96.9558 220.217,96.2891 220.5,95.5 Z"/></g>
<g><path style="opacity:0.227" fill="#010004" d="M 400.5,105.5 C 401.167,105.5 401.833,105.5 402.5,105.5C 405.299,119.001 408.299,132.334 411.5,145.5C 411.5,149.167 411.5,152.833 411.5,156.5C 408.951,145.311 406.451,133.978 404,122.5C 405.874,163.664 408.374,204.664 411.5,245.5C 411.5,256.833 411.5,268.167 411.5,279.5C 408.049,225.634 404.382,171.634 400.5,117.5C 387.729,176.455 375.062,235.455 362.5,294.5C 378.82,295.499 395.153,295.833 411.5,295.5C 411.5,296.167 411.5,296.833 411.5,297.5C 394.833,297.5 378.167,297.5 361.5,297.5C 360.553,304.901 359.22,312.234 357.5,319.5C 356.833,319.5 356.167,319.5 355.5,319.5C 369.875,248.006 384.875,176.672 400.5,105.5 Z"/></g>
<g><path style="opacity:0.479" fill="#0b0a0a" d="M 219.5,114.5 C 219.297,116.39 219.963,117.89 221.5,119C 242.833,119.667 242.833,120.333 221.5,121C 219.078,123.112 219.078,125.112 221.5,127C 226.606,126.886 231.273,127.72 235.5,129.5C 231.167,129.5 226.833,129.5 222.5,129.5C 218.189,127.114 217.523,123.947 220.5,120C 218.447,118.322 218.113,116.489 219.5,114.5 Z"/></g>
<g><path style="opacity:0.5" fill="#0e0c1a" d="M 157.5,128.5 C 158.475,131.311 159.142,134.311 159.5,137.5C 148.5,137.5 137.5,137.5 126.5,137.5C 126.326,140.874 125.826,144.207 125,147.5C 124.612,144.151 124.779,140.817 125.5,137.5C 123.712,137.215 122.045,137.548 120.5,138.5C 119.833,141.833 119.167,145.167 118.5,148.5C 123.682,149.776 123.682,150.443 118.5,150.5C 116.167,166.494 113.834,182.494 111.5,198.5C 110.387,214.219 103.387,226.719 90.5,236C 67.8576,245.434 45.0243,254.268 22,262.5C 20.124,261.381 19.2907,259.714 19.5,257.5C 13.3951,239.649 7.06176,221.983 0.5,204.5C 0.5,203.833 0.166667,203.5 -0.5,203.5C -0.5,201.833 -0.5,200.167 -0.5,198.5C 15.7801,195.278 31.9468,191.611 48,187.5C 52.5253,168.757 57.3587,150.09 62.5,131.5C 94.1667,131.5 125.833,131.5 157.5,131.5C 157.5,130.5 157.5,129.5 157.5,128.5 Z"/></g>
<g><path style="opacity:0.5" fill="#0e0c1a" d="M 159.5,137.5 C 160.393,141.856 161.393,146.189 162.5,150.5C 171.926,194.005 180.592,237.505 188.5,281C 187.207,281.49 185.873,281.657 184.5,281.5C 165.91,280.514 147.243,280.18 128.5,280.5C 124.5,280.5 120.5,280.5 116.5,280.5C 114.833,253.166 113.167,225.833 111.5,198.5C 113.834,182.494 116.167,166.494 118.5,150.5C 123.682,150.443 123.682,149.776 118.5,148.5C 119.167,145.167 119.833,141.833 120.5,138.5C 122.045,137.548 123.712,137.215 125.5,137.5C 124.779,140.817 124.612,144.151 125,147.5C 125.826,144.207 126.326,140.874 126.5,137.5C 137.5,137.5 148.5,137.5 159.5,137.5 Z"/></g>
<g><path style="opacity:0.484" fill="#0e2300" d="M 329.5,222.5 C 298.402,221.172 267.402,221.172 236.5,222.5C 216.509,224.325 215.176,221.492 232.5,214C 236.703,212.431 241.036,211.598 245.5,211.5C 245.5,212.5 245.5,213.5 245.5,214.5C 246.5,214.5 247.5,214.5 248.5,214.5C 248.238,215.978 248.571,217.311 249.5,218.5C 251.398,216.532 253.731,215.198 256.5,214.5C 254.883,212.518 254.05,210.518 254,208.5C 251.922,209.52 250.255,208.853 249,206.5C 247.961,207.244 247.461,208.244 247.5,209.5C 239.266,206.716 231.266,203.383 223.5,199.5C 224.376,198.749 225.376,198.249 226.5,198C 236.27,197.05 245.937,197.55 255.5,199.5C 257.417,201.745 259.75,202.078 262.5,200.5C 266.521,208.716 268.855,208.383 269.5,199.5C 277.118,198.612 277.452,196.278 270.5,192.5C 271.348,190.591 271.682,188.591 271.5,186.5C 269.142,186.253 267.142,186.919 265.5,188.5C 260.884,180.605 257.384,172.272 255,163.5C 263.619,168.452 270.619,175.119 276,183.5C 276.772,174.744 278.938,166.41 282.5,158.5C 285.518,166.608 287.685,174.941 289,183.5C 294.381,175.119 301.381,168.452 310,163.5C 306.43,173.318 302.264,182.985 297.5,192.5C 306.938,185.827 317.771,181.494 330,179.5C 330.163,181.387 329.329,182.887 327.5,184C 321.5,189 315.5,194 309.5,199C 315.039,198.017 320.706,197.517 326.5,197.5C 331.657,197.292 336.657,197.958 341.5,199.5C 333.423,202.911 325.423,206.411 317.5,210C 327.602,211.882 336.935,215.715 345.5,221.5C 340.208,222.495 334.875,222.828 329.5,222.5 Z"/></g>
<g><path style="opacity:0.471" fill="#0e2200" d="M 258.5,187.5 C 257.186,190.41 257.853,192.91 260.5,195C 258.677,195.997 257.01,197.164 255.5,198.5C 247.925,193.265 240.925,187.265 234.5,180.5C 242.932,180.616 250.932,182.949 258.5,187.5 Z"/></g>
<g><path style="opacity:0.496" fill="#210f1d" d="M 255.5,199.5 C 255.5,199.167 255.5,198.833 255.5,198.5C 257.01,197.164 258.677,195.997 260.5,195C 257.853,192.91 257.186,190.41 258.5,187.5C 260.827,187.247 262.827,187.914 264.5,189.5C 265.107,189.376 265.44,189.043 265.5,188.5C 267.142,186.919 269.142,186.253 271.5,186.5C 271.682,188.591 271.348,190.591 270.5,192.5C 277.452,196.278 277.118,198.612 269.5,199.5C 268.855,208.383 266.521,208.716 262.5,200.5C 259.75,202.078 257.417,201.745 255.5,199.5 Z"/></g>
<g><path style="opacity:0.502" fill="#21101d" d="M 305.5,201.5 C 307.564,201.762 308.897,202.929 309.5,205C 310.793,205.49 312.127,205.657 313.5,205.5C 313.52,207.143 312.853,208.476 311.5,209.5C 312.309,211.071 312.643,212.738 312.5,214.5C 310.61,214.703 309.11,214.037 308,212.5C 304.425,216.804 303.258,216.304 304.5,211C 298.914,208.02 299.247,206.52 305.5,206.5C 305.5,204.833 305.5,203.167 305.5,201.5 Z"/></g>
<g><path style="opacity:0.499" fill="#272316" d="M -0.5,204.5 C -0.166667,204.5 0.166667,204.5 0.5,204.5C 7.06176,221.983 13.3951,239.649 19.5,257.5C 13.7265,259.221 8.0598,261.221 2.5,263.5C 1.67722,261.013 0.67722,258.679 -0.5,256.5C -0.5,239.167 -0.5,221.833 -0.5,204.5 Z"/></g>
<g><path style="opacity:0.502" fill="#200f1b" d="M 245.5,211.5 C 246.5,211.167 247.167,210.5 247.5,209.5C 247.461,208.244 247.961,207.244 249,206.5C 250.255,208.853 251.922,209.52 254,208.5C 254.05,210.518 254.883,212.518 256.5,214.5C 253.731,215.198 251.398,216.532 249.5,218.5C 248.571,217.311 248.238,215.978 248.5,214.5C 247.5,214.5 246.5,214.5 245.5,214.5C 245.5,213.5 245.5,212.5 245.5,211.5 Z"/></g>
<g><path style="opacity:0.497" fill="#210c1d" d="M 329.5,222.5 C 329.5,233.5 329.5,244.5 329.5,255.5C 298.5,255.5 267.5,255.5 236.5,255.5C 236.5,244.5 236.5,233.5 236.5,222.5C 267.402,221.172 298.402,221.172 329.5,222.5 Z"/></g>
<g><path style="opacity:0.483" fill="#262300" d="M 236.5,255.5 C 267.5,255.5 298.5,255.5 329.5,255.5C 332.167,255.5 334.833,255.5 337.5,255.5C 337.5,258.167 337.5,260.833 337.5,263.5C 318.833,263.5 300.167,263.5 281.5,263.5C 280.833,262.167 280.167,262.167 279.5,263.5C 260.833,263.5 242.167,263.5 223.5,263.5C 223.5,260.833 223.5,258.167 223.5,255.5C 227.833,255.5 232.167,255.5 236.5,255.5 Z"/></g>
<g><path style="opacity:0.221" fill="#010002" d="M 281.5,263.5 C 281.5,282.167 281.5,300.833 281.5,319.5C 280.833,319.5 280.167,319.5 279.5,319.5C 279.5,300.833 279.5,282.167 279.5,263.5C 280.167,262.167 280.833,262.167 281.5,263.5 Z"/></g>
<g><path style="opacity:0.41" fill="#09070b" d="M -0.5,256.5 C 0.67722,258.679 1.67722,261.013 2.5,263.5C 2.12964,268.422 1.12964,273.089 -0.5,277.5C -0.5,270.5 -0.5,263.5 -0.5,256.5 Z"/></g>
<g><path style="opacity:0.499" fill="#272315" d="M 128.5,280.5 C 147.243,280.18 165.91,280.514 184.5,281.5C 185.222,287.218 186.222,292.885 187.5,298.5C 168.833,298.5 150.167,298.5 131.5,298.5C 130.284,292.539 129.284,286.539 128.5,280.5 Z"/></g>
<g><path style="opacity:0.462" fill="#050306" d="M 131.5,298.5 C 150.167,298.5 168.833,298.5 187.5,298.5C 195.677,302.837 203.177,308.171 210,314.5C 210.49,315.793 210.657,317.127 210.5,318.5C 185.831,318.667 161.164,318.5 136.5,318C 136,317.5 135.5,317 135,316.5C 133.939,310.464 132.772,304.464 131.5,298.5 Z"/></g>
</svg>
