<?xml version="1.0" encoding="UTF-8"?>
<!DOCTYPE svg PUBLIC "-//W3C//DTD SVG 1.1//EN" "http://www.w3.org/Graphics/SVG/1.1/DTD/svg11.dtd">
<svg xmlns="http://www.w3.org/2000/svg" version="1.1" width="217px" height="417px" style="shape-rendering:geometricPrecision; text-rendering:geometricPrecision; image-rendering:optimizeQuality; fill-rule:evenodd; clip-rule:evenodd" xmlns:xlink="http://www.w3.org/1999/xlink">
<g><path style="opacity:0.492" fill="#190b0b" d="M 188.5,-0.5 C 191.5,-0.5 194.5,-0.5 197.5,-0.5C 207.034,3.22677 210.868,10.2268 209,20.5C 207.454,26.3041 205.62,31.9707 203.5,37.5C 192.95,32.647 182.284,27.9804 171.5,23.5C 174.128,16.9099 177.295,10.5765 181,4.5C 183.363,2.47996 185.863,0.813297 188.5,-0.5 Z"/></g>
<g><path style="opacity:0.496" fill="#1c1714" d="M 171.5,23.5 C 182.284,27.9804 192.95,32.647 203.5,37.5C 203.737,38.791 203.404,39.791 202.5,40.5C 188.792,43.3439 175.125,46.3439 161.5,49.5C 164.233,40.6388 167.566,31.9721 171.5,23.5 Z"/></g>
<g><path style="opacity:0.495" fill="#151517" d="M 202.5,40.5 C 201.253,49.148 199.253,57.4813 196.5,65.5C 196.083,64.8761 195.416,64.5427 194.5,64.5C 180.298,67.6696 166.298,71.3362 152.5,75.5C 154.727,66.4817 157.727,57.815 161.5,49.5C 175.125,46.3439 188.792,43.3439 202.5,40.5 Z"/></g>
<g><path style="opacity:0.497" fill="#0f131c" d="M 196.5,65.5 C 193.848,77.7437 191.514,90.077 189.5,102.5C 188.532,100.393 188.198,98.0593 188.5,95.5C 175.446,98.0162 162.446,100.85 149.5,104C 146.834,104.666 144.5,105.833 142.5,107.5C 145.254,96.5754 148.587,85.9087 152.5,75.5C 166.298,71.3362 180.298,67.6696 194.5,64.5C 195.416,64.5427 196.083,64.8761 196.5,65.5 Z"/></g>
<g><path style="opacity:0.479" fill="#040404" d="M 119.5,100.5 C 115.76,105.569 110.76,108.569 104.5,109.5C 104.209,114.029 103.375,118.362 102,122.5C 106.34,126.009 110.507,129.676 114.5,133.5C 113.855,134.646 113.022,135.646 112,136.5C 109.521,133.331 106.354,132.164 102.5,133C 101.446,134.388 101.28,135.888 102,137.5C 107.256,139.915 110.423,143.915 111.5,149.5C 104.676,144.255 97.6761,139.255 90.5,134.5C 86.2079,131.543 82.2079,128.21 78.5,124.5C 79.4778,124.189 80.1445,123.522 80.5,122.5C 74.0487,112.305 76.0487,104.305 86.5,98.5C 83.7994,84.5668 89.466,76.5668 103.5,74.5C 118.4,77.3819 123.733,86.0486 119.5,100.5 Z"/></g>
<g><path style="opacity:0.495" fill="#1a0c0c" d="M -0.5,81.5 C 6.47233,83.9893 13.139,86.9893 19.5,90.5C 18.1667,90.5 16.8333,90.5 15.5,90.5C 11.1985,100.483 6.86514,110.483 2.5,120.5C 1.39105,120.443 0.391047,120.11 -0.5,119.5C -0.5,106.833 -0.5,94.1667 -0.5,81.5 Z"/></g>
<g><path style="opacity:0.496" fill="#1c1714" d="M 19.5,90.5 C 27.2224,93.9486 34.5557,97.9486 41.5,102.5C 30.8469,108.829 19.8469,114.662 8.5,120C 6.36467,120.87 5.36467,122.037 5.5,123.5C 4.16667,122.833 3.16667,121.833 2.5,120.5C 6.86514,110.483 11.1985,100.483 15.5,90.5C 16.8333,90.5 18.1667,90.5 19.5,90.5 Z"/></g>
<g><path style="opacity:0.5" fill="#180b0b" d="M 119.5,100.5 C 126.186,106.516 133.186,112.182 140.5,117.5C 145.202,126.38 144.202,134.547 137.5,142C 141.641,147.776 146.141,153.276 151,158.5C 151.495,160.473 151.662,162.473 151.5,164.5C 147.078,167.872 142.078,170.205 136.5,171.5C 128.161,164.16 119.828,156.827 111.5,149.5C 110.423,143.915 107.256,139.915 102,137.5C 101.28,135.888 101.446,134.388 102.5,133C 106.354,132.164 109.521,133.331 112,136.5C 113.022,135.646 113.855,134.646 114.5,133.5C 110.507,129.676 106.34,126.009 102,122.5C 103.375,118.362 104.209,114.029 104.5,109.5C 110.76,108.569 115.76,105.569 119.5,100.5 Z"/></g>
<g><path style="opacity:0.493" fill="#151517" d="M 41.5,102.5 C 50.1205,106.142 58.1205,110.809 65.5,116.5C 52.6754,123.078 39.6754,129.412 26.5,135.5C 25.7025,135.957 25.3691,136.624 25.5,137.5C 18.5516,133.215 11.8849,128.549 5.5,123.5C 5.36467,122.037 6.36467,120.87 8.5,120C 19.8469,114.662 30.8469,108.829 41.5,102.5 Z"/></g>
<g><path style="opacity:0.499" fill="#0f131b" d="M 65.5,116.5 C 69.8333,119.167 74.1667,121.833 78.5,124.5C 82.2079,128.21 86.2079,131.543 90.5,134.5C 78.4509,141.134 66.1175,147.301 53.5,153C 51.9069,153.949 50.5736,155.115 49.5,156.5C 41.4609,150.156 33.4609,143.822 25.5,137.5C 25.3691,136.624 25.7025,135.957 26.5,135.5C 39.6754,129.412 52.6754,123.078 65.5,116.5 Z"/></g>
<g><path style="opacity:0.501" fill="#0f131f" d="M 189.5,102.5 C 185.851,120.042 182.851,137.708 180.5,155.5C 174.824,155.334 169.157,155.501 163.5,156C 168.369,161.037 173.369,165.87 178.5,170.5C 179.5,170.833 180.167,171.5 180.5,172.5C 170.963,171.233 161.63,169.066 152.5,166C 151.944,165.617 151.611,165.117 151.5,164.5C 151.662,162.473 151.495,160.473 151,158.5C 146.141,153.276 141.641,147.776 137.5,142C 144.202,134.547 145.202,126.38 140.5,117.5C 141.546,114.272 142.212,110.939 142.5,107.5C 144.5,105.833 146.834,104.666 149.5,104C 162.446,100.85 175.446,98.0162 188.5,95.5C 188.198,98.0593 188.532,100.393 189.5,102.5 Z"/></g>
<g><path style="opacity:0.501" fill="#0f131f" d="M 90.5,134.5 C 97.6761,139.255 104.676,144.255 111.5,149.5C 119.828,156.827 128.161,164.16 136.5,171.5C 137.29,172.794 138.29,173.961 139.5,175C 126.323,182.089 112.99,188.922 99.5,195.5C 98.7025,195.957 98.3691,196.624 98.5,197.5C 81.9817,184.071 65.6484,170.405 49.5,156.5C 50.5736,155.115 51.9069,153.949 53.5,153C 66.1175,147.301 78.4509,141.134 90.5,134.5 Z"/></g>
<g><path style="opacity:0.454" fill="#040405" d="M 180.5,155.5 C 179.752,160.485 179.085,165.485 178.5,170.5C 173.369,165.87 168.369,161.037 163.5,156C 169.157,155.501 174.824,155.334 180.5,155.5 Z"/></g>
<g><path style="opacity:0.5" fill="#14151c" d="M 151.5,164.5 C 151.611,165.117 151.944,165.617 152.5,166C 161.63,169.066 170.963,171.233 180.5,172.5C 192.182,184.509 200.848,198.509 206.5,214.5C 195.27,220.948 183.603,226.614 171.5,231.5C 156.251,227.896 141.084,223.896 126,219.5C 124.97,219.836 124.47,220.503 124.5,221.5C 121.883,218.853 118.883,216.686 115.5,215C 110.302,208.636 104.635,202.803 98.5,197.5C 98.3691,196.624 98.7025,195.957 99.5,195.5C 112.99,188.922 126.323,182.089 139.5,175C 138.29,173.961 137.29,172.794 136.5,171.5C 142.078,170.205 147.078,167.872 151.5,164.5 Z"/></g>
<g><path style="opacity:0.494" fill="#151517" d="M 171.5,231.5 C 159.779,238.027 147.779,244.027 135.5,249.5C 134.508,249.328 133.842,249.662 133.5,250.5C 132.504,250.586 131.671,250.252 131,249.5C 126.439,240.742 124.272,231.409 124.5,221.5C 124.47,220.503 124.97,219.836 126,219.5C 141.084,223.896 156.251,227.896 171.5,231.5 Z"/></g>
<g><path style="opacity:0.501" fill="#120f18" d="M 206.5,214.5 C 207.791,220.525 207.791,226.692 206.5,233C 210.847,252.626 213.847,272.46 215.5,292.5C 214.539,294.265 214.205,296.265 214.5,298.5C 211.053,297.429 207.553,296.429 204,295.5C 203.098,295.743 202.265,296.077 201.5,296.5C 203.239,288.258 204.573,279.925 205.5,271.5C 205.36,269.97 204.693,268.97 203.5,268.5C 203.389,267.883 203.056,267.383 202.5,267C 181.91,261.019 161.243,255.353 140.5,250C 141.696,249.346 141.696,248.846 140.5,248.5C 138.929,249.309 137.262,249.643 135.5,249.5C 147.779,244.027 159.779,238.027 171.5,231.5C 183.603,226.614 195.27,220.948 206.5,214.5 Z"/></g>
<g><path style="opacity:0.5" fill="#0f111a" d="M 203.5,268.5 C 202.827,276.547 201.827,284.547 200.5,292.5C 199.849,293.091 199.182,293.757 198.5,294.5C 177.35,287.879 156.017,281.879 134.5,276.5C 133.287,276.253 132.62,275.586 132.5,274.5C 132.938,267.638 133.605,260.805 134.5,254C 134.011,252.862 133.678,251.695 133.5,250.5C 133.842,249.662 134.508,249.328 135.5,249.5C 137.262,249.643 138.929,249.309 140.5,248.5C 141.696,248.846 141.696,249.346 140.5,250C 161.243,255.353 181.91,261.019 202.5,267C 203.056,267.383 203.389,267.883 203.5,268.5 Z"/></g>
<g><path style="opacity:0.501" fill="#0a1119" d="M 132.5,274.5 C 132.62,275.586 133.287,276.253 134.5,276.5C 156.017,281.879 177.35,287.879 198.5,294.5C 199.182,293.757 199.849,293.091 200.5,292.5C 198.882,301.924 196.882,311.257 194.5,320.5C 174.074,314.058 153.407,308.225 132.5,303C 131.186,302.015 130.186,300.848 129.5,299.5C 130.449,291.065 131.449,282.731 132.5,274.5 Z"/></g>
<g><path style="opacity:0.442" fill="#030303" d="M 73.5,298.5 C 67.5,304.167 61.5,309.833 55.5,315.5C 51.1667,319.167 47.1667,323.167 43.5,327.5C 42.6618,327.842 42.3284,328.508 42.5,329.5C 33.1563,334.901 23.823,340.401 14.5,346C 8.56665,347.075 6.73331,344.908 9,339.5C 25.1667,323.333 41.3333,307.167 57.5,291C 59.7538,289.85 62.0871,289.516 64.5,290C 68.0472,292.384 71.0472,295.217 73.5,298.5 Z"/></g>
<g><path style="opacity:0.5" fill="#0a1119" d="M 215.5,292.5 C 215.178,298.358 215.511,304.025 216.5,309.5C 216.5,311.5 216.5,313.5 216.5,315.5C 214.825,318.507 214.159,321.84 214.5,325.5C 209.518,324.174 204.518,322.841 199.5,321.5C 198.261,321.942 197.261,322.609 196.5,323.5C 198.073,314.491 199.74,305.491 201.5,296.5C 202.265,296.077 203.098,295.743 204,295.5C 207.553,296.429 211.053,297.429 214.5,298.5C 214.205,296.265 214.539,294.265 215.5,292.5 Z"/></g>
<g><path style="opacity:0.494" fill="#03131a" d="M 73.5,298.5 C 91.1249,308.314 108.458,318.647 125.5,329.5C 125.799,331.604 125.466,333.604 124.5,335.5C 101.365,328.97 78.3654,322.303 55.5,315.5C 61.5,309.833 67.5,304.167 73.5,298.5 Z"/></g>
<g><path style="opacity:0.501" fill="#05131b" d="M 129.5,299.5 C 130.186,300.848 131.186,302.015 132.5,303C 153.407,308.225 174.074,314.058 194.5,320.5C 192.476,331.227 189.476,341.56 185.5,351.5C 166.568,346.183 147.568,341.016 128.5,336C 127.883,333.723 127.216,331.556 126.5,329.5C 128.027,319.56 129.027,309.56 129.5,299.5 Z"/></g>
<g><path style="opacity:0.494" fill="#050405" d="M 203.5,268.5 C 204.693,268.97 205.36,269.97 205.5,271.5C 204.573,279.925 203.239,288.258 201.5,296.5C 199.74,305.491 198.073,314.491 196.5,323.5C 194.963,332.517 193.297,341.517 191.5,350.5C 189.547,356.98 187.88,363.646 186.5,370.5C 184.411,374.501 183.078,378.835 182.5,383.5C 179.657,391.508 176.491,399.508 173,407.5C 170.638,411.027 167.804,414.027 164.5,416.5C 154.167,416.5 143.833,416.5 133.5,416.5C 126.4,411.245 119.4,405.745 112.5,400C 111.552,399.517 110.552,399.351 109.5,399.5C 111.253,397.777 113.253,396.277 115.5,395C 108.97,389.301 102.637,383.467 96.5,377.5C 97.1174,377.389 97.6174,377.056 98,376.5C 110.07,388.91 123.57,399.41 138.5,408C 146.666,410.776 154.166,409.609 161,404.5C 166.237,397.355 170.404,389.688 173.5,381.5C 176.547,376.031 179.214,370.364 181.5,364.5C 182.837,360.155 184.171,355.822 185.5,351.5C 189.476,341.56 192.476,331.227 194.5,320.5C 196.882,311.257 198.882,301.924 200.5,292.5C 201.827,284.547 202.827,276.547 203.5,268.5 Z"/></g>
<g><path style="opacity:0.502" fill="#0d1316" d="M 55.5,315.5 C 78.3654,322.303 101.365,328.97 124.5,335.5C 125.466,333.604 125.799,331.604 125.5,329.5C 125.833,329.5 126.167,329.5 126.5,329.5C 127.216,331.556 127.883,333.723 128.5,336C 147.568,341.016 166.568,346.183 185.5,351.5C 184.171,355.822 182.837,360.155 181.5,364.5C 135.383,352.571 89.3828,340.238 43.5,327.5C 47.1667,323.167 51.1667,319.167 55.5,315.5 Z"/></g>
<g><path style="opacity:0.494" fill="#04141b" d="M 216.5,315.5 C 216.5,325.5 216.5,335.5 216.5,345.5C 215.521,348.625 215.187,351.958 215.5,355.5C 214.698,356.952 214.198,358.618 214,360.5C 207.254,358.104 200.421,355.938 193.5,354C 192.027,353.29 191.36,352.124 191.5,350.5C 193.297,341.517 194.963,332.517 196.5,323.5C 197.261,322.609 198.261,321.942 199.5,321.5C 204.518,322.841 209.518,324.174 214.5,325.5C 214.159,321.84 214.825,318.507 216.5,315.5 Z"/></g>
<g><path style="opacity:0.501" fill="#151114" d="M 43.5,327.5 C 89.3828,340.238 135.383,352.571 181.5,364.5C 179.214,370.364 176.547,376.031 173.5,381.5C 156.02,376.417 138.52,371.084 121,365.5C 120.586,365.957 120.086,366.291 119.5,366.5C 104.184,362.17 88.8503,357.837 73.5,353.5C 71.9623,353.453 70.9623,354.12 70.5,355.5C 61.4414,346.438 52.1081,337.771 42.5,329.5C 42.3284,328.508 42.6618,327.842 43.5,327.5 Z"/></g>
<g><path style="opacity:0.5" fill="#1b1015" d="M 173.5,381.5 C 170.404,389.688 166.237,397.355 161,404.5C 154.166,409.609 146.666,410.776 138.5,408C 123.57,399.41 110.07,388.91 98,376.5C 97.6174,377.056 97.1174,377.389 96.5,377.5C 87.5649,370.572 78.8983,363.238 70.5,355.5C 70.9623,354.12 71.9623,353.453 73.5,353.5C 88.8503,357.837 104.184,362.17 119.5,366.5C 120.086,366.291 120.586,365.957 121,365.5C 138.52,371.084 156.02,376.417 173.5,381.5 Z"/></g>
<g><path style="opacity:0.5" fill="#0e1315" d="M 191.5,350.5 C 191.36,352.124 192.027,353.29 193.5,354C 200.421,355.938 207.254,358.104 214,360.5C 214.198,358.618 214.698,356.952 215.5,355.5C 215.039,364.368 214.039,373.034 212.5,381.5C 212.767,379.029 211.767,377.362 209.5,376.5C 201.76,374.649 194.093,372.649 186.5,370.5C 187.88,363.646 189.547,356.98 191.5,350.5 Z"/></g>
<g><path style="opacity:0.499" fill="#161114" d="M 186.5,370.5 C 194.093,372.649 201.76,374.649 209.5,376.5C 211.767,377.362 212.767,379.029 212.5,381.5C 212.736,384.609 212.403,387.609 211.5,390.5C 210.883,390.611 210.383,390.944 210,391.5C 200.951,388.446 191.785,385.779 182.5,383.5C 183.078,378.835 184.411,374.501 186.5,370.5 Z"/></g>
<g><path style="opacity:0.496" fill="#1b1015" d="M 182.5,383.5 C 191.785,385.779 200.951,388.446 210,391.5C 210.383,390.944 210.883,390.611 211.5,390.5C 211.38,399.616 207.714,406.95 200.5,412.5C 197.941,413.608 195.608,414.941 193.5,416.5C 183.833,416.5 174.167,416.5 164.5,416.5C 167.804,414.027 170.638,411.027 173,407.5C 176.491,399.508 179.657,391.508 182.5,383.5 Z"/></g>
<g><path style="opacity:0.436" fill="#171315" d="M 109.5,399.5 C 110.552,399.351 111.552,399.517 112.5,400C 119.4,405.745 126.4,411.245 133.5,416.5C 117.167,416.5 100.833,416.5 84.5,416.5C 92.2766,410.104 100.61,404.438 109.5,399.5 Z"/></g>
</svg>
