<?xml version="1.0" encoding="UTF-8"?>
<!DOCTYPE svg PUBLIC "-//W3C//DTD SVG 1.1//EN" "http://www.w3.org/Graphics/SVG/1.1/DTD/svg11.dtd">
<svg xmlns="http://www.w3.org/2000/svg" version="1.1" width="48px" height="50px" style="shape-rendering:geometricPrecision; text-rendering:geometricPrecision; image-rendering:optimizeQuality; fill-rule:evenodd; clip-rule:evenodd" xmlns:xlink="http://www.w3.org/1999/xlink">
<g><path style="opacity:1" fill="#f8faf9" d="M -0.5,-0.5 C 5.5,-0.5 11.5,-0.5 17.5,-0.5C 9.16667,3.16667 3.16667,9.16667 -0.5,17.5C -0.5,11.5 -0.5,5.5 -0.5,-0.5 Z"/></g>
<g><path style="opacity:1" fill="#f7f9f9" d="M 28.5,-0.5 C 34.8333,-0.5 41.1667,-0.5 47.5,-0.5C 47.5,5.5 47.5,11.5 47.5,17.5C 43.7454,8.74454 37.412,2.74454 28.5,-0.5 Z"/></g>
<g><path style="opacity:1" fill="#f8f8f8" d="M -0.5,31.5 C 0.307663,33.2202 1.30766,34.8869 2.5,36.5C 5.95061,42.617 10.9506,46.9504 17.5,49.5C 11.5,49.5 5.5,49.5 -0.5,49.5C -0.5,43.5 -0.5,37.5 -0.5,31.5 Z"/></g>
<g><path style="opacity:1" fill="#f8f8f9" d="M 47.5,31.5 C 47.5,37.5 47.5,43.5 47.5,49.5C 41.5,49.5 35.5,49.5 29.5,49.5C 33.2665,47.4428 36.9332,45.1094 40.5,42.5C 43.5951,39.308 45.9284,35.6413 47.5,31.5 Z"/></g>
<g><path style="opacity:1" fill="#262a2e" d="M 2.5,36.5 C 5.25053,38.7453 7.91719,41.2453 10.5,44C 20.7458,49.2852 30.4125,48.4519 39.5,41.5C 40.1067,41.6236 40.44,41.9569 40.5,42.5C 36.9332,45.1094 33.2665,47.4428 29.5,49.5C 25.5,49.5 21.5,49.5 17.5,49.5C 10.9506,46.9504 5.95061,42.617 2.5,36.5 Z"/></g>
<g><path style="opacity:1" fill="#185541" d="M 17.5,-0.5 C 21.1667,-0.5 24.8333,-0.5 28.5,-0.5C 37.412,2.74454 43.7454,8.74454 47.5,17.5C 47.5,22.1667 47.5,26.8333 47.5,31.5C 45.9284,35.6413 43.5951,39.308 40.5,42.5C 40.44,41.9569 40.1067,41.6236 39.5,41.5C 30.4125,48.4519 20.7458,49.2852 10.5,44C 7.91719,41.2453 5.25053,38.7453 2.5,36.5C 1.30766,34.8869 0.307663,33.2202 -0.5,31.5C -0.5,26.8333 -0.5,22.1667 -0.5,17.5C 3.16667,9.16667 9.16667,3.16667 17.5,-0.5 Z"/></g>
<g><path style="opacity:1" fill="#098054" d="M 17.5,1.5 C 36.8432,0.344149 46.0099,9.34415 45,28.5C 40.4666,41.5234 31.3,47.0234 17.5,45C 0.513057,36.371 -2.82028,24.0376 7.5,8C 10.7278,5.56031 14.0611,3.39364 17.5,1.5 Z"/></g>
<g><path style="opacity:1" fill="#0c563e" d="M 24.5,14.5 C 25.675,14.281 26.675,14.6143 27.5,15.5C 25.1667,18.1667 22.8333,20.8333 20.5,23.5C 22.483,25.9837 24.6496,28.3171 27,30.5C 27.5908,31.4835 27.2575,32.1501 26,32.5C 22.3655,30.0332 19.1989,27.0332 16.5,23.5C 19.189,20.4802 21.8556,17.4802 24.5,14.5 Z"/></g>
</svg>
