<?xml version="1.0" encoding="UTF-8"?>
<!DOCTYPE svg PUBLIC "-//W3C//DTD SVG 1.1//EN" "http://www.w3.org/Graphics/SVG/1.1/DTD/svg11.dtd">
<svg xmlns="http://www.w3.org/2000/svg" version="1.1" width="281px" height="732px" style="shape-rendering:geometricPrecision; text-rendering:geometricPrecision; image-rendering:optimizeQuality; fill-rule:evenodd; clip-rule:evenodd" xmlns:xlink="http://www.w3.org/1999/xlink">
<g><path style="opacity:0.479" fill="#151515" d="M 28.5,79.5 C 28.6309,80.3764 28.2975,81.0431 27.5,81.5C 26.3523,79.8513 25.019,78.3513 23.5,77C 25.5983,70.6441 26.9316,64.1441 27.5,57.5C 26.0222,57.238 24.6888,57.5713 23.5,58.5C 22.1251,61.3732 21.1251,64.3732 20.5,67.5C 19.675,68.3857 18.675,68.719 17.5,68.5C 17.8615,63.8759 18.5282,59.5426 19.5,55.5C 17.4686,53.7508 17.1353,51.7508 18.5,49.5C 17.9752,47.0121 17.1419,44.6787 16,42.5C 14.2816,44.2021 14.115,46.0355 15.5,48C 14.8333,49.3333 13.8333,50.3333 12.5,51C 13.935,58.9343 13.2683,66.9343 10.5,75C 10.8333,75.3333 11.1667,75.6667 11.5,76C 10.1667,77.6667 8.83333,79.3333 7.5,81C 9.04406,81.2896 10.3774,81.9563 11.5,83C 7.80737,84.0476 4.6407,85.8809 2,88.5C 1.02304,86.26 0.523039,83.9267 0.5,81.5C 1.83333,81.5 3.16667,81.5 4.5,81.5C 4.5,80.1667 4.5,78.8333 4.5,77.5C 2.70848,77.366 1.04181,77.6993 -0.5,78.5C -0.5,69.1667 -0.5,59.8333 -0.5,50.5C 1.80678,49.3466 4.14011,48.1799 6.5,47C 9.67582,42.9935 13.0092,39.1602 16.5,35.5C 16.723,36.9667 17.0563,38.4667 17.5,40C 21.0349,41.7064 24.7015,43.0397 28.5,44C 29.0585,44.7247 29.3918,45.5581 29.5,46.5C 28.6002,48.2387 27.9335,50.072 27.5,52C 29.4011,56.4054 31.0677,60.9054 32.5,65.5C 30.6531,69.6986 28.9864,74.0319 27.5,78.5C 27.6236,79.1067 27.9569,79.44 28.5,79.5 Z"/></g>
<g><path style="opacity:0.494" fill="#0f0f0f" d="M 28.5,79.5 C 33.1945,83.3668 36.5278,88.2001 38.5,94C 38.3749,95.6268 37.8749,97.1268 37,98.5C 33.9782,100.688 31.4782,103.355 29.5,106.5C 31.8579,108.024 33.6912,110.024 35,112.5C 36.4104,116.892 38.2438,121.059 40.5,125C 39.8541,128.812 39.3541,132.646 39,136.5C 36.57,139.702 34.4033,143.035 32.5,146.5C 33.7809,151.728 36.1142,156.395 39.5,160.5C 41.3581,158.476 43.0248,156.309 44.5,154C 46.2746,152.561 48.2746,151.561 50.5,151C 55.7253,150.819 60.7253,151.486 65.5,153C 69.7594,151.066 73.7594,148.732 77.5,146C 80.5755,145.654 83.5755,144.988 86.5,144C 91.0353,140.232 96.0353,137.232 101.5,135C 114.517,134.171 126.85,131.004 138.5,125.5C 143.521,127.797 148.187,126.964 152.5,123C 155.584,119.246 159.25,116.246 163.5,114C 165.5,113.333 167.5,113.333 169.5,114C 171.336,115.419 173.336,116.586 175.5,117.5C 182.287,116.105 188.621,113.605 194.5,110C 198.853,109.755 203.187,109.755 207.5,110C 212.95,108.032 218.283,105.865 223.5,103.5C 228.605,106.095 233.605,108.928 238.5,112C 243.833,111.667 249.167,111.333 254.5,111C 259.881,114.626 265.881,117.293 272.5,119C 274.049,120.214 275.215,121.714 276,123.5C 276.636,127.226 277.803,130.726 279.5,134C 277.074,137.479 274.241,140.646 271,143.5C 270.138,145.087 269.471,146.754 269,148.5C 265.333,151.5 261.667,154.5 258,157.5C 255.804,162.42 253.804,167.42 252,172.5C 246.617,177.216 241.95,182.549 238,188.5C 230.855,193.638 223.688,198.804 216.5,204C 212.958,205.02 209.458,206.187 206,207.5C 201.657,204.397 197.824,204.897 194.5,209C 184.166,209.933 173.832,210.766 163.5,211.5C 148.436,210.415 133.436,210.415 118.5,211.5C 115.409,216.014 112.075,220.347 108.5,224.5C 112.477,227.888 113.311,231.888 111,236.5C 104.7,241.725 98.5329,247.058 92.5,252.5C 89.2946,253.865 85.9612,254.865 82.5,255.5C 65.5344,289.871 49.0344,324.538 33,359.5C 25.6288,377.321 19.9621,395.655 16,414.5C 15.0279,422.364 15.8613,430.03 18.5,437.5C 20.3885,438.604 22.0552,439.937 23.5,441.5C 18.3194,443.468 17.3194,446.635 20.5,451C 19.4238,452.726 19.2571,454.559 20,456.5C 22.8088,463.681 25.3088,471.015 27.5,478.5C 26.3235,480.863 25.6568,483.363 25.5,486C 25.789,500.659 27.4557,515.159 30.5,529.5C 28.5806,534.004 27.2473,538.67 26.5,543.5C 27.2439,560.613 27.2439,577.446 26.5,594C 27.4056,596.447 28.2389,598.947 29,601.5C 29.0932,616.526 29.2598,631.526 29.5,646.5C 39.5007,647.222 49.5007,648.055 59.5,649C 65.8492,649.632 71.8492,651.132 77.5,653.5C 79.7651,655.988 82.0984,658.488 84.5,661C 82.695,663.403 80.3616,665.07 77.5,666C 66.5843,669.967 55.4177,671.467 44,670.5C 40.1402,672.706 35.9735,673.706 31.5,673.5C 31.9914,669.311 31.8248,664.978 31,660.5C 29.2174,663.892 29.0507,667.392 30.5,671C 30.0019,672.158 29.1685,672.991 28,673.5C 18.5895,674.444 9.08951,674.777 -0.5,674.5C -0.5,475.833 -0.5,277.167 -0.5,78.5C 1.04181,77.6993 2.70848,77.366 4.5,77.5C 4.5,78.8333 4.5,80.1667 4.5,81.5C 3.16667,81.5 1.83333,81.5 0.5,81.5C 0.523039,83.9267 1.02304,86.26 2,88.5C 4.6407,85.8809 7.80737,84.0476 11.5,83C 10.3774,81.9563 9.04406,81.2896 7.5,81C 8.83333,79.3333 10.1667,77.6667 11.5,76C 11.1667,75.6667 10.8333,75.3333 10.5,75C 13.2683,66.9343 13.935,58.9343 12.5,51C 13.8333,50.3333 14.8333,49.3333 15.5,48C 14.115,46.0355 14.2816,44.2021 16,42.5C 17.1419,44.6787 17.9752,47.0121 18.5,49.5C 17.1353,51.7508 17.4686,53.7508 19.5,55.5C 18.5282,59.5426 17.8615,63.8759 17.5,68.5C 18.675,68.719 19.675,68.3857 20.5,67.5C 21.1251,64.3732 22.1251,61.3732 23.5,58.5C 24.6888,57.5713 26.0222,57.238 27.5,57.5C 26.9316,64.1441 25.5983,70.6441 23.5,77C 25.019,78.3513 26.3523,79.8513 27.5,81.5C 28.2975,81.0431 28.6309,80.3764 28.5,79.5 Z M 51.5,194.5 C 53.0222,195.191 54.0222,196.358 54.5,198C 53.4092,200.818 53.4092,203.651 54.5,206.5C 57.1667,206.5 59.8333,206.5 62.5,206.5C 63.2848,211.462 65.1181,211.795 68,207.5C 70.0906,208.256 71.924,209.423 73.5,211C 78.6001,212.195 83.2668,211.362 87.5,208.5C 88.8333,209.167 88.8333,209.833 87.5,210.5C 80.3593,215.474 73.3593,220.64 66.5,226C 60.9032,225.873 55.4032,225.04 50,223.5C 40.8328,227.326 33.6661,233.493 28.5,242C 24.2152,244.352 21.7152,243.185 21,238.5C 26.1762,235.412 30.5095,231.412 34,226.5C 34.6667,225.167 34.6667,223.833 34,222.5C 32.3035,221.636 31.1368,220.303 30.5,218.5C 31.903,215.125 33.403,211.791 35,208.5C 35.769,205.901 35.6023,203.401 34.5,201C 36.0009,199.748 37.6675,198.748 39.5,198C 43.6469,196.891 47.6469,195.724 51.5,194.5 Z M 69.5,261.5 C 69.4614,260.244 69.9614,259.244 71,258.5C 71.5847,259.998 71.0847,260.998 69.5,261.5 Z M 69.5,261.5 C 61.5822,277.397 53.7488,293.397 46,309.5C 41.6667,314.833 37.3333,320.167 33,325.5C 25.5707,339.04 18.0707,352.374 10.5,365.5C 14.3203,340.232 21.8203,316.232 33,293.5C 35.4471,292.594 37.9471,291.761 40.5,291C 43.0605,287.378 45.2272,283.545 47,279.5C 54.0616,272.937 61.5616,266.937 69.5,261.5 Z M 24.5,294.5 C 26.2252,294.843 26.7252,295.843 26,297.5C 18.6424,311.902 12.6424,326.902 8,342.5C 7.16748,330.819 7.33415,319.152 8.5,307.5C 9.7481,306.96 10.9148,306.293 12,305.5C 14.6972,300.082 18.8639,296.415 24.5,294.5 Z"/></g>
<g><path style="opacity:0.497" fill="#161616" d="M 77.5,653.5 C 87.5264,654.359 93.6931,659.692 96,669.5C 96.624,671.464 96.124,673.131 94.5,674.5C 92.142,676.521 89.4753,677.854 86.5,678.5C 57.8863,685.128 28.8863,688.128 -0.5,687.5C -0.5,683.167 -0.5,678.833 -0.5,674.5C 9.08951,674.777 18.5895,674.444 28,673.5C 29.1685,672.991 30.0019,672.158 30.5,671C 29.0507,667.392 29.2174,663.892 31,660.5C 31.8248,664.978 31.9914,669.311 31.5,673.5C 35.9735,673.706 40.1402,672.706 44,670.5C 55.4177,671.467 66.5843,669.967 77.5,666C 80.3616,665.07 82.695,663.403 84.5,661C 82.0984,658.488 79.7651,655.988 77.5,653.5 Z"/></g>
<g><path style="opacity:0.499" fill="#0f0f0f" d="M 86.5,678.5 C 85.828,679.267 84.9947,679.934 84,680.5C 83.6667,684.167 83.3333,687.833 83,691.5C 82,692.5 81,693.5 80,694.5C 78.6307,706.801 77.7974,719.134 77.5,731.5C 51.5,731.5 25.5,731.5 -0.5,731.5C -0.5,716.833 -0.5,702.167 -0.5,687.5C 28.8863,688.128 57.8863,685.128 86.5,678.5 Z"/></g>
</svg>
