<svg width="27" height="29" viewBox="0 0 27 29" fill="none" xmlns="http://www.w3.org/2000/svg">
<path d="M26.9167 1.41667V4.25C26.9167 9.72683 22.4768 14.1667 17 14.1667H15.5833V15.5833H22.6667V25.5C22.6667 27.0654 21.3988 28.3333 19.8333 28.3333H8.5C6.93458 28.3333 5.66667 27.0654 5.66667 25.5V15.5833H12.75V11.3333C12.75 5.8565 17.1898 1.41667 22.6667 1.41667H26.9167ZM4.95833 0C8.54108 0 11.7087 1.77225 13.634 4.48942C12.189 6.38917 11.3333 8.76208 11.3333 11.3333V12.75H10.625C4.75717 12.75 0 7.99283 0 2.125V0H4.95833Z" fill="#098256"/>
</svg>
