<?xml version="1.0" encoding="UTF-8"?>
<!DOCTYPE svg PUBLIC "-//W3C//DTD SVG 1.1//EN" "http://www.w3.org/Graphics/SVG/1.1/DTD/svg11.dtd">
<svg xmlns="http://www.w3.org/2000/svg" version="1.1" width="412px" height="309px" style="shape-rendering:geometricPrecision; text-rendering:geometricPrecision; image-rendering:optimizeQuality; fill-rule:evenodd; clip-rule:evenodd" xmlns:xlink="http://www.w3.org/1999/xlink">
<g><path style="opacity:0.455" fill="#250011" d="M 273.5,14.5 C 275.503,16.0009 277.503,17.6675 279.5,19.5C 280.386,20.325 280.719,21.325 280.5,22.5C 279.167,22.5 277.833,22.5 276.5,22.5C 276.5,23.8333 276.5,25.1667 276.5,26.5C 273.5,26.8333 272.167,25.5 272.5,22.5C 271.167,22.5 269.833,22.5 268.5,22.5C 270.344,20.0339 272.01,17.3672 273.5,14.5 Z"/></g>
<g><path style="opacity:0.401" fill="#240010" d="M 93.5,34.5 C 95.3284,35.7945 97.3284,36.7945 99.5,37.5C 99.5,38.5 99.5,39.5 99.5,40.5C 98.5,40.5 97.5,40.5 96.5,40.5C 96.5,41.5 96.5,42.5 96.5,43.5C 95.5,43.5 94.5,43.5 93.5,43.5C 93.5,42.5 93.5,41.5 93.5,40.5C 92.5,40.5 91.5,40.5 90.5,40.5C 90.5,39.5 90.5,38.5 90.5,37.5C 91.5,37.5 92.5,37.5 93.5,37.5C 93.5,36.5 93.5,35.5 93.5,34.5 Z"/></g>
<g><path style="opacity:0.495" fill="#250011" d="M 142.5,42.5 C 142.649,43.552 142.483,44.552 142,45.5C 138.304,46.9546 134.804,48.788 131.5,51C 129.014,54.1371 127.181,57.6371 126,61.5C 123.181,63.6686 120.014,65.1686 116.5,66C 113.591,69.3741 111.424,73.2075 110,77.5C 108.67,78.5822 107.17,79.2488 105.5,79.5C 104.561,63.5403 111.227,52.0403 125.5,45C 131.01,43.11 136.676,42.2767 142.5,42.5 Z"/></g>
<g><path style="opacity:0.499" fill="#171415" d="M 142.5,42.5 C 143.708,43.2341 145.041,43.5674 146.5,43.5C 144.445,48.3854 140.778,51.2187 135.5,52C 132.43,54.4275 130.596,57.5942 130,61.5C 127.072,65.381 123.239,67.881 118.5,69C 115.769,71.6259 113.936,74.7926 113,78.5C 111.242,80.7655 109.075,82.4322 106.5,83.5C 105.566,82.4324 105.232,81.099 105.5,79.5C 107.17,79.2488 108.67,78.5822 110,77.5C 111.424,73.2075 113.591,69.3741 116.5,66C 120.014,65.1686 123.181,63.6686 126,61.5C 127.181,57.6371 129.014,54.1371 131.5,51C 134.804,48.788 138.304,46.9546 142,45.5C 142.483,44.552 142.649,43.552 142.5,42.5 Z"/></g>
<g><path style="opacity:0.5" fill="#250012" d="M 146.5,43.5 C 151.086,44.4598 155.086,46.4598 158.5,49.5C 156.715,56.1152 152.382,60.2818 145.5,62C 142.167,66.6667 138.833,71.3333 135.5,76C 129,77.1667 125.167,81 124,87.5C 120.494,91.2438 116.327,93.9105 111.5,95.5C 108.293,92.2321 106.627,88.2321 106.5,83.5C 109.075,82.4322 111.242,80.7655 113,78.5C 113.936,74.7926 115.769,71.6259 118.5,69C 123.239,67.881 127.072,65.381 130,61.5C 130.596,57.5942 132.43,54.4275 135.5,52C 140.778,51.2187 144.445,48.3854 146.5,43.5 Z"/></g>
<g><path style="opacity:0.499" fill="#161415" d="M 158.5,49.5 C 159.71,49.9321 160.71,50.5987 161.5,51.5C 159.737,53.8852 158.237,56.5519 157,59.5C 154.806,62.1806 151.973,63.6806 148.5,64C 144.724,66.9826 142.224,70.8159 141,75.5C 138.374,78.2308 135.207,80.0642 131.5,81C 128.43,83.4275 126.596,86.5942 126,90.5C 122.497,93.8067 118.663,96.4734 114.5,98.5C 112.856,98.1898 111.856,97.1898 111.5,95.5C 116.327,93.9105 120.494,91.2438 124,87.5C 125.167,81 129,77.1667 135.5,76C 138.833,71.3333 142.167,66.6667 145.5,62C 152.382,60.2818 156.715,56.1152 158.5,49.5 Z"/></g>
<g><path style="opacity:0.501" fill="#250011" d="M 161.5,51.5 C 164.547,53.9181 166.88,56.9181 168.5,60.5C 169.55,68.2795 166.217,72.7795 158.5,74C 154.354,76.8031 151.854,80.6365 151,85.5C 146.004,87.5017 141.67,90.5017 138,94.5C 136.889,101.113 133.056,104.779 126.5,105.5C 124.813,105.24 123.313,104.573 122,103.5C 121.617,104.056 121.117,104.389 120.5,104.5C 118.07,102.947 116.07,100.947 114.5,98.5C 118.663,96.4734 122.497,93.8067 126,90.5C 126.596,86.5942 128.43,83.4275 131.5,81C 135.207,80.0642 138.374,78.2308 141,75.5C 142.224,70.8159 144.724,66.9826 148.5,64C 151.973,63.6806 154.806,62.1806 157,59.5C 158.237,56.5519 159.737,53.8852 161.5,51.5 Z"/></g>
<g><path style="opacity:0.45" fill="#250010" d="M 234.5,50.5 C 237.731,51.0978 238.064,52.2644 235.5,54C 222.886,56.8228 210.219,59.3228 197.5,61.5C 197.36,59.8762 198.027,58.7096 199.5,58C 211.295,55.4846 222.962,52.9846 234.5,50.5 Z"/></g>
<g><path style="opacity:0.474" fill="#161415" d="M 168.5,60.5 C 170.163,62.4927 171.33,64.8261 172,67.5C 175.398,87.8845 167.565,101.718 148.5,109C 141.833,109.667 135.167,109.667 128.5,109C 125.367,108.14 122.7,106.64 120.5,104.5C 121.117,104.389 121.617,104.056 122,103.5C 123.313,104.573 124.813,105.24 126.5,105.5C 133.056,104.779 136.889,101.113 138,94.5C 141.67,90.5017 146.004,87.5017 151,85.5C 151.854,80.6365 154.354,76.8031 158.5,74C 166.217,72.7795 169.55,68.2795 168.5,60.5 Z"/></g>
<g><path style="opacity:0.499" fill="#00150e" d="M 55.5,224.5 C 54.4042,220.587 54.2375,216.587 55,212.5C 63.4654,204.213 71.4654,195.547 79,186.5C 80.5588,184.783 81.3921,182.783 81.5,180.5C 80.1266,180.343 78.7932,180.51 77.5,181C 68.6933,187.973 60.36,195.473 52.5,203.5C 51.5244,201.877 52.0244,200.543 54,199.5C 54.4675,180.122 53.8008,160.789 52,141.5C 50.6667,140.167 49.3333,140.167 48,141.5C 46.6017,156.13 45.6017,170.796 45,185.5C 41.9838,182.651 39.1504,179.651 36.5,176.5C 39.0813,173.596 40.748,170.263 41.5,166.5C 37.5939,167.202 34.0939,168.869 31,171.5C 27.3968,169.608 24.2301,167.108 21.5,164C 20.2068,163.51 18.8734,163.343 17.5,163.5C 17.3433,164.873 17.51,166.207 18,167.5C 26.2657,177.769 35.2657,187.435 45,196.5C 45.8046,205.911 45.638,215.244 44.5,224.5C 32.5424,226.606 24.0424,222.273 19,211.5C 15.7308,208.117 11.8974,205.617 7.5,204C 5.29113,202.127 3.4578,199.96 2,197.5C 0.366874,169.215 0.0335406,140.882 1,112.5C 2.02624,108.278 4.1929,104.778 7.5,102C 12.1188,100.004 16.7855,98.0045 21.5,96C 22.6667,94.8333 23.8333,93.6667 25,92.5C 27.4004,86.3787 29.0671,80.0454 30,73.5C 35.513,65.4327 43.1796,62.4327 53,64.5C 66.1139,61.8792 74.4472,66.8792 78,79.5C 78.3333,86.8333 78.6667,94.1667 79,101.5C 80.0608,104.562 81.8941,107.062 84.5,109C 91.6222,111.128 96.4556,115.628 99,122.5C 99.6667,147.167 99.6667,171.833 99,196.5C 97.9196,198.996 96.5862,201.33 95,203.5C 88.2376,205.928 83.9043,210.595 82,217.5C 79.6351,220.869 76.4685,223.036 72.5,224C 66.8431,224.499 61.1764,224.666 55.5,224.5 Z"/></g>
<g><path style="opacity:0.502" fill="#250012" d="M 169.5,71.5 C 171.243,93.2381 161.077,105.571 139,108.5C 132.994,108.726 132.328,107.393 137,104.5C 138.528,101.583 139.861,98.5833 141,95.5C 144.268,93.2941 147.768,91.4607 151.5,90C 154.324,86.5384 156.49,82.7051 158,78.5C 160.819,76.3314 163.986,74.8314 167.5,74C 168.381,73.2917 169.047,72.4584 169.5,71.5 Z"/></g>
<g><path style="opacity:0.406" fill="#240012" d="M 3.5,74.5 C 4.5,74.5 5.5,74.5 6.5,74.5C 6.5,75.5 6.5,76.5 6.5,77.5C 10.5,78.1667 10.5,78.8333 6.5,79.5C 5.5,84.8333 4.5,84.8333 3.5,79.5C -0.5,78.8333 -0.5,78.1667 3.5,77.5C 3.5,76.5 3.5,75.5 3.5,74.5 Z"/></g>
<g><path style="opacity:0.499" fill="#00150e" d="M 411.5,154.5 C 411.5,170.5 411.5,186.5 411.5,202.5C 390.5,202.5 369.5,202.5 348.5,202.5C 347.35,197.684 347.184,192.684 348,187.5C 352.115,185.052 355.948,182.219 359.5,179C 366.744,180.031 374.077,180.531 381.5,180.5C 381.67,179.178 381.337,178.011 380.5,177C 376.167,175.333 371.833,173.667 367.5,172C 371.633,168.869 375.466,165.369 379,161.5C 379.601,160.035 379.101,159.035 377.5,158.5C 367.175,163.66 357.175,169.327 347.5,175.5C 346.335,164.193 345.502,152.86 345,141.5C 343.267,139.398 341.267,139.065 339,140.5C 338.135,151.89 337.302,163.223 336.5,174.5C 332.486,174.666 328.486,174.499 324.5,174C 323.584,173.626 322.75,173.126 322,172.5C 321.667,167.833 321.333,163.167 321,158.5C 320.5,158 320,157.5 319.5,157C 314.167,156.667 308.833,156.333 303.5,156C 300.336,155.008 297.836,153.175 296,150.5C 295.333,136.167 295.333,121.833 296,107.5C 297.167,105 299,103.167 301.5,102C 305.5,101.667 309.5,101.333 313.5,101C 314.333,100.167 315.167,99.3333 316,98.5C 316.333,92.5 316.667,86.5 317,80.5C 318.122,78.3762 319.622,76.5429 321.5,75C 327.833,74.3333 334.167,74.3333 340.5,75C 342,76.5 343.5,78 345,79.5C 346.163,86.1034 346.83,92.7701 347,99.5C 347.5,100 348,100.5 348.5,101C 356.102,100.049 361.602,102.882 365,109.5C 365.221,114.22 365.721,118.887 366.5,123.5C 367.025,124.192 367.692,124.692 368.5,125C 377.601,125.055 386.601,125.722 395.5,127C 397.041,128.579 398.208,130.413 399,132.5C 399.333,139.5 399.667,146.5 400,153.5C 403.73,154.46 407.563,154.793 411.5,154.5 Z"/></g>
<g><path style="opacity:0.443" fill="#21000f" d="M 298.5,77.5 C 300.269,79.278 302.269,80.9446 304.5,82.5C 302.473,83.6933 300.973,85.36 300,87.5C 298.959,85.4148 297.459,83.7481 295.5,82.5C 296.325,81.6143 297.325,81.281 298.5,81.5C 298.5,80.1667 298.5,78.8333 298.5,77.5 Z"/></g>
<g><path style="opacity:0.302" fill="#24000f" d="M 195.5,87.5 C 200.806,88.6501 205.806,90.6501 210.5,93.5C 211.386,94.325 211.719,95.325 211.5,96.5C 206.525,95.8971 201.859,94.3971 197.5,92C 195.963,90.8904 195.297,89.3904 195.5,87.5 Z"/></g>
<g><path style="opacity:0.409" fill="#25010f" d="M 385.5,98.5 C 387.481,99.6861 389.481,101.019 391.5,102.5C 389.565,103.563 387.899,104.897 386.5,106.5C 385.528,104.364 383.861,103.197 381.5,103C 383.384,101.951 384.718,100.451 385.5,98.5 Z"/></g>
<g><path style="opacity:0.41" fill="#240010" d="M 169.5,118.5 C 171.606,118.679 173.272,119.679 174.5,121.5C 181.987,130.476 188.987,139.809 195.5,149.5C 193.157,150.725 191.323,150.059 190,147.5C 183.667,139.5 177.333,131.5 171,123.5C 169.991,121.975 169.491,120.308 169.5,118.5 Z"/></g>
<g><path style="opacity:0.464" fill="#240010" d="M 142.5,129.5 C 143.75,129.577 144.583,130.244 145,131.5C 145.499,136.823 145.666,142.156 145.5,147.5C 144.5,147.5 143.5,147.5 142.5,147.5C 141.553,141.433 141.553,135.433 142.5,129.5 Z"/></g>
<g><path style="opacity:0.489" fill="#03040b" d="M 348.5,202.5 C 349.18,222.158 349.68,241.824 350,261.5C 351.488,259.84 353.321,258.84 355.5,258.5C 359.909,257.133 364.242,255.466 368.5,253.5C 369.72,253.887 370.387,254.72 370.5,256C 365.905,260.962 360.905,265.462 355.5,269.5C 353.614,270.361 351.78,271.361 350,272.5C 349.5,279.158 349.334,285.825 349.5,292.5C 347.629,292.141 346.129,291.141 345,289.5C 343.244,282.591 339.411,277.258 333.5,273.5C 333.666,264.494 333.5,255.494 333,246.5C 328.997,241.331 324.497,236.664 319.5,232.5C 317.672,228.158 314.839,224.491 311,221.5C 305.121,223.924 299.121,224.924 293,224.5C 292.493,223.004 292.993,221.837 294.5,221C 298.747,219.101 302.747,216.934 306.5,214.5C 301.943,208.965 298.276,202.965 295.5,196.5C 296.552,196.351 297.552,196.517 298.5,197C 305.019,203.02 311.685,208.853 318.5,214.5C 319.497,207.532 319.83,200.532 319.5,193.5C 320.167,201.01 320.833,208.677 321.5,216.5C 325.528,220.859 329.528,225.193 333.5,229.5C 334.539,211.166 335.539,192.833 336.5,174.5C 337.302,163.223 338.135,151.89 339,140.5C 341.267,139.065 343.267,139.398 345,141.5C 345.502,152.86 346.335,164.193 347.5,175.5C 357.175,169.327 367.175,163.66 377.5,158.5C 379.101,159.035 379.601,160.035 379,161.5C 375.466,165.369 371.633,168.869 367.5,172C 371.833,173.667 376.167,175.333 380.5,177C 381.337,178.011 381.67,179.178 381.5,180.5C 374.077,180.531 366.744,180.031 359.5,179C 355.948,182.219 352.115,185.052 348,187.5C 347.184,192.684 347.35,197.684 348.5,202.5 Z"/></g>
<g><path style="opacity:0.491" fill="#03040c" d="M 55.5,224.5 C 55.5,235.833 55.5,247.167 55.5,258.5C 51.7894,260.573 48.1228,262.573 44.5,264.5C 44.5,251.167 44.5,237.833 44.5,224.5C 45.638,215.244 45.8046,205.911 45,196.5C 35.2657,187.435 26.2657,177.769 18,167.5C 17.51,166.207 17.3433,164.873 17.5,163.5C 18.8734,163.343 20.2068,163.51 21.5,164C 24.2301,167.108 27.3968,169.608 31,171.5C 34.0939,168.869 37.5939,167.202 41.5,166.5C 40.748,170.263 39.0813,173.596 36.5,176.5C 39.1504,179.651 41.9838,182.651 45,185.5C 45.6017,170.796 46.6017,156.13 48,141.5C 49.3333,140.167 50.6667,140.167 52,141.5C 53.8008,160.789 54.4675,180.122 54,199.5C 52.0244,200.543 51.5244,201.877 52.5,203.5C 60.36,195.473 68.6933,187.973 77.5,181C 78.7932,180.51 80.1266,180.343 81.5,180.5C 81.3921,182.783 80.5588,184.783 79,186.5C 71.4654,195.547 63.4654,204.213 55,212.5C 54.2375,216.587 54.4042,220.587 55.5,224.5 Z"/></g>
<g><path style="opacity:0.466" fill="#250011" d="M 248.5,141.5 C 251.147,143.362 253.814,145.362 256.5,147.5C 254.462,148.754 252.796,150.421 251.5,152.5C 250.675,153.386 249.675,153.719 248.5,153.5C 248.5,152.167 248.5,150.833 248.5,149.5C 247.167,149.5 245.833,149.5 244.5,149.5C 244.5,148.167 244.5,146.833 244.5,145.5C 245.833,145.5 247.167,145.5 248.5,145.5C 248.5,144.167 248.5,142.833 248.5,141.5 Z"/></g>
<g><path style="opacity:0.498" fill="#00150e" d="M 202.5,266.5 C 201.385,261.25 201.219,255.917 202,250.5C 204.018,248.65 205.851,246.65 207.5,244.5C 206.998,243.479 206.332,243.312 205.5,244C 204.333,245.167 203.167,246.333 202,247.5C 201.333,240.833 201.333,234.167 202,227.5C 204.312,224.354 206.812,221.354 209.5,218.5C 208.998,217.479 208.332,217.312 207.5,218C 202.249,223.829 200.249,222.329 201.5,213.5C 200.5,213.5 199.5,213.5 198.5,213.5C 198.666,222.173 198.5,230.84 198,239.5C 196.167,237.667 194.333,235.833 192.5,234C 191.668,233.312 191.002,233.479 190.5,234.5C 192.098,237.601 194.265,240.268 197,242.5C 197.5,250.493 197.666,258.493 197.5,266.5C 192.372,266.888 187.372,266.388 182.5,265C 181.671,263.184 180.837,261.351 180,259.5C 177.194,257.605 174.86,255.272 173,252.5C 171.389,239.236 171.056,225.903 172,212.5C 172.856,206.642 176.189,202.975 182,201.5C 182.783,195.585 184.449,189.918 187,184.5C 192.773,178.424 199.606,176.924 207.5,180C 210.305,184.075 212.138,188.575 213,193.5C 215.295,195.938 218.128,197.438 221.5,198C 223.617,199.731 225.117,201.898 226,204.5C 226.667,220.167 226.667,235.833 226,251.5C 224.52,254.663 222.02,256.496 218.5,257C 216.402,259.854 214.069,262.521 211.5,265C 208.568,265.953 205.568,266.453 202.5,266.5 Z"/></g>
<g><path style="opacity:0.497" fill="#00150d" d="M 319.5,193.5 C 319.83,200.532 319.497,207.532 318.5,214.5C 311.685,208.853 305.019,203.02 298.5,197C 297.552,196.517 296.552,196.351 295.5,196.5C 298.276,202.965 301.943,208.965 306.5,214.5C 302.747,216.934 298.747,219.101 294.5,221C 292.993,221.837 292.493,223.004 293,224.5C 299.121,224.924 305.121,223.924 311,221.5C 314.839,224.491 317.672,228.158 319.5,232.5C 320.21,235.86 318.876,237.693 315.5,238C 309.5,238.333 303.5,238.667 297.5,239C 296.812,243.161 295.979,247.327 295,251.5C 293.933,252.191 292.766,252.691 291.5,253C 281.107,253.899 270.773,253.566 260.5,252C 258.448,251.07 256.948,249.57 256,247.5C 255.333,240.167 255.333,232.833 256,225.5C 258.333,224.123 260.833,223.123 263.5,222.5C 264.192,221.975 264.692,221.308 265,220.5C 265.333,212.167 265.667,203.833 266,195.5C 267.167,191.667 269.667,189.167 273.5,188C 288.167,187.333 302.833,187.333 317.5,188C 319.155,189.444 319.822,191.278 319.5,193.5 Z"/></g>
<g><path style="opacity:0.425" fill="#25010f" d="M 124.5,192.5 C 125.932,194.327 127.599,195.994 129.5,197.5C 127.897,198.899 126.563,200.565 125.5,202.5C 123.833,200.833 122.167,199.167 120.5,197.5C 122.552,196.389 123.886,194.723 124.5,192.5 Z"/></g>
<g><path style="opacity:0.475" fill="#03040b" d="M 202.5,266.5 C 202.185,280.579 202.518,294.579 203.5,308.5C 201.167,308.5 198.833,308.5 196.5,308.5C 196.278,294.478 196.612,280.478 197.5,266.5C 197.666,258.493 197.5,250.493 197,242.5C 194.265,240.268 192.098,237.601 190.5,234.5C 191.002,233.479 191.668,233.312 192.5,234C 194.333,235.833 196.167,237.667 198,239.5C 198.5,230.84 198.666,222.173 198.5,213.5C 199.5,213.5 200.5,213.5 201.5,213.5C 200.249,222.329 202.249,223.829 207.5,218C 208.332,217.312 208.998,217.479 209.5,218.5C 206.812,221.354 204.312,224.354 202,227.5C 201.333,234.167 201.333,240.833 202,247.5C 203.167,246.333 204.333,245.167 205.5,244C 206.332,243.312 206.998,243.479 207.5,244.5C 205.851,246.65 204.018,248.65 202,250.5C 201.219,255.917 201.385,261.25 202.5,266.5 Z"/></g>
<g><path style="opacity:0.492" fill="#00150e" d="M 402.5,272.5 C 401.167,272.833 399.833,273.167 398.5,273.5C 397.752,271.668 396.752,270.001 395.5,268.5C 395.649,265.393 395.149,262.393 394,259.5C 393.329,260.252 392.496,260.586 391.5,260.5C 390.5,258.833 389.167,257.5 387.5,256.5C 387.701,253.235 386.534,250.569 384,248.5C 383.292,249.381 382.458,250.047 381.5,250.5C 379.421,248.127 376.754,246.794 373.5,246.5C 373.5,250.175 375.167,252.841 378.5,254.5C 375.875,255.441 375.875,256.607 378.5,258C 380.345,259.128 382.345,259.628 384.5,259.5C 385.167,260.833 385.833,262.167 386.5,263.5C 386.082,264.222 385.416,264.722 384.5,265C 385.687,266.019 386.687,267.186 387.5,268.5C 388.689,269.429 390.022,269.762 391.5,269.5C 391.263,270.791 391.596,271.791 392.5,272.5C 393.116,273.798 393.116,274.798 392.5,275.5C 392.167,275.5 391.833,275.5 391.5,275.5C 380.495,275.667 369.495,275.5 358.5,275C 356.329,273.826 355.329,271.993 355.5,269.5C 360.905,265.462 365.905,260.962 370.5,256C 370.387,254.72 369.72,253.887 368.5,253.5C 364.242,255.466 359.909,257.133 355.5,258.5C 355.074,248.088 355.574,237.754 357,227.5C 358.543,225.622 360.376,224.122 362.5,223C 377.496,218.983 384.496,224.65 383.5,240C 388.721,241.232 394.054,241.899 399.5,242C 400.931,242.465 402.097,243.299 403,244.5C 404.107,248.888 404.607,253.388 404.5,258C 404.333,261.833 404.167,265.667 404,269.5C 403.487,270.527 402.987,271.527 402.5,272.5 Z"/></g>
<g><path style="opacity:0.45" fill="#03030b" d="M 104.5,239.5 C 105.15,241.435 105.483,243.435 105.5,245.5C 102.721,245.279 100.054,245.612 97.5,246.5C 96.2647,241.187 96.2647,235.853 97.5,230.5C 100.239,233.233 102.573,236.233 104.5,239.5 Z"/></g>
<g><path style="opacity:0.482" fill="#230011" d="M 107.5,258.5 C 106.5,258.5 105.5,258.5 104.5,258.5C 101.665,254.836 99.332,250.836 97.5,246.5C 100.054,245.612 102.721,245.279 105.5,245.5C 105.483,243.435 105.15,241.435 104.5,239.5C 104.007,237.194 103.674,234.861 103.5,232.5C 108.635,235.812 112.635,240.312 115.5,246C 112.954,250.263 110.287,254.43 107.5,258.5 Z"/></g>
<g><path style="opacity:0.502" fill="#240111" d="M 381.5,250.5 C 382.234,251.708 382.567,253.041 382.5,254.5C 381.167,254.5 379.833,254.5 378.5,254.5C 375.167,252.841 373.5,250.175 373.5,246.5C 376.754,246.794 379.421,248.127 381.5,250.5 Z"/></g>
<g><path style="opacity:0.502" fill="#05050c" d="M 387.5,256.5 C 386.9,257.9 385.9,258.9 384.5,259.5C 382.345,259.628 380.345,259.128 378.5,258C 375.875,256.607 375.875,255.441 378.5,254.5C 379.833,254.5 381.167,254.5 382.5,254.5C 382.567,253.041 382.234,251.708 381.5,250.5C 382.458,250.047 383.292,249.381 384,248.5C 386.534,250.569 387.701,253.235 387.5,256.5 Z"/></g>
<g><path style="opacity:0.502" fill="#230011" d="M 387.5,256.5 C 389.167,257.5 390.5,258.833 391.5,260.5C 391.5,262.167 391.5,263.833 391.5,265.5C 389.486,265.608 387.82,264.942 386.5,263.5C 385.833,262.167 385.167,260.833 384.5,259.5C 385.9,258.9 386.9,257.9 387.5,256.5 Z"/></g>
<g><path style="opacity:0.5" fill="#250012" d="M 66.5,262.5 C 65.0484,263.302 63.3817,263.802 61.5,264C 60.6433,264.689 59.9767,265.522 59.5,266.5C 63.0369,266.782 66.7036,266.782 70.5,266.5C 78.4404,268.666 82.2738,273.999 82,282.5C 92.6626,289.647 94.1626,298.313 86.5,308.5C 59.1667,308.5 31.8333,308.5 4.5,308.5C 1.07574,303.766 -0.25759,298.432 0.5,292.5C 1.78472,294.062 3.28472,295.396 5,296.5C 9.05384,294.89 12.8872,292.89 16.5,290.5C 17.6129,282.957 17.6129,275.624 16.5,268.5C 23.1524,261.027 30.819,259.694 39.5,264.5C 41.2288,267.643 43.5621,269.31 46.5,269.5C 45.7401,267.64 44.7401,265.973 43.5,264.5C 43.8333,264.5 44.1667,264.5 44.5,264.5C 48.1228,262.573 51.7894,260.573 55.5,258.5C 59.9283,257.53 63.5949,258.863 66.5,262.5 Z"/></g>
<g><path style="opacity:0.437" fill="#030309" d="M 104.5,258.5 C 105.5,258.5 106.5,258.5 107.5,258.5C 107.331,266.521 107.165,274.521 107,282.5C 116.697,278.52 118.363,280.52 112,288.5C 110.559,287.74 109.059,287.074 107.5,286.5C 106.503,293.803 106.169,301.137 106.5,308.5C 105.5,308.5 104.5,308.5 103.5,308.5C 103.658,297.493 103.992,286.493 104.5,275.5C 99.6787,275.517 97.012,273.183 96.5,268.5C 99.1194,268.232 101.619,268.565 104,269.5C 104.499,265.848 104.665,262.182 104.5,258.5 Z"/></g>
<g><path style="opacity:0.502" fill="#06050c" d="M 395.5,268.5 C 394.122,269.545 393.122,270.878 392.5,272.5C 391.596,271.791 391.263,270.791 391.5,269.5C 390.022,269.762 388.689,269.429 387.5,268.5C 386.687,267.186 385.687,266.019 384.5,265C 385.416,264.722 386.082,264.222 386.5,263.5C 387.82,264.942 389.486,265.608 391.5,265.5C 391.5,263.833 391.5,262.167 391.5,260.5C 392.496,260.586 393.329,260.252 394,259.5C 395.149,262.393 395.649,265.393 395.5,268.5 Z"/></g>
<g><path style="opacity:0.48" fill="#05030b" d="M 243.5,263.5 C 244.833,267.5 244.833,271.5 243.5,275.5C 250.092,285.44 252.425,296.44 250.5,308.5C 249.5,308.5 248.5,308.5 247.5,308.5C 247.666,301.825 247.5,295.158 247,288.5C 245.066,284.852 243.233,281.186 241.5,277.5C 237.195,277.349 233.528,275.683 230.5,272.5C 229.194,271.533 228.527,270.199 228.5,268.5C 229.833,268.5 231.167,268.5 232.5,268.5C 234.379,269.341 236.379,269.675 238.5,269.5C 238.517,267.435 238.85,265.435 239.5,263.5C 240.731,259.561 242.064,259.561 243.5,263.5 Z"/></g>
<g><path style="opacity:0.319" fill="#02020a" d="M 411.5,260.5 C 411.5,263.833 411.5,267.167 411.5,270.5C 410.883,270.389 410.383,270.056 410,269.5C 409.333,266.833 409.333,264.167 410,261.5C 410.383,260.944 410.883,260.611 411.5,260.5 Z"/></g>
<g><path style="opacity:0.497" fill="#01150e" d="M 333.5,273.5 C 339.411,277.258 343.244,282.591 345,289.5C 346.129,291.141 347.629,292.141 349.5,292.5C 354.539,296.583 356.872,301.917 356.5,308.5C 329.167,308.5 301.833,308.5 274.5,308.5C 272.86,298.935 276.027,291.268 284,285.5C 286.071,268.415 295.571,260.582 312.5,262C 317.914,263.41 322.247,266.41 325.5,271C 328.135,272.024 330.802,272.857 333.5,273.5 Z"/></g>
<g><path style="opacity:0.433" fill="#250011" d="M 239.5,263.5 C 238.85,265.435 238.517,267.435 238.5,269.5C 236.379,269.675 234.379,269.341 232.5,268.5C 231.334,266.834 231.334,265.167 232.5,263.5C 233.478,263.977 234.311,264.643 235,265.5C 235.251,261.2 236.751,260.533 239.5,263.5 Z"/></g>
<g><path style="opacity:0.426" fill="#240011" d="M 243.5,275.5 C 244.833,271.5 244.833,267.5 243.5,263.5C 246.525,260.837 247.858,261.837 247.5,266.5C 248.035,270.424 246.702,273.424 243.5,275.5 Z"/></g>
<g><path style="opacity:0.459" fill="#171114" d="M 66.5,262.5 C 67.5,264.167 68.8333,265.5 70.5,266.5C 66.7036,266.782 63.0369,266.782 59.5,266.5C 59.9767,265.522 60.6433,264.689 61.5,264C 63.3817,263.802 65.0484,263.302 66.5,262.5 Z"/></g>
<g><path style="opacity:0.467" fill="#00140d" d="M 149.5,281.5 C 147.197,279.022 145.031,276.355 143,273.5C 142.5,274 142,274.5 141.5,275C 143.5,277.667 145.5,280.333 147.5,283C 147.272,283.399 146.938,283.565 146.5,283.5C 142.561,282.465 138.728,281.131 135,279.5C 135.497,274.162 136.33,268.829 137.5,263.5C 145.006,267.183 149.006,273.183 149.5,281.5 Z"/></g>
<g><path style="opacity:0.431" fill="#02030a" d="M 158.5,297.5 C 159.222,297.918 159.722,298.584 160,299.5C 161.247,296.671 162.747,294.005 164.5,291.5C 164.833,291.833 165.167,292.167 165.5,292.5C 164.167,295.167 162.833,297.833 161.5,300.5C 161.624,301.107 161.957,301.44 162.5,301.5C 161.223,304.552 158.89,305.885 155.5,305.5C 155.5,306.5 155.5,307.5 155.5,308.5C 154.5,308.5 153.5,308.5 152.5,308.5C 152.817,305.428 152.484,302.428 151.5,299.5C 146.763,298.369 144.096,295.369 143.5,290.5C 146.602,290.154 149.435,290.821 152,292.5C 152.495,290.527 152.662,288.527 152.5,286.5C 149.923,286.545 147.923,285.545 146.5,283.5C 146.938,283.565 147.272,283.399 147.5,283C 145.5,280.333 143.5,277.667 141.5,275C 142,274.5 142.5,274 143,273.5C 145.031,276.355 147.197,279.022 149.5,281.5C 150.151,282.091 150.818,282.757 151.5,283.5C 152.328,279.204 152.828,274.871 153,270.5C 153.414,270.043 153.914,269.709 154.5,269.5C 155.452,271.045 155.785,272.712 155.5,274.5C 156.675,274.719 157.675,274.386 158.5,273.5C 157.906,267.437 160.572,264.104 166.5,263.5C 166.663,265.857 166.497,268.19 166,270.5C 163.791,272.373 161.958,274.54 160.5,277C 158.866,277.494 157.199,277.66 155.5,277.5C 155.5,285.833 155.5,294.167 155.5,302.5C 156.5,302.5 157.5,302.5 158.5,302.5C 158.5,300.833 158.5,299.167 158.5,297.5 Z"/></g>
<g><path style="opacity:0.502" fill="#171415" d="M 39.5,264.5 C 40.8333,264.5 42.1667,264.5 43.5,264.5C 44.7401,265.973 45.7401,267.64 46.5,269.5C 43.5621,269.31 41.2288,267.643 39.5,264.5 Z"/></g>
<g><path style="opacity:0.496" fill="#04050c" d="M 16.5,268.5 C 17.6129,275.624 17.6129,282.957 16.5,290.5C 12.8872,292.89 9.05384,294.89 5,296.5C 3.28472,295.396 1.78472,294.062 0.5,292.5C 0.166667,292.5 -0.166667,292.5 -0.5,292.5C -0.5,284.5 -0.5,276.5 -0.5,268.5C 5.03241,266.717 10.6991,266.717 16.5,268.5 Z"/></g>
<g><path style="opacity:0.502" fill="#240011" d="M 395.5,268.5 C 396.752,270.001 397.752,271.668 398.5,273.5C 399.552,275.405 398.886,276.738 396.5,277.5C 394.829,277.332 393.496,276.665 392.5,275.5C 393.116,274.798 393.116,273.798 392.5,272.5C 393.122,270.878 394.122,269.545 395.5,268.5 Z"/></g>
<g><path style="opacity:0.457" fill="#250012" d="M 230.5,272.5 C 233.528,275.683 237.195,277.349 241.5,277.5C 235.811,279.324 230.811,278.157 226.5,274C 227.563,272.812 228.897,272.312 230.5,272.5 Z"/></g>
<g><path style="opacity:0.425" fill="#03030b" d="M 402.5,272.5 C 403.804,276.214 403.471,279.714 401.5,283C 405.998,290.906 407.665,299.406 406.5,308.5C 405.5,308.5 404.5,308.5 403.5,308.5C 404.65,299.879 402.984,291.879 398.5,284.5C 395.26,283.427 392.76,281.427 391,278.5C 390.53,277.423 390.697,276.423 391.5,275.5C 391.833,275.5 392.167,275.5 392.5,275.5C 393.496,276.665 394.829,277.332 396.5,277.5C 398.886,276.738 399.552,275.405 398.5,273.5C 399.833,273.167 401.167,272.833 402.5,272.5 Z"/></g>
<g><path style="opacity:0.433" fill="#030308" d="M 411.5,272.5 C 411.5,284.5 411.5,296.5 411.5,308.5C 410.5,308.5 409.5,308.5 408.5,308.5C 408.334,298.828 408.5,289.161 409,279.5C 409.698,276.996 410.531,274.663 411.5,272.5 Z"/></g>
<g><path style="opacity:0.438" fill="#04030b" d="M 261.5,276.5 C 262.833,276.5 264.167,276.5 265.5,276.5C 265.5,278.5 265.5,280.5 265.5,282.5C 264.402,283.397 264.402,284.23 265.5,285C 267.134,285.494 268.801,285.66 270.5,285.5C 272.652,286.077 272.985,287.244 271.5,289C 269.238,289.642 267.071,290.475 265,291.5C 260.634,289.52 257.634,290.853 256,295.5C 255.265,299.813 254.765,304.147 254.5,308.5C 253.833,308.5 253.167,308.5 252.5,308.5C 252.334,303.489 252.501,298.489 253,293.5C 255.102,291.905 256.602,289.905 257.5,287.5C 259.098,283.963 260.431,280.296 261.5,276.5 Z"/></g>
<g><path style="opacity:0.502" fill="#230010" d="M 261.5,276.5 C 260.431,280.296 259.098,283.963 257.5,287.5C 256.533,283.806 257.033,280.139 259,276.5C 259.977,275.226 260.811,275.226 261.5,276.5 Z"/></g>
<g><path style="opacity:0.467" fill="#260011" d="M 383.5,284.5 C 385.229,289.058 383.563,291.058 378.5,290.5C 375.504,289.026 374.004,286.693 374,283.5C 377.321,282.135 380.487,282.469 383.5,284.5 Z"/></g>
<g><path style="opacity:0.443" fill="#04030b" d="M 390.5,289.5 C 389.87,291.707 388.536,293.374 386.5,294.5C 383.729,294.579 381.063,294.079 378.5,293C 377.402,292.23 377.402,291.397 378.5,290.5C 383.563,291.058 385.229,289.058 383.5,284.5C 383.843,282.775 384.843,282.275 386.5,283C 388.221,284.944 389.554,287.11 390.5,289.5 Z"/></g>
<g><path style="opacity:0.47" fill="#00150d" d="M 162.5,301.5 C 161.957,301.44 161.624,301.107 161.5,300.5C 162.833,297.833 164.167,295.167 165.5,292.5C 165.167,292.167 164.833,291.833 164.5,291.5C 162.747,294.005 161.247,296.671 160,299.5C 159.722,298.584 159.222,297.918 158.5,297.5C 158.187,294.753 158.52,292.086 159.5,289.5C 163.024,286.405 167.024,284.405 171.5,283.5C 172.222,288.489 172.388,293.489 172,298.5C 168.995,300.002 165.829,301.002 162.5,301.5 Z"/></g>
<g><path style="opacity:0.493" fill="#220010" d="M 265.5,282.5 C 267.857,282.337 270.19,282.503 272.5,283C 271.619,283.708 270.953,284.542 270.5,285.5C 268.801,285.66 267.134,285.494 265.5,285C 264.402,284.23 264.402,283.397 265.5,282.5 Z"/></g>
<g><path style="opacity:0.457" fill="#260011" d="M 390.5,289.5 C 392.332,290.248 393.999,291.248 395.5,292.5C 395.5,294.167 395.5,295.833 395.5,297.5C 393.5,297.5 391.5,297.5 389.5,297.5C 388.833,296.167 387.833,295.167 386.5,294.5C 388.536,293.374 389.87,291.707 390.5,289.5 Z"/></g>
<g><path style="opacity:0.439" fill="#03030a" d="M 400.5,308.5 C 399.5,308.5 398.5,308.5 397.5,308.5C 397.799,306.396 397.466,304.396 396.5,302.5C 395.914,302.709 395.414,303.043 395,303.5C 393.247,302.373 391.413,301.373 389.5,300.5C 388.224,299.386 388.224,298.386 389.5,297.5C 391.5,297.5 393.5,297.5 395.5,297.5C 395.5,295.833 395.5,294.167 395.5,292.5C 395.369,291.624 395.702,290.957 396.5,290.5C 398.197,291.364 399.363,292.697 400,294.5C 400.499,299.155 400.666,303.821 400.5,308.5 Z"/></g>
<g><path style="opacity:0.455" fill="#05030b" d="M 245.5,308.5 C 244.5,308.5 243.5,308.5 242.5,308.5C 242.665,305.482 242.498,302.482 242,299.5C 238.43,302.178 235.263,305.178 232.5,308.5C 227.833,308.5 223.167,308.5 218.5,308.5C 225.146,301.188 232.146,294.188 239.5,287.5C 245.115,293.257 247.115,300.257 245.5,308.5 Z"/></g>
</svg>
