<?xml version="1.0" encoding="UTF-8"?>
<!DOCTYPE svg PUBLIC "-//W3C//DTD SVG 1.1//EN" "http://www.w3.org/Graphics/SVG/1.1/DTD/svg11.dtd">
<svg xmlns="http://www.w3.org/2000/svg" version="1.1" width="173px" height="221px" style="shape-rendering:geometricPrecision; text-rendering:geometricPrecision; image-rendering:optimizeQuality; fill-rule:evenodd; clip-rule:evenodd" xmlns:xlink="http://www.w3.org/1999/xlink">
<g><path style="opacity:0.985" fill="#cd4444" d="M 172.5,77.5 C 172.5,78.8333 172.5,80.1667 172.5,81.5C 171.416,83.8151 169.749,85.6484 167.5,87C 149.495,87.2421 131.495,87.2421 113.5,87C 128.611,97.1114 143.444,107.611 158,118.5C 160.367,122.999 159.533,126.832 155.5,130C 152.036,130.817 148.702,130.483 145.5,129C 133.926,120.043 121.926,112.043 109.5,105C 114.477,111.434 117.31,118.6 118,126.5C 115.163,131.004 111.33,132.171 106.5,130C 103.113,125.39 100.113,120.557 97.5,115.5C 96.4043,112.968 95.0709,110.635 93.5,108.5C 91.5594,103.285 89.0594,98.2854 86,93.5C 82.0988,99.3759 79.2655,105.709 77.5,112.5C 75.9925,114.181 74.9925,116.181 74.5,118.5C 72.4409,121.611 70.6076,124.944 69,128.5C 59.2649,133.439 54.9316,130.439 56,119.5C 59.5592,113.401 62.2259,107.067 64,100.5C 51.8333,108.667 39.6667,116.833 27.5,125C 20.209,129.527 15.209,127.86 12.5,120C 12.8258,117.516 13.8258,115.349 15.5,113.5C 29.1667,104.333 42.8333,95.1667 56.5,86C 38.8559,84.9349 21.1892,83.9349 3.5,83C 1.92975,81.6032 0.596413,80.1032 -0.5,78.5C -0.5,76.8333 -0.5,75.1667 -0.5,73.5C 0.977392,71.193 2.97739,69.3597 5.5,68C 22.8231,68.4205 40.1564,68.4205 57.5,68C 43.0875,57.7103 28.5875,47.5436 14,37.5C 11.1667,27 15,23.1667 25.5,26C 37.2463,34.2901 49.0796,42.4567 61,50.5C 58.5771,44.9706 56.0771,39.304 53.5,33.5C 55.1515,26.0076 59.4848,23.8409 66.5,27C 72.7932,37.752 78.9598,48.5854 85,59.5C 90.3333,48.8333 95.6667,38.1667 101,27.5C 108.183,22.3905 113.016,24.0572 115.5,32.5C 112.327,39.1624 109.493,45.829 107,52.5C 120.253,43.7906 133.42,34.9573 146.5,26C 155.789,23.7099 159.622,27.2099 158,36.5C 142.269,48.2835 126.102,59.4502 109.5,70C 128.839,70.5052 148.172,71.1719 167.5,72C 169.749,73.3516 171.416,75.1849 172.5,77.5 Z"/></g>
<g><path style="opacity:1" fill="#942828" d="M 80.5,65.5 C 92.7252,65.8931 96.8919,71.8931 93,83.5C 89.2566,87.2594 84.7566,88.4261 79.5,87C 74.7514,83.767 72.9181,79.267 74,73.5C 75.3046,70.0386 77.4713,67.372 80.5,65.5 Z"/></g>
<g><path style="opacity:0.994" fill="#02422d" d="M 93.5,108.5 C 93.6666,141.502 93.5,174.502 93,207.5C 87.3908,214.504 82.3908,214.171 78,206.5C 77.5,175.168 77.3334,143.835 77.5,112.5C 79.2655,105.709 82.0988,99.3759 86,93.5C 89.0594,98.2854 91.5594,103.285 93.5,108.5 Z"/></g>
<g><path style="opacity:0.084" fill="#101110" d="M 93.5,108.5 C 95.0709,110.635 96.4043,112.968 97.5,115.5C 96.3663,138.093 96.3663,162.26 97.5,188C 96.6834,195.754 96.1834,203.588 96,211.5C 94.7666,214.734 92.7666,217.401 90,219.5C 87.3635,219.455 84.5302,219.288 81.5,219C 79.3395,218.004 77.6728,216.504 76.5,214.5C 76.5,213.167 75.8333,212.5 74.5,212.5C 74.5,181.167 74.5,149.833 74.5,118.5C 74.9925,116.181 75.9925,114.181 77.5,112.5C 77.3334,143.835 77.5,175.168 78,206.5C 82.3908,214.171 87.3908,214.504 93,207.5C 93.5,174.502 93.6666,141.502 93.5,108.5 Z"/></g>
<g><path style="opacity:0.008" fill="#bdbdbd" d="M 74.5,212.5 C 75.8333,212.5 76.5,213.167 76.5,214.5C 75.5,214.167 74.8333,213.5 74.5,212.5 Z"/></g>
</svg>
