<svg width="315" height="275" viewBox="0 0 315 275" fill="none" xmlns="http://www.w3.org/2000/svg">
<path d="M68.9062 0L9.84375 0C4.41 0 0 4.928 0 11L0 77C0 83.072 4.41 88 9.84375 88C15.2775 88 19.6875 83.072 19.6875 77V22H68.9062C74.34 22 78.75 17.072 78.75 11C78.75 4.928 74.34 0 68.9062 0ZM305.156 187C299.723 187 295.313 191.928 295.313 198V253H246.094C240.66 253 236.25 257.928 236.25 264C236.25 270.072 240.66 275 246.094 275H305.156C310.59 275 315 270.072 315 264V198C315 191.928 310.59 187 305.156 187ZM68.9062 253H19.6875V198C19.6875 191.928 15.2775 187 9.84375 187C4.41 187 0 191.928 0 198L0 264C0 270.072 4.41 275 9.84375 275H68.9062C74.34 275 78.75 270.072 78.75 264C78.75 257.928 74.34 253 68.9062 253ZM305.156 0L246.094 0C240.66 0 236.25 4.928 236.25 11C236.25 17.072 240.66 22 246.094 22H295.313V77C295.313 83.072 299.723 88 305.156 88C310.59 88 315 83.072 315 77V11C315 4.928 310.59 0 305.156 0Z" fill="#098256"/>
<path d="M158 109V167" stroke="#098256" stroke-width="20" stroke-linecap="round" stroke-linejoin="round"/>
<path d="M130 138H186" stroke="#098256" stroke-width="20" stroke-linecap="round" stroke-linejoin="round"/>
</svg>
