<?xml version="1.0" encoding="UTF-8"?>
<!DOCTYPE svg PUBLIC "-//W3C//DTD SVG 1.1//EN" "http://www.w3.org/Graphics/SVG/1.1/DTD/svg11.dtd">
<svg xmlns="http://www.w3.org/2000/svg" version="1.1" width="19px" height="27px" style="shape-rendering:geometricPrecision; text-rendering:geometricPrecision; image-rendering:optimizeQuality; fill-rule:evenodd; clip-rule:evenodd" xmlns:xlink="http://www.w3.org/1999/xlink">
<g><path style="opacity:0.903" fill="#098155" d="M 13.5,-0.5 C 13.8333,-0.5 14.1667,-0.5 14.5,-0.5C 15.4363,0.974395 16.7697,1.97439 18.5,2.5C 18.5,3.16667 18.5,3.83333 18.5,4.5C 14.7457,6.74763 11.4124,9.58096 8.5,13C 11.4124,16.419 14.7457,19.2524 18.5,21.5C 18.5,22.1667 18.5,22.8333 18.5,23.5C 16.7697,24.0256 15.4363,25.0256 14.5,26.5C 14.1667,26.5 13.8333,26.5 13.5,26.5C 8.87486,22.1759 4.20819,17.8426 -0.5,13.5C -0.5,13.1667 -0.5,12.8333 -0.5,12.5C 4.20819,8.15743 8.87486,3.8241 13.5,-0.5 Z"/></g>
</svg>
